<svg viewBox="0 0 1342 300" xmlns="http://www.w3.org/2000/svg" fill-rule="evenodd" clip-rule="evenodd" stroke-linejoin="round" stroke-miterlimit="1.414"><path d="M1166.33 99.121c-.847-.297-1.9-.394-2.6-.834.45-1.482 2.588-.278 2.6.834M936.492 106.016c-.578.422-.493 1.544-1.55 1.454.075-.954.594-1.438 1.55-1.454M1176.94 119.347c-.241.325-.472.653-.025.75-.125.875-1.653.162-1.875-.06.341-.547.972-.778 1.9-.69M692.76 113.219c-.178.456-.506.753-1.15.715.182-.456.507-.756 1.15-.715M941.982 157.219c1.107-.516 1.038 1.709-.04 1.125.015-.375.028-.75.04-1.125M1077.93 164.95c.606-.087.634.375 1.113.41-.107.403-.754.231-.775.725-.435-.075-.291-.691-.338-1.135M1070.19 172.206c-.053 1.009-.913 1.772-1.532 1.078-.081-.994.557-1.215 1.532-1.078M854.989 167.189c-.156.866-.297 1.75-1.544 1.45.075-.953.591-1.434 1.544-1.45M853.433 169.015c-.182.457-.507.754-1.15.713-.15-.803.562-.697 1.15-.713M851.494 170.83c-.387.872-.715 1.819-2.293 1.425.262-1.01 1.075-1.435 2.293-1.425M1064.71 179.158c-.238.909-1.475.753-1.197 2.216-1.369.315-.263-1.697-1.453-1.55.465-.666 1.965-.232 2.65-.666M910.177 201.225c-.931.466.644 1.15-.422 1.488-.25-.007-.497-.019-.747-.025-.072-.985.191-1.61 1.169-1.463M908.819 208.684l1.119.037c-.013.375-.022.747-.035 1.122-.819.044-1.181-.34-1.084-1.159M908.758 210.558c.069-.441.694-.297 1.131-.341.478 1.128-.269 1.625-.109 3.375-.95-.437-.247-2.431-1.022-3.034M911.602 227.156c.203-1.031 1.3.597.709 1.147-.059.059-.681-1.284-.709-1.147M1278.52 239.287c.735-.128.494 1.722-.412 1.106.009-.25.015-.5.028-.747.315.081.356-.134.384-.359M1279.57 241.945c-.344.54-.6 1.169-1.541 1.075-.081-.994.819-.938 1.541-1.075M1272.76 243.602c1.153.503 1.96 4.125-.856 3.347.791-.575.925-1.85.856-3.347M1264.67 250.096c.141 1.184-1.037.959-1.181 1.838-.809-.394.394-1.869 1.181-1.838M1253.62 255.37c1.109-.516 1.04 1.712-.038 1.125l.038-1.125zM1237.36 259.352c.819-.041 1.181.344 1.087 1.159l-1.125-.037.038-1.122M1232.09 259.935c.875.122.165 1.65-.057 1.872-1.09-.353.516-.928.057-1.872M1223.77 261.919c.594.39.835 1.028.329 1.509-.507-.134-.282-.947-.329-1.509M1077.48 260.988c-.109.653-.672.834-1.522.7.263-.497.819-.672 1.522-.7M1057.59 261.098c.247.006.497.015.747.025.153.806-.553.693-1.144.709.075-.297.387-.356.397-.734M1056.04 262.55c.296 1.604-.947 1.572-2.294 1.425.806-.431 1.134-1.375 2.294-1.425M1052.98 264.323c-.341.544-.597 1.175-1.535 1.082-.081-.994.56-1.213 1.535-1.082M1048.04 266.42c1.531-.066-.081.519.325 1.509l-1.125-.034c-.425-1.228 1.222-.247.8-1.475M1044.96 268.575c-.119-.735 1.728-.494 1.112.409-.25-.006-.5-.016-.75-.025.085-.319-.134-.356-.362-.384M1042.29 269.987c1.312.275.287 1.578-.794 1.478.028-.746 1.034-.446.794-1.478M1029 275.191l1.122.037c-.409.335-.159 1.375-1.163 1.085.016-.375.029-.75.041-1.122M1016.94 276.68c-.01.375-.025.75-.038 1.125-.787.131-.981-.291-1.481-.422.259-.497.815-.672 1.519-.703M1024.4 278.044c-.112.656-.672.838-1.525.703-.337-1.14.856-.637 1.525-.703M526.6 263.979c.059-.104.828-.672 1.137-.341.25.269-1.515.984-1.137.341M1018.33 280.101c.344 1.141-.856.638-1.522.703.263-.497.822-.672 1.522-.703M1005.19 280.434c-.294 1.365-2.731.443-3.059 1.771-2.944-1.168-6.006.863-9.006.091-.854.703-5.204 1.891-5.247-.169 6.312-.262 11.109-1.253 17.312-1.693M986.294 284.703c.072-.828 1.597-.106 2.262-.303-.075.828-1.597.106-2.262.303M409.191 274.846c-.716 2.112-2.834.834-4.909.972.631-1.4 3.609-.288 4.909-.972" fill="#fff"/><path d="M971.063 280.086c1.065-.275.953.565 1.859.437.406-1.365-1.794-1.547-1.859-.437m-42.688-26.128c1.184-.141.956 1.04 1.841 1.184 1.115-.834.118-1.681 1.193-2.209-.465-.535-1.615-.425-2.609-.463.006.653-.122 1.163-.425 1.488m-5.356-8.428c.565 1.171 2.362 1.175 2.15 3.075 1.556.493.722-1.56 1.559-1.825-.084.928.144 1.562.691 1.893.606-1.397-1.294-5.247-2.469-4.956.291.784.578 2.588-1.931 1.813m17.806-5.432c.634-1.022-1.587-1.09-1.484-.422.709-.059.809.45 1.484.422m-17.616-.565c.738-.682.113-1.947-.675-2.269-.834.772-.209 2.034.675 2.269m-4.003-3.878c-.303 1.009.722.775.703 1.525 1.441.396 1.591-1.413 2.638-.291-.181-1.881-1.103-2.925-1.769-3.434.25 1.559-1.137 1.375-1.572 2.2m-711.047-21.65c1.219.146 2.144-3.372.882-4.097-.875 1.609-.594 2.118-.882 4.097m710.404 18.25c-.091.94.54 1.193 1.078 1.54.184-.709.84-.919.812-1.853-.865-.147-1.44.016-1.89.313m1.546-1.45c.344-.047.26-2.069-.346-.76-.1.219.125.791.346.76m-2.321-9.454c.575 1.044 1.275-.506.403-.734-.013.372-.319.434-.403.734m373.584 3.332c.259-.75 1.897-.041 1.55-1.444-1.231-.503-2.181 1.244-1.55 1.444m-377.816-11.719c1.366.403 1.55-1.797.435-1.863-.325.425-.528.988-.435 1.863m384.791 4.819c-2.806.625-4.109 2.859-5.413 5.078.904-.716 2.369-1.925 3.466-2.888 1.2-1.047 4.597-2.934 2.772-4.412-.353.656-1.081.919-.825 2.222m-252.853-12.6c.394-.488 1.04-.7 1.175-1.466-.819-.181-2.103 1.056-1.175 1.466m-131.106-6.45c-.375 2.259 1.706.303 0 0M1303.8 211.58c.588-.019 1.297.087 1.15-.713l-.75-.025c-.009.375-.319.431-.4.738m-390.141-13.622c.375.015.75.025 1.125.034.094-.816-.268-1.2-1.084-1.159-.012.375-.028.75-.041 1.125m18.1-14.428c1.072.587 1.144-1.638.035-1.129-.01.375-.022.75-.035 1.129m125.313-.116c.022-.494.669-.319.775-.725-.756-.453-1.806.531-.775.725m-143.069-7.956l1.503.047c-.062-.669.438-1.866-.7-1.522.425 1.225-1.228.25-.803 1.475m20.425-4.975c-.003-.516.2-.816.41-1.113-.504-.134-.7-.556-1.488-.422-.097.935.538 1.191 1.078 1.535m211.741 7.534c1.437.25 1.247-3.972 2.39-4.425-1.184-.644-2.468-.394-3.384.266.566 3.034-2.812 4.987-2.875 7.787-.934-.087-1.178.553-1.9.691-.462 2.856-1.831 4.762-3.937 5.878-2.091 3.325-4.591 6.216-6.322 9.922-1.778 1.328-3.15 1.7-4.244 3.619-.088.15-.206 1.5-.438 1.859-.078.134-.987.194-1.134.341-1.45 1.487-.756 4.131-3.491 3.64-.168 1.369-1.115 1.916-2.318 2.175-1.028 3.05-4.028 3.975-5.832 6.191.097-1.156-1.546.769-.4.74.025-.49 1.057-.443 1.129.038-1.629.075-1.325 2.206-3.438 1.766-.297 1.143-.284.709-.053 1.871-4.491-.993-3.906 6.444-9.178 5.335.715.972-1.322.565-2.297 1.431.172.953.178 2.128-.088 2.622-1.093-.891-2.681.291-3.406 1.012.419.091.569.435.728.775-1.522.188-1.315 2.219-2.712 2.538-.181-1.041-.331-2.113-1.813-1.934-.168.684-.634 1.253-.059 1.875-.25-.616 1.787-.55 1.5.05.225 1.662-1.506 1.053-1.538 1.075-.175.14-.24.946-.406 1.115-.856.841-2.384 1.803-2.65.663 1.178-.419 2.031-1.191 2.331-2.55-3.321 1.756-6.037 4.159-8.834 6.468 1.219 1.263 2.194-1.878 3.759-.256 1.019-1.365 3.072-1.625 5.307-1.706.578-1.191 1.465-2.053 3.434-1.763 1.7-1.806 4.031-2.937 5.413-5.078 3.596-.69 4.046-4.734 8.04-4.997.01-.375.025-.746.038-1.121 3.609-1.71 6.103-4.607 8.497-7.61 1.218.138.843-1.428 1.921-1.44-.206-2.544.969-3.622 2.757-4.041-.122-.906.712-.791.437-1.856.65.047 1.166-.05 1.506-.332.935-2.918 3.554-3.209 3.582-6.262 2.218-.669 4.572-3.047 4.29-5.113 2.557-.375 2.063-4.006 4.641-4.356.022-.747.047-1.497.072-2.247 1.197-.409 2.119-1.097 3.056-1.778-.637-2.14 2.05-3.29 3.881-4.003.332-1.459.375-3.103 1.257-4.087.171-.191 1.009-.157 1.137-.341.666-.963.606-2.525 1.969-2.938.528-.921-1.444-1.218-.325-1.509m-211.672-9.781c.312-1.06 1.453-2.525.859-3.35-1.775.465-.55 2.159-.859 3.35m212.641 3.059c-.304 1.247.581 1.388 1.45 1.547-.063-.716.443-.816.418-1.487-.475-.497-1.365-.525-1.868-.06m-207.613-7.775c1.616-.022 1.281-1.94.45-2.24-.275.781-1.047 1.637-.45 2.24m-288.178-10.731c.644.041.969-.256 1.15-.716-.644-.04-.972.26-1.15.716m246.2-2.247c-2.197.122-4.084-.481-5.997-.191-4.381.669-8.772 2.985-13.616 3.316-3.778 1.259-7.178 3.059-10.665 4.909-.285.154-.819-.156-1.122-.034-2.525 2.731-7.075 3.309-9.575 6.072-.516 0-.816-.203-1.109-.413-2.86 4.357-9.475 6.65-11.591 10.513-.791.191-1.103.887-2.278.678-2.069 3.988-6.35 5.628-8.556 9.475-1.175-.216-.882 1.128-2.272.678-.657 2.663-2.013 4.572-3.941 5.878-.019.625-.041 1.25-.059 1.878-.935-.09-1.182.55-1.897.685-.066 2.397-2.45 3.869-3.166 5.156-.456.809-.269 2.1-.847 2.972-.315.478-1.197.353-1.525.703-1.478 1.578-1.165 4.072-.543 5.234-.557.569-1.96.235-1.922 1.438.459.056.884.141.728.775-1.872 1.134-.153 3.884-2.406 4.8.603 2.687-1.454 3.887-2.079 6.316 1.6 3.665.913 10.709 3.632 15.496 4.234.366 7.493-1.956 10.99-3.4 1.897-.784 4.188-.893 6.053-1.684.75-.316 1.16-1.094 1.925-1.437 2.344-1.063 5.51-.907 7.229-3.147a36.343 36.343 0 0 0 12.284-8.61c1.975-.472 3.347-1.6 4.591-2.856.5-.503 1.778-.172 2.278-.678 1.465-3.6 5.165-4.825 8.093-6.869-.509-1.7.41-2.169 1.235-3.337 2.419-.513 3.884-2.341 3.89-4.378.125-1.397 1.866-1.054 2.685-1.788.172-.159-.078-.909.037-1.125.147-.284.928-.116 1.138-.341 1.062-1.168 3.197-3.078 3.878-4.003.412-.559.094-1.575.45-2.237.094-.172.984-.078 1.137-.335.204-.359-.209-1.171.044-1.5.816-1.068 2.866-1.328 1.981-3.312 1.466.012 1.229-1.794 2.688-1.791-.206-3.931 4.559-5.662 4.828-10.35.709.103.841-.4 1.513-.328 1.065-5.04 6.525-9.837 6.515-15.925 2.025-1.622 2.703-4.544 1.738-7.447-2.244-.865-5.397.488-6.394.544m190.519 2.353c2.178 1.294 4.687-1.4 4.225-2.869-1.919.413-2.947 1.772-4.225 2.869m-584.628-32.609c-.941.687-1.757 1.744-3.035 1.028-1.334 1.041-3.309 1.856-4.956 2.466-2.375.887-4.716 1.162-6.844 2.784-.265.203-.053.537-.4.737-2.153 1.254-4.509 2.397-6.865 3.532-.525.215-.104 1.44-.797 1.475-3.757-.972-3.591 4.1-6.103 3.181-1.15 2.394-2.957 4.087-5.419 5.078-2.538 3.756-5.9 6.631-8.219 10.619-1.034.319-1.634 1.1-2.672 1.415-.903 3.304-2.35 6.022-5.475 6.954 1.978 5.571-3.09 6.64-3.744 11.509-2.778 1.044-3.612 4.162-6.178 5.434.691.078.191 1.275.703 1.522-3.168.41-1.575 3.488-3.881 4-.031 1-.065 2.003-.097 3-.75.619-2.118.588-3.034 1.028-.541 2.65-2.275 4.035-2.475 7.053-2.319.497-1.544 4.297-3.906 4.75.44 4.535-3.441 5.885-2.925 9.285-.65-.047-1.169.047-1.51.331 1.247 3.459-3.425 5.481-1.8 9.319-2.225 1.606-3.465 4.79-4.362 7.365 1.937 1.107-1.669 4.475-.203 6.372-1.641.703-1.438 3.378-1.682 5.575 1.163 1.56-.237 4.038-.565 5.985 1.5 1.778 1.131 3.228 3.228 4.603-1.172 1.125.416 2.744 1.016 3.409 10.993-1.197 17.806-6.856 27.325-9.628.528-.216.103-1.444.796-1.475 1.994-.072 3.372-.8 3.832-2.503 1.903-1.075 4.337-1.581 5.006-3.972 6.425-2.966 9.219-9.803 14.697-13.784.025-.75.05-1.5.072-2.25 1.478-.103 1.656-1.591 3.059-1.775.8-2.522 3.578-4.519 3.228-7.025 3.5-1.566 3.403-6.963 6.294-9.178-.05-1.557.541-1.444.084-2.625 2.619-.36.838-3.41 2.757-4.038-.554-.347.121-.559-.325-1.516 2.003-.637 1.353-2.881 2.031-4.809.2-.572 1.059-1.069 1.169-1.462.19-.679-.363-1.172-.325-1.513.003-.044.746-.597.775-.722.346-1.644.421-3.306.168-5.25.585-1.056 1.435-1.828 2.332-2.55.443-2.29-.457-3.9.215-6.747.166-.859 1.653-.306 1.547-1.453.013-.494-.644-.362-.725-.775 1.188-1.834.788-4.094 1.328-6.334.338-1.406 1.453-2.713 1.631-4.075.082-.635-.478-1.266-.315-1.888.581-2.181 2.212-3.953 2.815-5.912.335-1.078-.94-2.6.847-2.975-.656-.11-.834-.669-.7-1.522 1.466-2.256 1.938-4.606 3.203-6.275-1.115-3.15 1.435-4.022 1.338-6.709 2.212-1.969 1.85-5.235 3.966-6.625.109-.71-.397-.844-.329-1.513.685-.456 2.141-2.081 1.585-2.578-2.75.662-4.616 1.675-7.181 1.647m565.021 47.362c-.971 1.16-1.868 2.4-2.743 3.663.987-.372 2.772-1.403 2.987.472-.765 1.475-2.687-.372-3.422 1.39.697.075 1.247.288 1.475.8-.681 2.125-2.856.485-4.556 1.732-.025.746-.047 1.496-.072 2.243-.628-.015-1.253-.037-1.875-.056-.294 1.753-1.825 2.188-2.009 4.063.525.112.403.834.719 1.146 1.543-.062 2.356-1.131 3.009-.278a28.264 28.264 0 0 0-2.694 2.166c-1.881-2.931-3.6 2.353-6.444 2.047-.187.897.657.834.316 1.881-.862.506-2.481.2-2.672 1.416 1.135 1.331 4.413-2.019 4.847.906-1.912 1.45-5.678.928-6.856 3.159 1.565 1.519.794 3.078 1.719 4.928-2.222 2.038-1.619 3.122-2.444 5.929-.5-.016-.997-.032-1.497-.05-.038.884.609 1.121.303 2.262-2.062 1.353-.822 4.478-.975 7.097-.116 1.916-1.031 3.784-.931 5.594.084 1.581 1.669 2.803.615 4.15 2.038.034.369 3.534 2.129 3.822-.022.75-.047 1.496-.075 2.246 1.962 1.441 1.871 4.794 5.093 5.044 1.338 3.106 4.744 4.275 7.691 5.875 1.619-.734 2.169-2.603 4.947-2.097.947-1.312 2.094-2.412 4.206-2.49 1.656-1.803 3.4-3.588 5.413-5.078 1.706-1.26 3.831-1.894 5.359-3.207.928-.793 1.406-1.812 2.331-2.55 2.416-1.928 5.2-3.693 8.041-4.997.397-1 .997-1.778 2.309-1.8.153-.871.431-1.603 1.185-1.837 1.05.341.987-.5 1.884-.316 2.15-2.618 4.278-5.262 6.625-7.668 3.003-1.447 5.775-3.144 6.234-7.304 3.466-.696 5.397-3.031 6.578-6.168 3.179-.747 3.541-4.494 5.1-6.966 3.813-.844 4.075-5.472 7.716-6.503.163-3.916 5.019-5.953 5.225-11.091 1.166-1.603 2.944-2.55 3.169-5.15.375.013.75.022 1.125.035-.691-1.947.853-2.332 1.981-3.313.109-.706-.394-.84-.328-1.512 1.4-1.869 3.009-3.513 3.578-6.263 4.684-4.45 6.341-13.725 7.784-20.384-1.646-1.547-4.034-.753-6.7-1.716-.575.419-.95 1.053-1.906 1.066-1.003-.035-2.003-.066-3-.1-4.912 2.412-12.922.112-17.762 3.934-2.647-.525-3.516 1.597-7.169 1.272-.394.488-.4 1.381-1.172 1.463l-1.497-.047c-.247.772-.765 1.253-1.55 1.45-2.909-.128-3.569 2.14-6.44 2.047-2.704 2.428-9.019 3.471-9.588 6.446.228-1.065.534.622.725.772-2.231-.184-2.103 2.153-3.834 2.503-.216 1.175 1.125.888.678 2.272-.706-.106-.838.397-1.513.325-1.409.357-.543-1.422-1.834-1.181.212 3.266-1.95-.341-3.038 1.028-.137 2.472 2.372.638 3.329 1.606-1.119.229-1.666 1.066-3.397.644-.647 1.453 1.612.181 1.459 1.169-.772.337-1.506.719-2.284 1.053-.06-.709.45-.809.425-1.484-.785.197-2.444-.544-2.638.29 2.463.907-.119.41-1.147.713-1.918.569-2.806 2.169-4.147.615-.056 1.61-.281 2.379.257 3.763-1.378.562-3.1 1.622-4.9.594.206 2.025-3.478-.091-2.707 2.54.972.1 2.55-1.118 3.013-.281-1.231-.022-.95 1.575-2.297 1.428-.994.078-.25-1.462-1.466-1.172M138.516 92.464c-1.657 1.597-3.747 2.725-6.841 2.784-1.937 2.072-4.912 3.032-8.006 3.869-.775.078-.397 1.384-1.172 1.463-.881-.035-1.122.612-2.259.303-1.441.922-2.366 2.39-4.582 2.478-2.147 2.056-5.093 4.55-8.053 5.372-1.278 2.768-4.422 3.556-6.915 5.031-.297.847-.394 1.906-.832 2.6-1.184-.097-1.284.956-2.65.666-5.45 6.462-11.972 11.784-18.19 17.428-1.022 2.4-2.797 3.993-4.678 5.475.634.175-.094.484-.035 1.128-3.456 2-4.665 6.394-8.147 8.365-.959 3.113-3.14 4.925-5.465 6.579-.172 1.496-1.091 2.196-1.607 3.328-2.053 1.04-3.962 2.234-4.293 5.112-1.566.135-1.982 1.506-2.344 2.928-.509.103-.728.513-1.509.328-2.022 4.244-4.894 6.719-6.391 12.175-3.681 2.407-3.838 8.575-7.122 11.4.966 1.694-1.35 3.316-1.644 4.454-.209.821.507 1.79.294 2.637-.103.403-.881.566-1.175 1.459-.341 1.038-.184 1.835-.097 3-1.987.66-2.619 4.6-2.087 6.685-.982.897-1.263 2.534-2.357 3.303.882 3.475-1.893 6.212-2.925 9.281-1.325 3.956-.512 8.613-3.371 11.531-1.285 6.288-2.882 9.188-1.244 15.341-1.594.875-.719 4.138.606 4.519-.891-.172.156 1.715-1.159 1.094.197 2.965 3.753 2.781 3.943 5.75 1.247.053 2.025 1.306 3.325 1.606.382.094 4.157-.578 4.897-.591 2.478-.044 6.053-1.087 6.466-2.797 2.137-.172 3.494-1.184 5.309-1.706 3.925-5.112 10.397-7.519 13.563-13.444 1.119.028 1.303-.937 2.284-1.053-.181-1.744 1.891-1.087 1.594-2.95 1.544-.165 1.828-1.672 3.434-1.769 1.603-3.953 6.885-7.059 8.644-12.103 2.063-.64 2.647-2.862 4.619-3.606.115-2.066 1.862-2.403 2.015-4.434 4.379-2.569 5.604-8.503 9.741-11.319 2.431-6.2 7.731-9.334 9.888-15.819.515.035.828-.15 1.137-.34.25-2.979 3.016-4.847 3.216-6.647.515.031.828-.15 1.134-.341 1.338-4.391 5.328-5.944 5.981-11.066 1.863-1.759 2.957-4.34 4.703-6.228-.828-2.087 1.4-1.75.894-4.468 1.85.162 1.672-1.838 2.71-2.541-.204-1.694-.197-2.2.481-3.363.397-.684 1.809-1.578 1.934-1.815.3-.578-.481-.922-.325-1.51.328-1.246 1.947-1.275.844-2.978 3.791-4.018 1.275-8.509 4.544-12.981.025-.878.056-1.75.084-2.625.856-.375 1.134-1.372 1.934-1.812-.99-2.922 1.916-5.729 1.388-8.213 2.837-1.497 1.644-7.291 4.047-9.25.15-.866-.013-1.441-.316-1.884 4.435-5.178 4.447-12.775 7.747-19.263-2.531-.2-3.003-1.1-5.609-.556m1009.63 12.078c.375.013.75.022 1.125.038.159-1.244-.788-1.447-1.053-2.288.259 1.306-.75 1.559-.072 2.25m.481-3.362c-.5-.132-.697-.557-1.484-.422-.631 1.025 1.584 1.087 1.484.422m177.822 82.612c.484.503 1.122.266 1.513-.328-.563.047-1.379-.181-1.513.328M659.215 82.88c.422.084.193.381-.013.375-.4 5.284.822 13.45.125 19.512 0 .366.45.306.738.4-.722 2.859-2.547 6.625-1.1 10.844-.594.14-.357 1.169-1.522.703 2.065 2.944-1.997 5.969.475 8.644-3.941 3.393-1.66 11.325-4.638 15.984.382 1.194.003.85-.075 2.25.025 1.319-1.306 1.191-1.572 2.2.563 2.938.941 4.028.51 7.522 1.662-.363 1.369-2.628 1.994-3.691.143-.237 1.056-.178 1.137-.337.197-.388-.187-1.675.075-2.247.475-1.056 1.5-1.544 2.319-2.181.54-.838-.922-1.441.047-1.5-.138-1.178.978-1.025 1.55-1.447-.053-3.731 4.075-5.853 4.456-10.363.994-.881 1.65-2.118 2.719-2.915.025-.75.05-1.5.072-2.25 1.95-3.088 4.925-5.085 5.921-9.191 1.597-.362 1.55-2.481 3.097-2.903 3.669-7.584 10.678-11.613 15.944-17.497 2.778-.912 5.469-1.919 6.891-4.281 2.362.065 4.15-.485 5.668-1.319 12.335-.966 16.816 7.122 19.363 16.378.231 1.153-.431 1.353-.447 2.238.828 1.522 1.378 3.312 2.478 4.581-.981.816-.072 1.684-.084 2.625-.016 1.356-.61 3.044-.519 4.484.063.963.675 1.675.666 2.647-.016 1.497-.582 2.697-.507 4.11.06 1.175.966 2.518 1.007 3.784.068 2.375-1.888 6.981-.335 10.497-.281 1.428-1.872 4.559-.184 5.622-1.109 2.8.003 6.203-.309 9.743-.085.91-.704 2.038-.85 2.975-.516 3.447-.369 6.913-.697 10.11-.222 2.153-1.457 4.162.181 6.009-3.116 8.503 1.559 13.403.819 21.413 1.925 3.997 3.487 4.953 3.034 10.6.263.356.663.59 1.103.784.585 4.366 3.703 7.434 6.035 10.7.728 1.025 1.793 1.756 2.537 2.706.178.228-.216.91-.037 1.128 3.331 4.019 8.775 6.063 11.675 10.5 1.137.507 2.925.404 2.937 1.972.872.032 1.75.057 2.622.085.181.562.525.962.7 1.518 2.575.016 4.494.641 5.566 2.06 12.134 3.453 23.618 3.881 35.918 3.025-2.403-4.406-4.056-9.528-5.915-14.447.481-1.816 1.29-4.006-.207-5.259.066-6.047 2.138-12.838 2.475-18.682 1.325-2.318 2.45-6.525 2.538-8.922 2.003-1.684 1.225-3.943 3.541-5.14 1.206-7.753 7.909-9.656 9.546-16.953 3.329-1.75 5.763-6.516 7.413-8.766 3.584-1.603 5.691-4.781 9.209-6.459 3.288-3.6 6.563-7.216 10.819-9.782 2.216-2.29 4.525-4.484 7.325-6.146.272-.294.613-1.007.038-1.125.084-.929 1.268-.069 1.496.05 1.779-.307 1.682-2.597 3.835-2.504.434-2.121 2.153-2.871 3.144-4.4 2.234-.071 3.953-.693 4.581-2.481 2.106-.909 4.794-1.972 7.603-3.134 2.616-1.081 4.887-1.853 7.978-3.119.894-.369 1.684-1.356 2.681-1.791 1.122-.487 3.553-.821 4.163-.993.665-.319.728-1.291 1.184-1.838 2.263.678 3.213-1.419 4.941-2.094 2.581-1.006 5.387-.8 7.581-2.384.438-.119.972-.628.403-.734 6.885-1.785 11.685-3.482 20.719-2.716 3.403 1.416 5.116 4.416 9.603 4.813 2.703 1.943 3.784 5.415 5.744 8.062 1.681-2.094 1.569-5.872 3.953-6.253.606-1.503-.35-2.263.844-2.975-.413-1.166-2-2.472-.978-4.534 1.209-.291.746 1 1.459 1.175.147-1.45 1.684-3.238 3.506-4.016-.528-1.075-1.034-2.181-1.778-3.059.75.025 1.5.046 2.25.071.184-1.503-2.15-.646-1.8-2.306 1.453.285 1.772-2.272 3.419-1.394.028-.75.05-1.5.075-2.246-1.906-.094-.869 2.953-3.085 2.525.366-2.263 1.144-4.654 2.088-6.685.334-.712 1.356-1.206 1.562-1.825.035-.112-.946-2.312.413-1.112.881.022-.103-1.028-.728-.775 3.662-2.685 3.584-9.357 7.503-11.766.062-2.544 1.187-6.894 3.637-8.137 1.866-4.735 3.954-9.225 7.157-12.529-.003-2.587 1.693-3.359 2.778-4.787.028-.75.05-1.5.072-2.25 3.559-2.878 5.209-9.584 8.259-11.744.156-.631-.272-.715-.728-.772.947-.281.844-1.684 2.297-1.428 1.406-3.925 4.772-5.762 5.947-9.937 1.875-1.1 3.481-2.491 3.912-5.128 3.21-1.363 3.691-5.632 6.978-6.907.778-2.531 2.647-3.893 3.213-6.65 5.412-.175 7.597-3.79 11.803-5.25 1.009-.343 1.287-1.472 1.944-2.187 5.228-.113 10.178-4.535 12.709 1.531-.409.984-.687 2.113-1.947 2.191-.775 3.05-2.397 5.197-2.9 8.534-1.831 1.666-2.794 4.256-3.959 6.628-2.66.785-2.025 5.078-4.694 5.853.813 1.491-.737 1.463-1.572 2.2-1.456 4.307-2.856 8.835-5.644 12.2-.946 1.144-2.618 1.678-3.468 2.891-.188.266-.457.975-.8 1.475-.628.928-.282 1.178-.832 2.6-.978 2.531-4.518 5.512-5.175 9.216-.668.315-.662 1.359-1.543 1.45-.025.75-.05 1.5-.072 2.25-2.463.734-2.063 4.515-4.669 5.103.197 1.878-1.291 4.637-2.816 5.909.038 2.772-2.771 5.466-4.375 7.741-.665 4.978-3.568 7.565-5.971 10.687-.341 1.053.5.991.318 1.888-2.193.953-1.412 3.334-2.078 6.312-2.219 0-2.569 2.375-1.622 3.703-1.653.135-1.14 2.447-.843 2.972-.26.497-.822.672-1.525.7.096 5.119-3.688 7.016-4.516 12.238-1.319.662-1.875 2.137-2.731 3.29 1.768 3.832-2.06 6.166-4.357 6.988 1.129 1.031.919 1.053.291 2.637 1.288-2.093.456 3.441-1.216 2.96-.325 1.275 1.507.528 1.06 1.912-.713.4-.841 1.425-1.556 1.825-.141 2.094-.804 3.878-1.307 5.588-1.034 3.55-3.172 6.228-2.559 9.672-.4 1.203-1.988 1.137-1.213 2.587-1.368.084-1.753 1.231-2.315 2.178-.469 1.163.562.928.703 1.525-.725 1.556-.003 4.647-1.306 5.585.593 6.181-1.819 10.256-3.128 15.656 1.684 2.434.375 9.344-1.497 11.581 1.575 1.238 1.55 5.394-.553 5.609-.247 1.325 1.293.972 1.053 2.288-2.319.569.309 2.069-.863 3.35.05.441.675.334 1.116.412-.131.504-.947.275-1.516.322-.3 1.013 1.785-.206 1.481.8.069 1.497-1.771.963-1.95 2.188.207.919 1.888.259 1.525-.697.966 1.147.041 1.85.279 3.006-.45-1.134-1.532-.678-1.888.316.241.915 1.959 1.39.666 2.65.103.512.931.34 1.49.422.997 1.206.028 2.718.244 4.134.531 3.559 3.322 6.634 1.197 9.416.762.05.816 2.587 1.453 1.547.434.981-.459 1.509-.475 2.99 2.397.65.297-1.081 1.913-1.065-.082.315.134.356.362.387-.084.316.134.356.363.388.096 1.859-1.129.171-1.535 1.075.391 1.775 1.313-.829 2.238.45-.447.996-.219 2.309 1.037 2.659-.59 1.228-.303 2.481.244 4.131.969 0 .444-1.594 1.912-1.062 1.05 1.987 2.097 5.006 5.054 6.165.237 1.032-.769.728-.8 1.472 1.156-.231 1.356.428 2.237.447.884 2.569 3.684 3.331 5.081 5.416 4.397 1.209 5.991 5.043 10.688 5.972 1.112 1.018 2.39 1.881 4.44 2.015-.021.744 1.004.51.704 1.525 3.003.485 6.256-.281 7.421 2.488 7.56-.485 12.254 1.865 18.729.978 1.309-.181 1.25-.281 3.009-.278 1.619.003 2.506-1.003 4.175-1.372.691-.15 1.559.253 2.244.075 1.934-.51 4.893-1.647 8.306-1.61.459-.546 1.572-.393 1.547-1.453 5.225 1.153 6.806-3.009 11.706-2.25 3.472-2.24 7.469-3.918 11.438-5.637-.429-2.028-1.879-3.088-3.629-3.866-.771-1.219-1.034-2.909-2.906-3.1-.6-.762.05-.472.05-1.494-.944-.181-2.344.21-2.987-.475-1.85-1.959-3.369-3.981-4.319-5.762-.419-.788-1.519-1.069-1.825-1.563-.541-.871.219-2.709-1.416-2.671-1.2-6.347-4.018-11.116-3.206-16.982-.312-.803-.528-1.687-1.053-2.287.562-1.756.706-4.278-.197-5.635.141-1.015.544-1.753 1.2-2.212.391-1.7-.559-2.147-.641-3.397-.281-1.462.954-1.303 1.197-2.212.56-5.091 2.991-9.954 3.066-13.788 1.681-.919 1.428-3.9 3.156-4.772.528-1.503-.106-3.647.928-5.6.15-.278 1.032-.447 1.147-.712.338-.757.085-1.785.46-2.613.365-.812 1.406-1.319 1.943-2.19 1.375-2.2 2.191-5.091 3.216-6.647.269-.413 1.272-.357 1.525-.707.297-.409.078-1.306.437-1.859.275-.428 1.247-.656 1.532-1.078.368-.538.147-1.341.437-1.863.475-.846 1.694-.996 2.31-1.8.381-.503.068-1.309.431-1.862.465-.709 1.99-1.203 2.697-2.166 1.428-1.934 3.087-4.247 5.428-5.453.319-3.512 3.044-2.131 3.556-5.515 1.134-.854 3.081-.844 3.091-2.9.934.084 1.181-.554 1.893-.691 3.557-3.447 7.579-6.394 12.285-8.609 1.947-1.419 3.256-3.51 6.128-3.935.437-.828 1.066-1.447 2.297-1.425.587-1.059 1.653-1.603 2.334-2.55 2.435.266 3.21-1.231 5.297-1.331 1.488-1.388 2.569-3.206 5.359-3.206.516-.353.775-.978 1.169-1.466 6.844-1.381 12.241-6.291 18.966-6.519.884-1.256 2.319-1.922 3.469-2.893 1.1.362-.885.534-.419 1.49 4.365-1.415 9.778-1.719 12.534-4.853 2.835.131 7.122-1.416 9.844-2.684 1.853.622 3.503-.607 4.909-.969.619-.163 2.372.741 2.272-.678.544.215.925.584 1.475.797 4.422-1.7 12.485-.394 17.203 1.678 2.428-.41 2.613.215 4.863.531 2.8 3.006 6.694 4.428 7.228 8.484.181 1.332-.813 2.213-.119 3.75-.34.282-.856.375-1.506.329.503 2.025-.288 3.19.212 4.881-2.25-.606.097 3.334-.115 3.75-.756.103-1.172-.116-1.103-.788-.266.938-1.341 2.369-1.244 3.713.091 1.287 1.372 2.022 1.028 3.034.284 1.11.959-.456 1.875.06.522 1.159-.169 1.456.3 2.262 1.003-.922 2.153.041 3.047-1.403 1.222-.084 1.628.734 2.603.831.681.072 1.528-.603 2.647-.665.7-.038 1.116.509 1.484.425 2.269-.522 1.61-1.113 4.513-.232.812.247 2.234.06 2.25.072a3.91 3.91 0 0 1 1.765 3.435c-.443.946-1.487 1.259-2.306 1.8.081 3.968-2.609 4.968-4.356 6.99.831 2.203-.981 2.669-.156 4.872-2.735.706-.707 4.022-3.175 5.528.009.591-.232 1.422.325 1.51-.413 1.109-2.094.871-1.594 2.95.112.528.656.053.756-.354 1.694 2.079-2.962 2.272-.89 4.479-3.519-1.025-4.179 3.965-5.825 6.19 1.765-.703 1.8-3.247 4.593-2.856-.29 4.856-2.653 8.516-2.672 13.047-2.287 1.672-.165 7.447-2.15 8.562 1.06 7.235-.387 15.138 2.644 22.969.391.363.072 1.388 1.088 1.159-.713 3.65 1.975 6.747 2.709 9.091.178.569-1.069 1.238.341 1.141-.328 1.459-2.253 1.212-2.347 2.925.415 1.547 3.781.334 4.84 1.278-.181.331-.353.662-.775.728 1.766 1.012 2.432 3.05 3.991 4.253 1.05.028-.859-1.05.775-.722.456 1.019.194 1.431-.072 2.247 1.047.347.988-.5 1.885-.312.415.565.4.956-.05 1.496.875-.09 1.437.104 1.862.435.2 3.084 3.147 3.59 5.478 4.678-.15.866.013 1.441.316 1.887 1.137.307 1.378-.343 2.259-.303 5.481 3.591 14.319 3.563 20.485 4.785 2.487-1.488 5.171-.753 7.531-.888.737-.04 1.209-.665 1.897-.69.584-.019 1.534.54 2.234.446 1.709-.225 4.019-1.087 6.059-1.678 3.179-.928 6.769-2.015 9.479-3.075 1.021-.403 2.309-1.593 4.546-1.356 3.347-1.856 8.713-1.559 10.3-5.297 2.004.325 2.41-1.053 3.069-2.153 2.078-.628 4.56-.822 4.981-3.216 3.072-.606 4.304-3.165 7.254-3.896 1.415-1.594 2.968-3.038 5.006-3.963 1.519-2.903 4.978-3.737 6.225-6.931.669.069.806-.438 1.512-.328 1.863-4.216 7.838-4.044 9.282-8.707 1.218 1.385 1.321-1.3 1.95-2.19 1.062-1.525 4.115-2.91 5.778-4.694.303-.325.09-1.184.422-1.484.337-.319 1.14-.035 1.506-.328 1.825-1.466 2.815-4.172 5.031-4.713 6.741-6.381 12.969-13.306 20.488-18.859.384-.753.815-1.457 1.196-2.213 1.866-.206 2.025-2.231 3.838-2.503-2.669 2.066-3.391 6.206-6.991 7.281-1.6 1.591-2.8 4.11-2.828 6.285-3.812-.397-3.475 3.862-3.953 6.253-1.047.565-2.737.444-3.784 1.006.281 1.109 1.218-.184 1.872.059.131.422-3.879 1.782-2.366 3.675-.703.797-1.416 1.594-3.044 1.407-.647 1.768-1.64 3.162-3.131 4.022 1.053 1.612-.616 3.071-1.622 3.703-.2-1.378.856-1.41.834-2.597-2.456-.425-1.94 2.322-3.468 2.887.062.672-.435 1.866.7 1.522-.819.3-1.847-.022-2.66 1.041-.503 1.2 1.207.325.703 1.525-2.212 2.297-4.478 4.528-6.237 7.303 2.878-.55 4.5-5.788 8.462-6.481-.565 2.756-3.459 3.034-3.94 5.878-3.178 1.137-4.191 4.575-6.953 6.153-.725 1.169-1.344 2.441-3.082 2.531-.231 2.719-3.465 2.247-3.543 5.141-1.16.222-.725.234-1.872-.063-.919.828-1.831 1.66-1.981 3.316-1.71 1.125-2.763.884-2.71 2.534-4.697 1.069-4.903 6.919-9.99 7.557-.875 1.918-2.829 2.678-4.26 3.993-1.647-.206-2.903.013-3.772.635-.459 1.162-.059.84-.072 2.24-2.856-.068-3.646 2.06-5.356 3.21-1.9-1.672-3.569.615-3.819 2.125-1.015-.372.707-1.288-.312-1.882-.691.766-1.328.607-.813 1.85-1.593.632-3.75.654-4.206 2.494-1.159-.165-1.819.806-2.625-.084-2.419 1.034-4.628 2.297-6.144 4.303-2.346-.05-3.975.672-5.306 1.709-.29.997.753.747 1.091 1.157-.406.862-1.328 1.165-2.66 1.043 1.441-1.712-1.334-1.975-2.55-2.334-1.568 2.722-7.565.722-8.756 3.847-1-.956-4.403-.906-4.894.594-.762-.135-.703-1.041-1.465-1.172-.985.234-1.316 1.181-2.294 1.425-1.784-1.45-4.634-.538-5.684 1.693-.503-.131-.282-.946-.325-1.509-2.313-.525-3.11.559-4.175 1.366-.772.05-2.338-1.963-2.619-.085-.459-.175-.753-.503-.719-1.143-2.775.365-7.19-.725-9.309-2.179-.666-.065-.803.435-1.51.329-5.056-2.835-10.531-1.885-14.44-6.091-1.05-.347-.985.497-1.881.312-.854-1.743-2.813-2.453-5.163-2.787-.237-2.106-1.994-.538-2.169-2.7-5.278-2.8-9.225-6.856-12.765-11.288.397-.99.597-2.203 1.218-2.962-.5-1.041-1.937-.413-3.728-.872.666-1.606-1.603-1.722.072-2.247-.897-.856-2.065-1.453-3.312-1.984.322-1.363-.853-2.11.103-3-1.078-1.778-1.735-3.95-3.21-5.353 1.166-2.332-1.184-2.375-.231-4.507-.35-.521-.978-.781-1.462-1.171.047-4.488-.903-5.797-2.35-8.707 1.687-1.965-.907-4.203-1.678-6.056-2.257 1.213-3.822 3.159-4.694 5.85-3.16.634-2.497 5.35-5.45 6.206-2.469 4.863-6.625 7.922-9.041 12.838-1.012.215-1.459 1.028-2.297 1.431-1.915 4.419-4.45 8.175-8.581 10.231-.931 2.241-2.669 3.616-5.016 4.338-.021.625-.04 1.25-.062 1.878-3.709-.988-2.916 2.831-5.716 2.816.282.343.372.859.322 1.509-4.675.575-5.769 4.959-11.031 4.9-.819.681-1.353 1.662-1.963 2.566-1.581.012.025-.579.038-1.125-1.584-.266-1.769.953-2.306 1.8.512-.663-1.407-.713-3.375-.107-1.013.313-4.613 2.357-6.082 2.432-.837.184-.512-.732-1.1-.785-.94-.125-3.003 1.26-.784 1.1-4.747-.581-11.291.597-16.891.21-1.49.065.379 1.315-1.162 1.09-.3-.669-1.353-1.35.409-1.112-2.49-1.553-4.715-.253-7.89.493.125.732 1.712.091 1.072 1.535-1.588.475-2.835-.488-2.672 1.419-1.172.14-1.797-.525-1.085-1.16-2.059.475-1.465 1.472-1.584 2.572-1.819.263-1.744 2.534-4.197 2.119-.803.15-.697-.56-.712-1.15-1.482.49-1.832 2.187-4.185 1.74-.519.71.228 1.522-.456 2.616-1.631-.194-1.419 1.591-3.409 1.013.743-1.01 2.756-.679 2.706-2.535-3.453.191-5.163 2.244-7.978 3.119.897 1.303 1.472-.981 3.012-.278-1.55 1.325-2.828 2.928-5.356 3.203-.291-1.213.997-.744 1.172-1.463-2.641-1-5.3 1.325-7.566 2.01.772 1.175 2.119-.294 3.369.109-1.188 1.297-3 1.325-4.181 1.741-.438-.078-.297-.694-.338-1.135-.628-.018-1.253-.037-1.875-.059-.897.2-1.762.444-1.922 1.438-9.606 2.275-22.722 3.662-31.29 4.621-1.2.432-.107 1.094-1.188 1.841-8.915-.666-19.959-1.987-26.825-5.737-9.315-2.166-15-7.747-21.744-12.329-.859-1.618-2.018-2.95-4.015-3.503.719-1.272.281-1.734-1.45-1.543-.985-2.229-1.241-5.138-4.335-5.397 1.35-2.875-4.281-2.388-2.1-4.566-1.296 1.041-4.221-2.159-2.853-4.594-.915-.478-1.197-1.547-2.575-1.584-.609-3.066-1.503-5.866-3.509-7.616.919-2.087-1.141-4.731-2.406-6.831.7-1.181 1.512-3.5-.241-4.137.6-.75.684-3.335.128-4.119-1.131.206.335.806-.047 1.497-2.303-.928-1.106-3.466-1.318-5.669-.185-1.884.678-4.113.54-5.238-.24-2.043-1.897-3.156-1.706-5.309-.659-.65-2.072.413-1.847-.806.606-1.46.434.084 1.5.047.472-2.51 4.988-2.191 4.278-4.741-1.128.097-.765 1.772-2.662 1.041.728-1.238 1.018-2.15-.278-3.01.709-1.997 1.681-3.793.553-5.609 3.028-1.866-.522-7.309 2.537-8.922-.547-1.322-.928-3.053.497-3.737-.097-.513-.928-.344-1.491-.422-.143-1.838 1.847-1.394 1.972-2.938-.775-1.925-2.312.141-3.384.266-1.144 4.906-5.072 6.194-5.209 10.334-4.788 3.166-5.463 10.716-10.2 13.931-.047.532-.097 1.063.337 1.135-3.647 4.722-4.862 9.684-9.428 13.206-1.384 4.206-4.228 6.856-7.059 9.531.415 2.253-1.257 2.275-1.254 4.085-2.59.859-4.446 2.503-5.418 5.078-1.482-.235-2.057 1.634-3.082 2.531-.203.181-.921-.219-1.121-.041-.329.304-.107 1.182-.429 1.494-.25.241-.893.072-1.131.338-.35.384-.387 1.093-.8 1.475-.875.815-2.122 1-3.056 1.775-1.525 1.268-2.128 2.831-3.881 4.006-.753.506-2.15 1.297-3.069 2.15-1.197 1.106-2.1 2.747-4.594 2.853-2.59 3.316-8.469 3.122-11.447 6.013-5.915.725-11.612 2.596-18.428 1.287-2.694-.516-4.697-.837-7.437-2.116-1.01-.303-.775.725-1.522.704-.466.393-.975-.732-1.475-.797-1.491-.207-3.053 1.193-5.306 1.706-4.113.928-11.029 1.35-15.829 2.122-8.865 1.419-18.528 1.497-28.156.6-1.04-.097-2.487-.263-3.737-.497-3.26-.622-6.947-1.153-8.922-2.541-7.522-.581-11.297-4.672-17.816-6.197-2.359-2.265-4.64-4.612-8.453-5.525-4.725-5.453-8.884-9.362-13.797-14.325-2.49-7.715-7.812-12.784-9.059-21.675-.635-1.1-1.081-2.378-2.15-3.068-.213-1.647 1.131-1.632 1.219-2.963-.579-1.397-1.507-2.462-2.907-3.094 1.413-1.987.8-6.506-.843-8.656.021-.884.681-1.084.443-2.237-.903-1.385-.553-1.841-.64-3.397-.038-.722-.744-1.022-.7-1.525.078-.925 1.19-1.766 1.197-2.213.006-.343-1.082-.922-1.066-1.909.028-1.459.928-2.694-.628-3.772.919-4.041 1.119-6.037.309-9.747.388-.228.413-.85 1.15-.712-1.331-8.916-.34-21.01.935-29.235-.925-8.8 1.018-19.834-4.779-26.418-3.531.759-5.796 2.871-8.406 4.609.516.247.013 1.444.703 1.525-2.822 2.947-4.54 6.331-7.397 8.391.275 1.153-.018 1.909.304 2.259-.747.187-3.3 2.097-2.382 4.053-2.64-.034-3.197 3.556-2.803 5.538-2.037.462-1.065 1.262-3.069 2.156.475 3.815-3.453 5.753-2.178 9.309-1.25-.047-1.04 1.472-1.931 1.813-.022.622-.041 1.25-.062 1.872-2.641 2.353-3.707 6.387-3.744 11.512-1.806.788-1.856 3.45-2.066 5.938-.072.953-.728 1.293-1.184 1.837.047 2.503-.578 4.297-1.678 5.575-.322 3.566-.903 7.366-1.85 10.825-.113.422-.713.975-.797 1.469-.213 1.25.322 2.2.265 3.387-.015.35-.762.941-.787 1.1-.034.291.444.616.341 1.135-.388 2.006-1.379 4.075-1.691 5.95-.266 1.59.972 3.1-.881 4.1-.322 3.728-.707 5.29-2.116 7.434.928 3.191-2.312 5.516-1.037 8.975-1.36.197-.329 2.844-.119 3.744.15.656-.813 2.337.315 1.887-1.275.953-.606 2.422-.871 3.725-.157.772-.66.522-.785 1.1-.156.722.381 1.082.316 1.888-.056.675-.766 1.431-.81 1.847-.078.728.325 1.634.3 2.265-.053 1.422-1.296 4.844-1.725 7.069-.103.538-.978 1.684-1.584 2.578-1.372 2.019-3.856 2.866-5.053 5.469-3.594.559-4.972 3.478-6.575 6.166-2.819.484-4.759 1.906-6.128 3.928.4.597 1.194.822 1.062 1.912-2.187.288-3.54.075-5.622-.178.019-.747-1.006-.512-.7-1.528-7.693-.191-14.7-5.119-12.009-11.638-3.197-9.621 2.003-23.971 2.569-33.309.387-.231.412-.85 1.147-.716-.813-2.684.79-4.612 1.387-8.209.485-2.891-.137-5.875 1.753-7.825.06-3.812.263-5.559 1.072-10.094.31-1.709 1.681-3.509.544-5.234 2.278-3.444.606-6.894 2.197-10.059-.185-.675-.141-1.563-.688-1.897.244-.775.828-1.191 1.185-1.844 1.74-15.663 4.409-27.481 5.562-44.844 1.36-1.281 1.741-4.956.591-6.731 2.2-10.203 4.15-20.638 2.484-30.688-2.603 1.879-5.487 3.45-6.234 7.304-.375-.013-.753-.025-1.125-.035.4 2.885-2.281 2.475-2.044 5.188-1.303-.357-1.016.447-1.922 1.437-.572.631-2.265 1.913-2.719 2.916-.228.5.222 1.406-.059 1.875-1.094 1.787-4.697 4.04-3.169 5.15-2.062 1.384-1.853 4.269-4.312 5.865.359 1.807-1.219 1.544-.86 3.35-2.031.982-2.903 4.225-2.828 6.288-2.881.812-2.39 4.991-4.315 5.866.418.456.381 1.334.306 2.259-5.384 3.178-3.275 9.687-7.581 14.016-.344 1.05.5.987.315 1.884-.887.087-.737 1.278-1.909 1.066-1.163 2.884-1.181 5.821-2.513 8.175-.421.74-1.537 1.015-1.934 1.812-.222.441-.169 1.566-.447 2.238-.262.637-.94 1.209-1.184 1.837-.756 1.938-1.194 4.347-2.091 6.688-.997.228-.847 1.678-1.934 1.812-.775 3.441-1.2 6.872-4.035 8.875.616 1.813-.725 3.872-2.031 4.816 1.288 2.322-1.653 3.718-1.29 5.209-.747 1.406-1.935 2.331-2.747 3.659 1.081 2.622-1.644 5.469-2.875 7.791-.353.669-.182 1.197-.435 1.863-.334.871-.947.79-1.172 1.459-.365 1.094-.115 2.428-.484 3.362-.381.969-1.709 1.2-1.206 2.588-1.585.512-1.772 2.506-3.106 3.278-.344 1.05.496.991.312 1.888-2.712 1.365-4.194 4.056-4.75 7.725-.759.356-.644 1.643-1.922 1.44-.672 5.897-5.803 8.597-7.953 14.003-1.353 1.269-3.269 1.941-3.516 4.391-3.475.562-4.562 3.662-7.29 5.019.19.306.375.622.34 1.137-2.315 1.535-5.581 2.056-6.54 5.041-3.313 1.19-4.731 2.44-9.466 2.697-1.269.072-2.49.734-3.397.643-1.153-.112-2.587-1.215-3.712-1.246-.706-.016-1.16-1.066-1.466-1.169-1.634-.55-3.537-.41-4.847-.906-3.325-1.266-5.478-4.382-8.078-5.516-.931-.819-.965-2.484-2.537-2.703-.878-4.285-3.26-6.175-3.766-11.378-.078-.775-.975-.778-1.462-1.175 1.462-3.947-.891-8.35-1.491-12.05-2.778 1.172-2.206 5.915-4.738 7.353-.306 1.137.341 1.378.304 2.259-1.841-.669-1.235 1.266-2.66 1.041-1.384 3.69-3.084 7.05-5.197 9.965-.15.747.041 1.175.713 1.147-1.3.16-1.556 1.441-2.681 1.788-1.257 6.156-7.463 7.031-9.041 12.844-2.416.24-3.913 1.368-3.856 3.256-4.282.603-5.794 4.159-9.913 4.931-.681.744.253.747-.425 1.488-3.434 1.634-7.137 2.984-10.65 4.534-1.797.116-1.587.122-3.375-.106-1.19-.366-.806.947-1.534 1.078-3.197-.816-5.856.128-8.994-.291-5.209-.694-9.484-5.334-15.622-4.25.553-1.087 2.828-.344 3.422-1.394-1.444-2.3-4.703-1.45-7.1-.975-4.119.819-9.159.825-13.503-.059-1.538-.309-4.272-1.181-6.747-.212-1.25-1.775-3.462-1.372-5.959-1.322-4.56-2.063-7.241-4.641-12.566-6.025-3.966-4.888-10.4-7.457-12.684-13.916-.072-.666-.619-.875-1.475-.8-.9-2.669-1.932-5.212-3.91-6.875-.134-.791.291-.987.425-1.487-.256-.975-.859-1.619-1.815-1.935-.338-6.053-2.657-9.434-3.244-15.862.094-.813-.269-1.2-1.088-1.163.135-1.984.46-4.3.207-6.369-.11-.868-.857-1.687-1.044-2.659-.144-.753.237-1.591.072-2.25-.469-1.872-1.4-2.85-1.353-4.547.043-1.706-.191-3.709-.185-6.006.003-1.656 1.619-4.019-.203-5.263.91-3.134-.137-7.628.344-10.865.234-.825-.697-.56-.713-1.15 1.35-6.731 1.979-15.272 3.838-26.141.134-1.094-.809-1.178-.675-2.272 1.744-3.99.797-8.968 1.894-12.318.256-.782-.147-2.272.109-3.375.025-.122.769-.688.772-.729.069-.659-.4-1.256-.313-1.884.097-.697.682-1.194.807-1.85.243-1.253-.707-2.353-.628-3.772.034-.587.781-1.428.821-2.228.032-.541-.434-.744-.337-1.134.162-.669.747-.619.784-1.1.116-1.569-.622-2.935-.606-4.522.016-1.325.856-3.122.556-5.61-.047-.387-.697-1.165-.7-1.525-.009-.653.775-1.596.819-2.221.078-1.094-.069-2.922-.241-4.138-.159-1.097-1.04-1.987.119-3.747-.262-1.331-1.453-1.787-1.39-3.422-1.347-.143-1.829.635-3.022.657-1.05 1.725-2.935 2.556-4.619 3.603-.347 2.343-1.997 3.293-3.881 4-.238.934-1.828 2.412-1.219 2.962-.297.978-1.781.685-2.297 1.428-1.509 4.591-4.947 7.132-6.019 12.191-.672-.072-.806.431-1.512.325-.069.672.434.806.328 1.509-4.134 1.322-3.028 8.816-6.322 9.932.194.665-.522 2.184.306 2.256-1.472.765-2.397 2.1-2.393 4.428-2.11 2.403-2.975 6.134-3.7 10.012-2.857 1.607-2.754 6.369-4.785 8.854.244 1.612-.106 1.525.281 3.009-2.665 2.244-1.071 5.456-3.615 7.384.315.916.625 1.841 1.037 2.663-3.468 3.381-2.256 9.119-4.928 13.35-.053 1.309.678 2.381.631 3.769-.093 2.581-1.943 5.696-2.153 8.562-.053.738.407 1.084.328 1.513-.287 1.59-1.153 1.765-1.243 3.709-.041.844.372 2.091.278 3.012-.11 1.088-.76 1.829-.835 2.6-.162 1.675.332 3.641-.928 5.6.619 3.197.772 6.572-.678 9.354.119.987.128 2.065.669 2.65-1.225 1.24-.941 1.753-.881 4.1-3.057 1.99-1.016 6.462-3.65 8.512.309.8 1.106 1.141 1.053 2.284-1.741 1.847-.994 4.007-3.169 5.154.622 3.734-2.906 5.45-2.162 8.934a27.328 27.328 0 0 0-4.675 5.478c-3.844.816-5.782 3.656-9.891 4.181-1.925 1.053-2.975 3.032-5.728 3.197-.935-.337-1.994-.553-1.816-1.934-4.022.109-6.228-3.9-8.031-7.013.191-1.912.353-3.193-.603-4.518 2.362-5.041-.013-11.882 3.528-16.397-1.547-2.997 3.306-5.666 1.422-9.335-.225-1.015.797-.7 1.159-1.087.081-4.394 1.394-11.375 3.116-15.281-.094-1.885-.728-2.585.859-3.354.1-2.946 1.088-5.956 1.788-8.946.831-3.547 1.847-7.007 1.847-10.822 1.921-.663 1.05-4.307 2.431-5.55.028-1 .062-2 .094-3 2.043-3.266 1.55-8.85 3.768-12.26-.028-3.543.572-6.893 2.563-9.672 1.003-9.621 4.878-18.518 5.325-25.715 1.628-.072.75-2.819 1.981-3.313-.028-.703-.206-1.262-.703-1.525 2.253-3.018.234-6.934.7-10.109.137-.919 1.116-1.709 1.209-2.588.191-1.775-.106-3.743-.581-5.271-4.65-.225-3.822 4.4-7.278 4.646l-.047 1.5c-2.175.644-3.247 3.544-4.303 5.488-.247.453-.184 1.453-.434 1.862-.275.444-1.607.95-1.21 2.591-2.94 3.05-5.397 7.4-6.369 11.425-1.015-.306-.778.719-1.525.7-.403 3.184-2.321 4.759-2.512 8.172-1.013-.303-.775.725-1.522.703.391 2.869-3.797 6.675-2.55 9.3.038.941-.869.881-1.172 1.463.138.718.775.968.691 1.896-2.21.897-1.513 3.041-2.044 5.188-1.65.834-1.075 2.997-1.653 4.828-.278.881-1.472 1.872-1.597 2.95-.072.625.547.872.328 1.513-.187.546-1.659.903-.447 2.231-1.775.831-1.472 4.578-1.331 6.337-3.087.15-3.484 3.028-2.803 5.538-3.328 3.537-2.194 10.875-5.363 15.212.854 1.816.479 4.188-.918 5.222.972 2.235-1.622 3.378-.557 5.61-1.646.796-2.153 4.106-1.69 5.953-2.166 2.356-1.894 4.731-3.985 7.372 1.347 1.85-.628 4.237-.193 6-2.038.543-1.438 3.896-3.519 4.39-.069.669.434.803.328 1.51-2.297 2.721-4.944 5.068-5.922 9.19-.981.119-1.169 1.085-2.284 1.053.137 2.988-2.753 2.753-3.531 4.763-.875-.031-1.75-.056-2.625-.085-3.604.835-7.46 5.019-11.716 2.629-.669-.072-.803.434-1.509.325-2.088-1.919-3.563-4.416-6.966-5.1-.581-3.332-.894-6.297.3-9.369.294-.756-.222-2.094.131-4.125.144-.825 1.147-2.141 1.247-3.71.044-.715-.394-1.228-.316-1.887.219-1.825.604-4.794.954-6.347.143-.631.721-.844.784-1.103.156-.634-.563-.853-.325-1.509.3-.832 1.309-1.36 1.572-2.2.34-1.094.134-2.207.481-3.363.863-2.875 2.813-5.694 2.15-8.562-2.759 1.837-2.947 6.706-5.197 9.965-.315 1.144 1.006.753.688 1.897-1.625.078-1.378 2.147-3.069 2.156 1.981 2.528-2.488 4.335-1.353 7.082-2.638.934-2.597 4.728-4.7 6.228-.338 4.868-5.247 8.059-6.066 13.69-2.5.047-1.803 3.5-3.881 4.007-.341 1.287.512 1.453.294 2.631-2.347-.172-1.325 3.244-3.847 2.878-.772 5.244-5.678 8.053-7.916 12.878-3.812.588-3.381 5.7-7.687 5.756.953 3.266-4.132 3.366-3.941 5.878-2.975.447-5.194 1.697-6.506 3.919-4.66 2.01-10.316 5.05-16.256 3.981-3.113-.559-4.519-3.212-7.766-3.628-.675-.943-1.106-2.112-1.778-3.053-2.506-.678-4.26-2.069-5.116-4.294-2.572-1.103-2.812-4.39-5.065-5.79-.163-1.781-.844-4.472-1.66-6.81-.447-1.271-1.075-2.534-1.765-3.431.175-3.172-.422-6.2-.822-9.406-.078-.603-.666-1.569-.682-2.272-.043-2.178.332-3.55-.193-5.634-.641-2.541-.294-6.982-.05-10.132.037-.471-.178-1.287.797-1.475-1.766-2.321 1.103-4.328-.544-6.393 1.178-1.803-.638-4.416.928-5.6-.894-1.316-.334-2.728.506-4.113.506-2.481-.272-4.603-.156-6.759.075-1.45.281-2.6.916-5.222.109-.453.781-1.056.784-1.097.15-1.978-.794-3.872-.556-6.025.187-1.678 2.1-3.462.543-5.234.379-1.65 2.025-3.625 1.294-5.213-3.24.553-1.281 4.5-4.669 5.106-.393 1.788-.89 3.354-2.028 4.81-.659.847-2.128 1.384-2.697 2.165-1.396 1.925-1.371 5.119-3.95 6.254-.315 2.115-2.171 2.593-2.406 4.8-1.312.671-1.975 2.028-2.731 3.29-.344.278-.859.378-1.513.325.594 2.397-3.396 3.038-3.203 6.275-2.39.35-3.168 3.591-3.14 4.403-3.95 4.06-6.519 9.585-10.928 13.157l-.047 1.496c-1.36.494-2.053 1.691-3.447 2.141-1.644 5.484-7.463 6.519-9.016 12.091-4.362 1.037-4.99 6.053-9.237 7.212-3.272 4.522-7.653 7.856-13.441 9.697-4.091 4.284-13.147 2.128-19.622 3.5-.819.044-1.181-.344-1.087-1.159-2.916 1.525-7.894-.707-9.663-2.935-5.706-1.675-6.772-7.709-10.906-10.859.237-3.853-1.194-6.15-3.122-7.975.284-.341.7-.547 1.147-.713-1.6-2.062-.963-4.55-1.631-7.559-.457-2.025-.035-5.372.637-8.234.594-2.525-.381-4.7 1.691-5.944-.656-1.516.319-3.153 1.256-4.091-.131-4.218 2.563-8.493 4.531-12.612.185-.897-.656-.835-.315-1.881 1.787-.772 1.528-2.982 2.006-4.066.384-.869 1.172-1.319 1.572-2.2.584-1.284.431-1.603 1.222-2.966.397-.684 1.4-.903 1.934-1.815.203-.347-.169-1.263.059-1.872.232-.625 1.15-.713 1.547-1.45 1.06-1.978 1.022-4.341 3.541-5.141.722-2.719 2.078-4.762 3.225-7.028-1.384-1.116.544-2.566 1.609-3.319.607-5.503 4.522-6.506 4.869-11.478 1.153-.837 2.459-1.512 2.369-3.678 3.028-2.275 2.531-7.391 6.322-9.925.134-1.275 1.006-1.769.859-3.347.306-.19.619-.372 1.134-.34-.359-1.807 1.219-1.544.857-3.35 4.343-2.891 4.515-8.347 8.606-10.982-.228-1.534 1.25-1.25.847-2.972 1.353.41.231-1.818 1.909-1.065-.234-1.156.681-1.081.447-2.235.778.182 1.003-.228 1.513-.328-.238-1.14.334-1.497.821-2.225.572-.859 1.497-2.584 2.369-3.678.138-.172.935.169 1.125.038 1.222-.838 1.413-2.982 1.644-4.45 4.019-1.4 4.966-6.075 8.872-7.594.778-3.434 3.64-4.647 6.2-6.181 1.619-3.444 5.415-4.563 7.375-7.644l1.122.037c3.462-5.093 11.153-5.681 14.243-11.175 1.647-.228 2.335-.618 3.394-.64 1.256-1.247 2.556-2.444 4.594-2.856 2.316-3.088 6.394-4.294 8.862-7.219 5.166-.175 6.41-4.538 11.05-5.272 1.457-2.784 4.466-1.763 6.491-3.547.916.716 3.078.263 2.938 1.972.996-.544 2.815.3 4.146-.619 1.304.594 2.225 1.55 3.304 2.356 3.153-.143 4.284-.062 6.346.954.719-.138.966-.775 1.897-.688a63.265 63.265 0 0 1 1.657-4.825c.093-.816-.269-1.203-1.088-1.162 2.697-1.516 3.444-5.11 7.3-5.391 2.663 1.984 6.688 2.694 8.453 5.522-.847 1.372-.028 1.822.666 2.647-.175 1.984-.206 3.828.981 4.534-1.031 2.053-1.731 5.441-.228 7.119-.053 1.369-1.122 1.65-1.584 2.578-.366 1.772-.013 3.544-.544 5.234-.344 1.107-1.916 2.344-2.366 3.675-.187.547.185 1.36-.059 1.875-.966 2.019-2.628 3.341-3.181 5.528-.188.735.343 1.25.315 1.885-.137 3.065-1.606 5.606-2.9 8.537.353 5.838-5.628 10.094-4.253 15.622-.575.938-1.066 1.966-1.956 2.563-.185.9.656.837.312 1.887-3.172 3.338-3.759 9.428-6.793 12.916.34 4.337-1.16 8.528-2.232 11.184.15.463.453.781 1.1.785-2.206 1.618-.997 5.95-3.262 8.15-.16 1.362-.019 2.443.265 3.384-1.196-.378-.565 1.203-1.171 1.466-.204.684.346 1.275.315 1.881-.034.631-.712.84-.797 1.478-.156 1.144.944 2.675.616 4.147-.028.134-.781 1.044-.784 1.1-.157 1.59.912 3.194-.519 4.487-.128 3.919.069 6.497-.3 9.366-.075.584-.778 1.012-.8 1.478-.028.65.753 1.341.694 1.897-.325 2.944-1.675 4.737-1.766 8.2-.038 1.372-.263 3.353-.144 4.497.072.675.691 1.215.688 1.9-.003 1.725-.335 3.653-.541 5.234-.109.816-1.066 2.178-.881 4.097.047.503.7.606.712 1.147.05 1.947.213 4.856-.206 6.372-.328 1.194-1.05 1.231-1.219 2.962-.425 4.35-.397 9.032 1.069 13.544-1.328 2.338 1.056 3.266-.531 4.856 2.35 4.291 1.203 8.666 4.128 11.769.131.788-.294.981-.425 1.484 1.531 1.475 2.15 3.8 3.191 5.732 1.69.959 3.409 1.893 4.778 3.153 4.293.572 5.787-1.841 8.715-2.725.394-1.46.863-1.363.472-2.985 1.21.26 1.75-.193 2.635-.287.284-2.444 2.496-3.525 2.803-5.544 5.078-3.875 5.978-10.081 10.6-14.665-1.313-2.375 2.39-3.063 1.293-5.207 3.891-1.962 2.638-8.081 6.31-9.556-.372-1.334.506-2.459 1.256-4.091.328-.709.725-2.087.822-2.221.278-.4 1.272-.204 1.522-.704.15-.296-.731-.74-.725-.771.172-.957 1.415-1.238 1.947-2.188 1.015-1.819.678-5.675 3.19-5.903-.437-1.578-.259-1.844-.656-3.022 2.756-1.197 3.069-5 5.103-6.966-.562-2.721 1.856-3.74 2.816-5.912.29-.997-.753-.747-1.088-1.159.647-.735 1.06-1.713 2.31-1.804.09-4.037 3.281-4.775 3.287-8.9 1.872-2.006 2.06-5.809 4.363-7.359-.338-1.537-.053-1.375.847-2.981.737-1.322.65-2.166 1.953-2.563-.535-2.897 1.8-2.734 1.306-5.584 1.969-.616 1.609-3.709 3.516-4.388-.888-4.493 3.559-4.631 2.537-8.928 2.463-1.893 3.969-4.812 4.775-8.475.363-.418 1.509-.856 1.925-1.44.509-.716.2-1.625.444-2.235.278-.697.956-.522 1.162-1.087.194-.541-.19-1.36.06-1.875 1.368-2.853 4.009-5.691 5.534-8.828.631-1.303.788-3.125 1.269-4.463.878-.222 1.044-1.212 1.922-1.437-.478-1.569 1.162-2.863.122-3.747.071-.956 1.278-.703 2.271-.678.929-4.822 4.55-6.775 5.257-11.841 1.781-1.069 2.64-3.128 2.453-6.297 4.656-2.4 4.662-9.753 9.39-12.081 1.269-5.625 6.26-7.278 9.357-10.956 2.787 0 4.034-1.641 5.718-2.819 1.713.819 3.057 1.981 4.785 2.781.431 3.419.431 5.269 1.634 7.556-.544.354-1.422 2.316-.469 2.988-1.946 2.512-1.056 6.291-4.012 8.125.012 5.366-4.9 8.684-4.988 15.222-1.54 1.715-2.084 4.5-2.128 7.812-2.703 2.172-4.018 8.875-4.143 12.247-1.05.703-2.71 2.341-1.635 4.075 2.41-3.375 3.741-7.903 6.722-10.665-.222-1.4.691-1.588.472-2.985 1.828-2.29 4.206-4.703 5.862-7.319.366-.581.113-1.678.447-2.234.597-1 2.007-1.606 2.707-2.541.478-.634.409-1.671.821-2.225.597-.796 1.722-1.056 2.31-1.803.572-.725 1.053-2.115 1.597-2.95.609-.943.997-2.165 1.593-2.95.107-.134 1.563-.534 1.91-1.062.15-.231-.156-.938.034-1.125.628-.625 1.6-.706 2.3-1.428 2.122-2.188 4.7-4.228 7.335-6.519 2.928-2.538 8.518-4.341 14.04-4.803 1.85.809 2.103 3.115 4.388 3.519.703 4.003 3.231 6.865 2.637 11.337 2.472 2.131.175 5.794 1.625 7.934-1.122 7.2-2.047 15.866-2.972 22.416 2.153-1.197 1.922-4.931 4.316-5.866-.459-.946.894-1.79.059-1.875 1.488-1.128 2.338-2.937 2.432-5.55 2.159-1.053 2.262-4.303 4.3-5.49.3-1.144.284-.713.059-1.875 3.994-5.21 7.747-9.344 10.25-15.428 2.194-.891 3.369-2.869 4.291-5.116 3.862-2.6 7.109-5.856 10.056-9.431 5.306-2.344 10.159-7.347 17.762-3.935 1.753 1.991 2.444 4.979 5.057 6.166.19 2.038 1.225 4.031 1.306 6.044.053 1.344 1.3 3.134 1.369 4.172.143 2.272-.51 4.634 1.293 6.418-2.031 1.76 2.453 7.11-.337 10.494 1.765 4.16-1.703 9.072.706 13.156-1.834 4.297-.925 11.447-3.491 15.269-.318 1.147 1.004.756.688 1.9-1.141.072-.578 1.966-1.572 2.2.934 3.869-.969 9.356-1.191 13.844-.059 1.134.772 2.444-.471 2.984.884 4.507-1.554 9.178-.435 13.497-1.262 1.688.166 4.781-.975 7.097-.14 1.341 1.081 1.406 1.038 2.659-1.953 3.682 1.222 5.766-.322 10.122 1.784 2.566.669 7.857 2.287 10.575.116 1.457.366 1.347-.447 2.238.272.837.704 1.522 1.825 1.559-.2 2.95 2.325 5.785 1.2 9.419 1.238 1.022 1.216 3.219 2.879 3.844l-.072 2.247c2.203 3.025 3.531 6.871 6.843 8.85.51 4.737 6.635 4.203 8.382 7.771 3.153-.737 4.259 3.16 8.55 2.525-1.075-4.112-2.066-8.237-1.466-12.803.069-.528.763-.962.797-1.472.053-.753-.694-.859-.713-1.15-.028-.35.704-.812.794-1.475.091-.643-.35-1.6-.312-1.887.35-2.647 1.365-5.384 1.75-7.822.106-.666-.469-.812-.325-1.512 1.137-5.516 4.093-11.904 3.925-17.135 1.39-.972 2.162-2.603 2.043-5.187.982.143.341-1.441 1.535-1.072-1.306-3.11 3.372-6.378 2.209-10.438 1.519.307 2.391-2.078 1.597-2.95.128-.765 1.025-.715 1.531-1.078.032-.872.057-1.747.085-2.622 2.468-2.659 3.565-7.537 5.559-9.578.278-2.29 1.131-3.959 2.419-5.172.181-.9-.66-.837-.316-1.887.897.181.838-.66 1.888-.316-.122-2.722 2.953-4.078 2.078-6.312 1.95-1.666 3.731-3.513 4.34-6.616.929.091 1.175-.55 1.897-.687.213-1.838 1.316-2.732 1.644-4.45 2.247-.704 2.481-3.554 4.641-4.354-.163-2.303 2.365-2.712 1.643-4.45.341-.281.86-.375 1.51-.325.3-3.559 4-3.49 4.353-6.99 2.525-1.444 3.753-4.269 6.187-5.806l.047-1.497c1.738-.344 2.01-2.257 3.835-2.507 2.059-4.778 7.412-6.046 9.356-10.956 2.622-1.078 3.678-3.831 6.162-5.056.019-.622.041-1.247.063-1.872 1.159.075 1.803-.4 2.647-.666 1.722-3.459 6.462-3.703 8.109-7.243 1.066-.028 1.585-.638 2.65-.666 4.85-4.244 11.56-6.841 16.453-9.978.788-.134.982.287 1.485.422 2.084-2.169 6.906-1.422 9.481-3.072 5.912.9 12.887-.081 18.691 2.1 3.478 3.037 7.596 5.478 10.206 9.328-.253 1.213.2 1.753.29 2.638 1.485.29 1.541-.944 3.025-.654-.075 5.263-.25 12.313-.615 19.116.028 1.063-1.153.834-1.185 1.838 1.535 4.506-1.853 10.328-.89 16.103-.078.693-1.275.19-1.522.703-1.347 3.269-.184 6.231-.663 8.981-.3 1.719-1.709 2.606-2.381 4.05-.081.178.578.959.325 1.513-.259.578-1.325.9-1.547 1.453-.29.722-.593 4.315-.556 5.612-1.147 1.488-2.419 2.841-2.425 5.547-.762.353-1.347.894-1.925 1.441.538 5.122-4.128 7.59-3.769 12.259-4.222.409-1.687 8.019-5.897 8.441-.037.884.61 1.125.304 2.262-3.563 1.869-2.707 6.781-4.81 9.6-.065 3.775.131 8.847-1.884 11.947 2.137 1.616 1.047 4.572 1.269 7.166.218 2.55 1.596 5.103.146 7.137 2.369 2.803-.578 8.341 3.45 9.488-.525.778.15 1.115-.446 2.234 4.321 4.134 3.709 10.353 9.3 14.181 4.95-1.953 6.146-7.915 10.465-10.543.285-1.379 1.091-2.197.885-4.094 1.268-.069 1.618-1.122 2.671-1.419.588-1.4-1.006-.756-.687-1.897 3.459-.331.966-4.637 4.653-4.734-1.241-1.56 1.6-1.791.484-3.36.854-.246.863-1.4 1.919-1.437.456-2.616 1.613-4.481 3.191-5.897.594-2.909 1.565-5.562 2.878-7.794.094-.159.997-.143 1.134-.337 1.294-1.819 1.035-4.947 3.203-6.275 1.057-4.947 3.269-8.653 5.644-12.2.05-.531.094-1.06-.34-1.135 1.84-1.271 2.484-3.812 2.84-6.662 1.078-.4 1.191-1.831 2.322-2.175.884-6.294 5.45-8.663 6.113-15.191.562-.178.962-.522 1.525-.7.984-5.025 4.934-6.887 5.278-12.59 2.343-1.119 2.168-4.925 4.331-6.238-.056-1.559.534-1.447.081-2.625 2.947-2.287 3.681-6.925 6.672-9.165.019-.625.038-1.25.059-1.872 2.847-3.069 4.519-7.922 6.782-12.541 1.009-.212 1.459-1.028 2.297-1.428.812-3.466 1.562-4.6 3.953-6.253-.228-1.16-.241-.728.059-1.872 3.338-2.513 4.175-7.694 7.819-9.878.331-2.106 2.325-2.435 2.406-4.803 1.906-.419 2.078-2.691 3.856-3.253.194-2.197 2.488-3.579 3.916-5.129 1.25-1.359 2.028-2.784 3.491-3.637-.335-.709 1.162-1.216.05-1.5.384-.75 1.465-.763 2.65-.669 3.078-4.597 8.068-7.156 12.34-10.481 4.006.384 7.125-1.591 10.131-.05 1.591 2.987 4.513 4.734 4.972 8.787.478.763.819 1.65 1.813 1.935-.678 2.972 2.506 4.844.922 6.406.643-.059.95.672 1.125.038M1140.09 98.282c-3.584-.657 1.6.05 0 0" fill="#fff"/><path d="M1131.1 97.994c-.96 1.3-2.953 1.496-4.569 2.103-.409.206 2.906-1.972 4.569-2.103M1072.1 171.141c1.616-.222-2.915.403 0 0M1260.85 252.223c1.082.244-.593.572-.415 1.113-1.225-.4.447-.728.415-1.113M1257.82 253.255c.187-.816 1.631.762.712 1.15-.537-.103-.093-1.125-.712-1.15M1009.73 279.451c-.694.553-1.191 1.316-2.662 1.041.075-1.91 1.468-.166 2.662-1.041" fill="#fff"/></svg>