<svg viewBox="0 0 384 208" xmlns="http://www.w3.org/2000/svg" fill-rule="evenodd" clip-rule="evenodd" stroke-miterlimit="1.5"><g fill="#fff" fill-rule="nonzero"><path d="M220.22 188.354c-2.661 0-4.886 1.614-4.886 4.057 0 2.421 1.701 3.424 4.559 4.166 2.813.698 3.947 1.527 3.947 3.468 0 1.745-1.592 2.879-3.577 2.879-2.159 0-3.817-1.2-4.187-3.359h-1.44c.327 2.901 2.53 4.449 5.584 4.449 2.879 0 5.06-1.701 5.06-4.187 0-2.487-1.614-3.708-4.842-4.537-2.574-.654-3.643-1.331-3.643-3.163 0-1.788 1.593-2.683 3.316-2.683 1.985 0 3.293 1.2 3.555 3.25h1.418c-.284-2.443-1.854-4.34-4.864-4.34zM239.61 192.171h-1.352v5.736c0 3.621-1.636 5.017-3.555 5.017-1.789 0-2.792-1.069-2.967-2.596a15.816 15.816 0 0 1-.087-1.723v-6.434h-1.352v6.74c0 .937.021 1.352.087 1.941.262 1.832 1.658 3.162 4.013 3.162 1.265 0 2.312-.349 3.228-1.243l.633-1.287v2.225h1.352v-11.538zM250.93 191.865c-1.33 0-2.464.393-3.271 1.178l-.764 1.265v-2.203h-1.352v15.879h1.352v-6.238l.72 1.243c.72.676 1.832 1.025 2.966 1.025 2.923 0 5.497-2.028 5.497-6.216 0-3.424-1.92-5.933-5.148-5.933zm-.349 11.081c-1.701 0-3.686-1.113-3.686-4.406v-.873c0-3.489 1.789-4.711 3.839-4.711 2.53 0 3.861 2.247 3.861 5.017 0 3.119-1.702 4.973-4.014 4.973zM270.342 197.624c0-3.185-1.679-5.759-4.907-5.759-3.032 0-5.344 2.378-5.344 6.086 0 4.057 2.247 6.063 5.126 6.063 2.312 0 4.428-1.265 4.973-3.947h-1.418c-.414 1.897-1.854 2.879-3.468 2.879-1.876 0-3.599-1.2-3.752-4.602h8.747c.043-.349.043-.568.043-.72zm-4.951-4.668c1.941 0 3.425 1.352 3.577 4.319h-7.416c.197-2.879 1.942-4.319 3.839-4.319zM279.656 191.909c-.742 0-1.461.327-1.985.873l-.829 1.483v-2.094h-1.352v11.538h1.352v-6.478c0-3.075 1.483-4.319 3.49-4.166v-1.069a2.22 2.22 0 0 0-.676-.087zM285.48 188.768a.908.908 0 0 0-.916.916c0 .502.414.916.916.916a.908.908 0 0 0 .916-.916.895.895 0 0 0-.916-.916zm.676 14.941v-11.538h-1.353v11.538h1.353zM296.756 191.865c-3.664 0-5.605 2.683-5.605 6.086 0 3.381 1.941 6.063 5.605 6.063 3.664 0 5.606-2.682 5.606-6.063 0-3.403-1.942-6.086-5.606-6.086zm0 11.081c-2.399 0-4.122-1.854-4.122-4.995s1.723-4.995 4.122-4.995 4.123 1.854 4.123 4.995-1.724 4.995-4.123 4.995zM311.479 191.909c-.742 0-1.461.327-1.985.873l-.829 1.483v-2.094h-1.352v11.538h1.352v-6.478c0-3.075 1.483-4.319 3.49-4.166v-1.069a2.22 2.22 0 0 0-.676-.087zM328.797 188.354c-2.661 0-4.886 1.614-4.886 4.057 0 2.421 1.702 3.424 4.559 4.166 2.814.698 3.948 1.527 3.948 3.468 0 1.745-1.592 2.879-3.577 2.879-2.16 0-3.817-1.2-4.188-3.359h-1.44c.328 2.901 2.531 4.449 5.584 4.449 2.879 0 5.06-1.701 5.06-4.187 0-2.487-1.614-3.708-4.842-4.537-2.573-.654-3.642-1.331-3.642-3.163 0-1.788 1.592-2.683 3.315-2.683 1.985 0 3.294 1.2 3.555 3.25h1.418c-.283-2.443-1.854-4.34-4.864-4.34zM345.963 203.709h1.352c-.153-1.374-.218-2.203-.218-3.228v-4.035c0-.545 0-1.025-.044-1.527-.174-1.897-1.374-3.054-3.926-3.054-2.443 0-4.166 1.462-4.318 3.73h1.417c.175-1.788 1.309-2.639 2.901-2.639 1.658 0 2.465.763 2.574 2.094.044.458.044.894.044 1.418v.414h-.742c-4.166 0-6.674 1.287-6.674 3.926 0 2.094 1.527 3.206 3.664 3.206 1.265 0 2.399-.37 3.206-1.177l.568-1.222.196 2.094zm-3.555-.763c-1.68 0-2.596-.785-2.596-2.247 0-2.225 2.683-2.988 5.933-2.77v1.331c0 2.159-1.331 3.686-3.337 3.686zM354.295 187.678h-1.353v13.021c0 .698 0 1.156.022 1.549.066 1.243.742 1.548 1.636 1.548.349 0 .72 0 1.069-.065v-1.003c-.982.109-1.309-.088-1.352-.829-.022-.349-.022-.742-.022-1.243v-12.978zM369.825 197.624c0-3.185-1.68-5.759-4.908-5.759-3.032 0-5.344 2.378-5.344 6.086 0 4.057 2.247 6.063 5.126 6.063 2.312 0 4.428-1.265 4.973-3.947h-1.418c-.414 1.897-1.854 2.879-3.468 2.879-1.876 0-3.599-1.2-3.751-4.602h8.746c.044-.349.044-.568.044-.72zm-4.952-4.668c1.942 0 3.425 1.352 3.577 4.319h-7.415c.196-2.879 1.941-4.319 3.838-4.319zM378.244 191.865c-2.269 0-3.839 1.309-3.839 3.294s1.636 2.792 3.621 3.315c2.246.546 3.075 1.178 3.075 2.465 0 1.331-1.2 2.007-2.661 2.007-1.549 0-2.792-.676-3.119-2.639h-1.396c.327 2.617 2.138 3.707 4.428 3.707 2.377 0 4.122-1.134 4.122-3.184 0-1.941-1.265-2.901-3.926-3.555-1.658-.415-2.748-.938-2.748-2.269 0-1.265.938-2.05 2.334-2.05 1.548 0 2.486.851 2.813 2.443h1.418c-.262-2.029-1.614-3.534-4.122-3.534z"/></g><g fill="#fff" fill-rule="nonzero"><path d="M244.309 71.991h-11.758v31.452c0 1.873 0 3.52-.149 5.242-.375 4.569-2.547 7.339-6.89 7.339-4.418 0-7.264-2.321-7.713-9.136l-.15-2.471h-11.683l.075 2.471c.3 10.859 6.066 17.823 18.947 17.823 12.805 0 18.572-6.365 19.096-15.352.225-3.519.225-5.167.225-7.413V71.991zM270.519 82.7c-13.255 0-21.043 8.537-21.043 20.968s7.788 21.043 21.043 21.043c13.18 0 21.043-8.612 21.043-21.043S283.699 82.7 270.519 82.7zm0 33.924c-5.616 0-8.986-4.643-8.986-12.956 0-8.312 3.37-12.881 8.986-12.881 5.542 0 8.912 4.569 8.912 12.881 0 8.313-3.37 12.956-8.912 12.956zM335.596 93.708c-.899-6.964-5.766-11.008-14.154-11.008-3.744 0-6.59.749-9.286 2.546l-3.295 4.793V68.246h-11.757v55.417h11.757v-18.497c0-10.185 3.445-14.304 8.088-14.379 4.568 0 6.815 2.547 7.114 6.591.15 2.022.15 4.043.15 5.541v20.744h11.757v-22.541c0-3.22-.075-5.392-.374-7.414zM382.101 93.708c-.899-6.964-5.767-11.008-14.154-11.008-3.744 0-6.59.749-9.286 2.546l-3.295 4.793v-6.291h-11.757v39.915h11.757v-18.497c0-10.185 3.445-14.379 8.088-14.379 4.568 0 6.815 2.547 7.114 6.591.15 2.022.15 4.043.15 5.541v20.744h11.757v-22.541c0-3.22-.075-5.392-.374-7.414z"/></g><path d="M7.007 178.608V60.765" fill="none" stroke="#d9d9d9" stroke-width="3.19"/><path d="M109.062 3.688L0 66.654v-3.687L109.062 0M109.062 3.688l109.061 62.966v-3.687L109.062 0" fill="#d9d9d9" fill-rule="nonzero"/><g fill-rule="nonzero" stroke="#fff" stroke-width=".94" stroke-miterlimit="1.414"><path d="M105.618 133.922c-.45.45-.949 1.124-1.498 2.022-.549.899-.824 2.047-.824 3.445 0 1.847.574 3.345 1.723 4.493 1.148 1.149 2.571 1.723 4.268 1.723a7.961 7.961 0 0 0 4.419-1.311 12.978 12.978 0 0 0 3.482-3.332 16.046 16.046 0 0 0 2.246-4.419c.525-1.597.787-3.095.787-4.493 0-1.847-.512-3.157-1.535-3.931-1.024-.774-2.409-1.161-4.157-1.161-2.646 0-5.354.562-8.125 1.685s-5.442 2.658-8.013 4.605c-2.571 1.948-4.992 4.232-7.264 6.853a48.9 48.9 0 0 0-5.916 8.499 48.266 48.266 0 0 0-3.969 9.474c-.974 3.27-1.46 6.527-1.46 9.772 0 1.598.212 3.121.636 4.568.425 1.448 1.036 2.721 1.835 3.82.799 1.098 1.735 1.972 2.808 2.621 1.074.649 2.259.973 3.557.973 1.947 0 3.832-.462 5.654-1.385a18.253 18.253 0 0 0 4.905-3.632 17.94 17.94 0 0 0 3.483-5.167 14.675 14.675 0 0 0 1.31-6.066c0-1.099-.112-2.16-.337-3.183-.224-1.023-.574-1.922-1.048-2.696a5.866 5.866 0 0 0-1.797-1.872c-.724-.474-1.611-.712-2.659-.712-1.997 0-3.619.662-4.868 1.985a13.955 13.955 0 0 0-2.883 4.606c-.674 1.747-1.136 3.444-1.385 5.092-.25 1.647-.375 2.821-.375 3.52h-.898c0-1.948.262-3.969.786-6.066a19.677 19.677 0 0 1 2.471-5.804 13.89 13.89 0 0 1 4.344-4.344c1.772-1.123 3.881-1.684 6.328-1.684 1.348 0 2.596.224 3.744.674a8.909 8.909 0 0 1 2.996 1.909 9.293 9.293 0 0 1 2.022 2.921c.499 1.123.748 2.359.748 3.707 0 2.396-.686 4.78-2.059 7.151-1.373 2.372-3.195 4.481-5.467 6.328-2.271 1.848-4.88 3.345-7.825 4.494a24.95 24.95 0 0 1-9.137 1.722c-5.991 0-10.384-1.46-13.18-4.381-2.796-2.921-4.193-7.052-4.193-12.394 0-3.095.698-6.203 2.096-9.323 1.398-3.12 3.258-6.103 5.579-8.949 2.322-2.846 4.993-5.504 8.013-7.976a63.45 63.45 0 0 1 9.474-6.44c3.295-1.822 6.59-3.245 9.885-4.269 3.295-1.023 6.365-1.535 9.211-1.535 1.498 0 2.995.113 4.493.337 1.498.225 2.821.649 3.969 1.273a7.641 7.641 0 0 1 2.808 2.621c.724 1.124 1.086 2.584 1.086 4.381 0 1.548-.387 3.058-1.161 4.531-.773 1.473-1.834 2.771-3.182 3.894-1.348 1.123-2.908 2.022-4.681 2.696-1.772.674-3.657 1.011-5.654 1.011a13.37 13.37 0 0 1-3.332-.412c-1.074-.274-2.022-.711-2.846-1.31a6.39 6.39 0 0 1-1.947-2.284c-.474-.924-.711-2.035-.711-3.333 0-.998.212-2.022.636-3.07.425-1.049 1.086-2.022 1.985-2.921l.599.449z" fill="url(#_Linear1)"/><path d="M108.014 180.128a2589.875 2589.875 0 0 0 15.202-26.024 3359.974 3359.974 0 0 1 15.202-26.098l10.709-.749a16349.8 16349.8 0 0 1-12.543 20.969 514.616 514.616 0 0 1-12.694 20.144l.15.15a149.571 149.571 0 0 1 4.006-5.13 49.7 49.7 0 0 1 4.98-5.279c1.798-1.648 3.695-3.033 5.692-4.156 1.997-1.124 3.994-1.685 5.991-1.685 1.647 0 3.083.437 4.306 1.31 1.223.874 1.835 2.334 1.835 4.381 0 1.797-.512 3.607-1.536 5.429a48.247 48.247 0 0 1-3.407 5.243 139.702 139.702 0 0 0-3.407 4.755c-1.024 1.498-1.536 2.796-1.536 3.894 0 .549.138.986.412 1.311.275.324.687.486 1.236.486.998 0 2.134-.412 3.407-1.235 1.273-.824 2.571-1.86 3.894-3.108a52.854 52.854 0 0 0 3.932-4.156 183.577 183.577 0 0 0 3.595-4.344 134.335 134.335 0 0 0 2.845-3.669c.799-1.074 1.373-1.81 1.723-2.209l.449.374a95.885 95.885 0 0 0-2.808 3.669 123.899 123.899 0 0 1-3.37 4.381 80.651 80.651 0 0 1-3.857 4.456 43.576 43.576 0 0 1-4.156 3.932c-1.423 1.173-2.896 2.109-4.418 2.808-1.523.699-3.058 1.048-4.606 1.048-.949 0-1.797-.187-2.546-.561a5.53 5.53 0 0 1-1.872-1.498 6.407 6.407 0 0 1-1.124-2.172 8.621 8.621 0 0 1-.374-2.508c0-1.898.474-3.67 1.423-5.317a43.276 43.276 0 0 1 3.108-4.681 219.362 219.362 0 0 0 3.07-4.119c.924-1.273 1.385-2.433 1.385-3.482 0-1.248-.574-1.872-1.722-1.872-.899 0-1.985.412-3.258 1.236-1.273.823-2.621 1.922-4.043 3.295a62.363 62.363 0 0 0-4.344 4.68 97.851 97.851 0 0 0-4.231 5.392 100.35 100.35 0 0 0-3.707 5.429c-1.123 1.773-2.034 3.383-2.733 4.83l-10.26.45z" fill="url(#_Linear2)"/><path d="M195.332 153.168c-.549.799-1.26 1.823-2.134 3.071a660.538 660.538 0 0 0-2.808 4.044 142.574 142.574 0 0 0-2.996 4.53 85.836 85.836 0 0 0-2.733 4.606c-.824 1.498-1.498 2.896-2.022 4.194-.524 1.298-.786 2.396-.786 3.295 0 1.447.574 2.171 1.722 2.171 1.049 0 2.284-.499 3.707-1.497 1.423-.999 2.983-2.334 4.681-4.007 1.697-1.672 3.469-3.632 5.317-5.879a236.69 236.69 0 0 0 5.616-7.114l.449.3-5.841 7.451c-1.897 2.421-3.782 4.568-5.654 6.44-1.872 1.873-3.744 3.383-5.616 4.531-1.873 1.148-3.782 1.722-5.729 1.722-1.698 0-2.996-.274-3.894-.823-.899-.55-1.56-1.236-1.985-2.06a6.843 6.843 0 0 1-.749-2.583 29.16 29.16 0 0 1-.112-2.397l-.225-.15a52.816 52.816 0 0 1-2.583 2.846 21.554 21.554 0 0 1-3.033 2.584 16.54 16.54 0 0 1-3.445 1.872 10.285 10.285 0 0 1-3.819.711c-2.397 0-4.206-.711-5.43-2.134-1.223-1.423-1.834-3.707-1.834-6.852 0-2.197.549-4.456 1.647-6.777 1.099-2.322 2.659-4.444 4.681-6.366 2.022-1.922 4.43-3.507 7.226-4.755 2.796-1.248 5.866-1.872 9.211-1.872 1.947 0 3.433.487 4.456 1.46 1.024.974 1.685 2.184 1.985 3.632h.149l1.947-3.894 10.634-.3zm-29.73 24.563c1.049 0 2.397-.674 4.044-2.022 1.648-1.348 3.27-3.07 4.868-5.167a37.052 37.052 0 0 0 4.119-6.852c1.148-2.471 1.722-4.83 1.722-7.077 0-1.148-.337-2.009-1.011-2.583-.674-.575-1.435-.862-2.284-.862-1.048 0-2.109.35-3.183 1.049-1.073.699-2.122 1.635-3.145 2.808a31.454 31.454 0 0 0-2.921 3.969 39.538 39.538 0 0 0-2.433 4.493 28.384 28.384 0 0 0-1.648 4.531c-.399 1.498-.599 2.821-.599 3.969 0 .849.162 1.685.487 2.509.324.823.986 1.235 1.984 1.235z" fill="url(#_Linear3)"/><path d="M223.79 138.041l-18.722 27.933.15.15c1.048-1.348 2.196-2.821 3.444-4.418a38.839 38.839 0 0 1 4.119-4.494 24.583 24.583 0 0 1 4.793-3.519c1.697-.949 3.495-1.423 5.392-1.423 1.098 0 2.097.224 2.995.674a7.436 7.436 0 0 1 2.322 1.797 8.655 8.655 0 0 1 1.535 2.584c.374.973.562 1.984.562 3.033 0 2.546-.537 4.805-1.61 6.777-1.074 1.972-2.285 3.657-3.633 5.055v.149c3.545-.998 6.728-2.533 9.549-4.605 2.82-2.072 5.379-4.581 7.676-7.526l.599.374c-2.347 3.295-5.143 6.054-8.388 8.275-3.245 2.222-6.715 3.757-10.409 4.606a28.977 28.977 0 0 1-4.007 2.92 45.414 45.414 0 0 1-4.455 2.397 28.725 28.725 0 0 1-4.381 1.647c-1.423.4-2.709.599-3.857.599-.499 0-1.011-.025-1.535-.074a4.65 4.65 0 0 1-1.46-.375c-.45-.2-.812-.487-1.086-.861-.275-.375-.412-.861-.412-1.46 0-.999.462-1.81 1.385-2.434.924-.624 2.047-1.124 3.37-1.498a27.426 27.426 0 0 1 4.119-.824 52.265 52.265 0 0 1 3.632-.337c.449-.699.961-1.522 1.535-2.471a39.698 39.698 0 0 0 1.685-3.108 21.995 21.995 0 0 0 1.386-3.669c.374-1.323.561-2.684.561-4.082 0-.349-.025-.749-.075-1.198a4.122 4.122 0 0 0-.374-1.31 2.597 2.597 0 0 0-.899-1.049c-.399-.274-.923-.412-1.572-.412-1.199 0-2.559.724-4.082 2.172-1.522 1.448-3.07 3.208-4.643 5.28a102.751 102.751 0 0 0-4.53 6.477 197.937 197.937 0 0 1-3.894 5.842 188.214 188.214 0 0 0-8.762 14.078 1806.94 1806.94 0 0 1-8.088 14.229l-10.709.449a1876.889 1876.889 0 0 0 20.107-32.576 24245.727 24245.727 0 0 1 19.958-33.025l10.709-.749zm-17.225 40.514c0 .4.088.761.263 1.086.174.324.536.487 1.085.487.649 0 1.286-.212 1.91-.637a10.383 10.383 0 0 0 1.797-1.572 33.067 33.067 0 0 0 1.685-1.985 34.628 34.628 0 0 1 1.573-1.872c-1.098.05-2.147.2-3.145.449-.999.25-1.885.562-2.659.936-.774.375-1.385.824-1.835 1.348-.449.524-.674 1.111-.674 1.76z" fill="url(#_Linear4)"/><path d="M248.053 180.128c.299-.499.836-1.361 1.61-2.584a485.502 485.502 0 0 0 2.621-4.194c.974-1.572 1.997-3.232 3.07-4.98a131.395 131.395 0 0 0 2.921-4.98 78.684 78.684 0 0 0 2.172-4.156c.574-1.198.861-2.047.861-2.546 0-1.248-.649-1.872-1.947-1.872-.799 0-1.81.449-3.033 1.348-1.223.899-2.559 2.084-4.007 3.557a92.472 92.472 0 0 0-4.493 4.943 112.041 112.041 0 0 0-8.088 10.783c-1.098 1.673-1.947 3.083-2.546 4.231l-10.109.45a230.288 230.288 0 0 1 7.863-13.442 216.645 216.645 0 0 0 7.713-13.218l10.784-.3-9.96 14.603.15.15a333.693 333.693 0 0 0 3.669-4.643 45.132 45.132 0 0 1 4.68-5.13 29.224 29.224 0 0 1 5.617-4.156c2.022-1.148 4.131-1.722 6.328-1.722 1.747 0 3.17.462 4.269 1.385 1.098.924 1.647 2.284 1.647 4.082 0 1.098-.125 2.034-.374 2.808-.25.774-.599 1.585-1.049 2.434l.15.149 3.033-3.37a40.858 40.858 0 0 1 3.632-3.557 21.12 21.12 0 0 1 4.119-2.808c1.448-.749 2.945-1.123 4.493-1.123 1.747 0 3.22.487 4.418 1.46 1.198.974 1.798 2.384 1.798 4.231 0 1.748-.525 3.532-1.573 5.355a56.215 56.215 0 0 1-3.445 5.279 401.877 401.877 0 0 0-3.445 4.755c-1.048 1.473-1.572 2.734-1.572 3.782 0 .549.162 1.011.486 1.386.325.374.812.561 1.461.561.998 0 2.084-.362 3.257-1.086 1.174-.723 2.372-1.647 3.595-2.77a45.146 45.146 0 0 0 3.669-3.82 152.711 152.711 0 0 0 3.483-4.193 231.795 231.795 0 0 0 2.995-3.82 314.202 314.202 0 0 1 2.172-2.808l.524.45a831.444 831.444 0 0 0-4.643 6.14 75.46 75.46 0 0 1-5.766 6.815c-1.897 2.047-3.869 3.732-5.916 5.055-2.047 1.323-4.244 1.984-6.59 1.984-1.099 0-2.06-.187-2.884-.561-.823-.375-1.485-.874-1.984-1.498a6.628 6.628 0 0 1-1.123-2.059 7.06 7.06 0 0 1-.375-2.247c0-1.797.499-3.582 1.498-5.354a43.423 43.423 0 0 1 3.295-5.018c1.198-1.572 2.297-3.008 3.295-4.306.999-1.298 1.498-2.371 1.498-3.22 0-.649-.187-1.136-.562-1.46a1.935 1.935 0 0 0-1.31-.487c-.799 0-1.798.462-2.996 1.385-1.198.924-2.509 2.11-3.931 3.557a69.42 69.42 0 0 0-4.381 4.943 116.007 116.007 0 0 0-4.231 5.542 143.68 143.68 0 0 0-3.595 5.242c-1.073 1.647-1.91 3.045-2.509 4.193l-10.409.45z" fill="url(#_Linear5)"/><path d="M334.547 153.168c-.549.799-1.26 1.823-2.134 3.071a708.148 708.148 0 0 0-2.808 4.044 142.574 142.574 0 0 0-2.996 4.53 85.836 85.836 0 0 0-2.733 4.606c-.824 1.498-1.498 2.896-2.022 4.194-.524 1.298-.786 2.396-.786 3.295 0 1.447.574 2.171 1.722 2.171 1.049 0 2.284-.499 3.707-1.497 1.423-.999 2.983-2.334 4.681-4.007 1.697-1.672 3.469-3.632 5.317-5.879a236.69 236.69 0 0 0 5.616-7.114l.449.3-5.841 7.451c-1.897 2.421-3.782 4.568-5.654 6.44-1.872 1.873-3.744 3.383-5.616 4.531-1.872 1.148-3.782 1.722-5.729 1.722-1.698 0-2.996-.274-3.894-.823-.899-.55-1.56-1.236-1.985-2.06a6.843 6.843 0 0 1-.749-2.583 29.16 29.16 0 0 1-.112-2.397l-.225-.15a52.816 52.816 0 0 1-2.583 2.846 21.554 21.554 0 0 1-3.033 2.584 16.54 16.54 0 0 1-3.445 1.872 10.285 10.285 0 0 1-3.819.711c-2.397 0-4.206-.711-5.43-2.134-1.223-1.423-1.834-3.707-1.834-6.852 0-2.197.549-4.456 1.647-6.777 1.099-2.322 2.659-4.444 4.681-6.366 2.022-1.922 4.43-3.507 7.226-4.755 2.796-1.248 5.866-1.872 9.211-1.872 1.947 0 3.433.487 4.456 1.46 1.024.974 1.685 2.184 1.985 3.632h.149l1.948-3.894 10.633-.3zm-29.73 24.563c1.049 0 2.397-.674 4.044-2.022 1.648-1.348 3.27-3.07 4.868-5.167a37.052 37.052 0 0 0 4.119-6.852c1.148-2.471 1.722-4.83 1.722-7.077 0-1.148-.337-2.009-1.011-2.583-.674-.575-1.435-.862-2.284-.862-1.048 0-2.109.35-3.183 1.049-1.073.699-2.121 1.635-3.145 2.808a31.454 31.454 0 0 0-2.921 3.969 39.538 39.538 0 0 0-2.433 4.493 28.481 28.481 0 0 0-1.648 4.531c-.399 1.498-.599 2.821-.599 3.969 0 .849.162 1.685.487 2.509.324.823.986 1.235 1.984 1.235z" fill="url(#_Linear6)"/><path d="M327.583 180.128l15.502-26.51 10.634-.45a315.078 315.078 0 0 0-10.335 15.277l.15.15a213.63 213.63 0 0 1 4.343-5.317 56.43 56.43 0 0 1 5.055-5.279c1.773-1.623 3.595-2.983 5.467-4.082 1.872-1.098 3.732-1.647 5.579-1.647 1.897 0 3.482.487 4.755 1.46 1.273.974 1.91 2.459 1.91 4.456 0 1.647-.512 3.345-1.535 5.092a55.273 55.273 0 0 1-3.408 5.13 119.657 119.657 0 0 0-3.407 4.793c-1.023 1.522-1.535 2.858-1.535 4.006 0 .499.137.936.412 1.311.274.374.711.561 1.31.561 1.099 0 2.347-.511 3.745-1.535 1.398-1.023 2.845-2.284 4.343-3.782a71.654 71.654 0 0 0 3.445-3.707 165.533 165.533 0 0 0 3.22-3.819 194.413 194.413 0 0 0 4.568-5.804l.674.375a302.65 302.65 0 0 1-5.429 6.964 90.786 90.786 0 0 1-5.804 6.59c-2.047 2.097-4.031 3.732-5.953 4.906-1.922 1.173-3.882 1.759-5.879 1.759-2.247 0-3.932-.661-5.055-1.984-1.123-1.323-1.685-3.033-1.685-5.13 0-1.797.487-3.507 1.46-5.13a35.279 35.279 0 0 1 3.258-4.568 300.137 300.137 0 0 0 3.258-3.931c.973-1.199 1.46-2.322 1.46-3.37 0-1.398-.674-2.097-2.022-2.097-.899 0-1.997.462-3.295 1.385-1.298.924-2.696 2.135-4.194 3.632a77.781 77.781 0 0 0-4.568 5.018 121.167 121.167 0 0 0-4.381 5.541 76.59 76.59 0 0 0-3.594 5.243c-1.024 1.647-1.785 2.995-2.284 4.043l-10.185.45z" fill="url(#_Linear7)"/></g><defs><linearGradient id="_Linear1" x1="0" y1="0" x2="1" y2="0" gradientUnits="userSpaceOnUse" gradientTransform="matrix(56.6146 0 0 55.2666 69.297 153.693)"><stop offset="0" stop-color="#fdc212"/><stop offset=".56" stop-color="#f9a91a"/><stop offset="1" stop-color="#e9483a"/></linearGradient><linearGradient id="_Linear2" x1="0" y1="0" x2="1" y2="0" gradientUnits="userSpaceOnUse" gradientTransform="matrix(54.4429 0 0 53.7689 108.014 154.142)"><stop offset="0" stop-color="#fdc212"/><stop offset=".56" stop-color="#f9a91a"/><stop offset="1" stop-color="#e9483a"/></linearGradient><linearGradient id="_Linear3" x1="0" y1="0" x2="1" y2="0" gradientUnits="userSpaceOnUse" gradientTransform="matrix(49.9497 0 0 28.7566 153.396 166.648)"><stop offset="0" stop-color="#fdc212"/><stop offset=".56" stop-color="#f9a91a"/><stop offset="1" stop-color="#e9483a"/></linearGradient><linearGradient id="_Linear4" x1="0" y1="0" x2="1" y2="0" gradientUnits="userSpaceOnUse" gradientTransform="matrix(69.9445 0 0 66.3499 173.016 171.216)"><stop offset="0" stop-color="#fdc212"/><stop offset=".56" stop-color="#f9a91a"/><stop offset="1" stop-color="#e9483a"/></linearGradient><linearGradient id="_Linear5" x1="0" y1="0" x2="1" y2="0" gradientUnits="userSpaceOnUse" gradientTransform="matrix(74.5875 0 0 28.7566 227.085 166.648)"><stop offset="0" stop-color="#fdc212"/><stop offset=".56" stop-color="#f9a91a"/><stop offset="1" stop-color="#e9483a"/></linearGradient><linearGradient id="_Linear6" x1="0" y1="0" x2="1" y2="0" gradientUnits="userSpaceOnUse" gradientTransform="matrix(49.9497 0 0 28.7566 292.611 166.648)"><stop offset="0" stop-color="#fdc212"/><stop offset=".56" stop-color="#f9a91a"/><stop offset="1" stop-color="#e9483a"/></linearGradient><linearGradient id="_Linear7" x1="0" y1="0" x2="1" y2="0" gradientUnits="userSpaceOnUse" gradientTransform="matrix(54.8922 0 0 28.7566 327.583 166.648)"><stop offset="0" stop-color="#fdc212"/><stop offset=".56" stop-color="#f9a91a"/><stop offset="1" stop-color="#e9483a"/></linearGradient></defs></svg>