<svg viewBox="0 0 339 42" xmlns="http://www.w3.org/2000/svg" fill-rule="evenodd" clip-rule="evenodd" stroke-linejoin="round" stroke-miterlimit="1.414"><path d="M0 1.014h3.712v36.45h18.563v3.375H0V1.013zM32.188 1.014h24.356v3.375H35.9v14.175h19.35v3.375H35.9v15.525h21.544v3.375H32.188V1.014zM62.956 20.926c0-3.037.507-5.831 1.519-8.381 1.013-2.55 2.419-4.753 4.219-6.61 1.8-1.856 3.965-3.309 6.497-4.359C77.722.526 80.506.001 83.544.001c3.037 0 5.822.525 8.353 1.575 2.531 1.05 4.697 2.503 6.497 4.359 1.8 1.857 3.206 4.06 4.219 6.61 1.012 2.55 1.518 5.344 1.518 8.381 0 3.038-.506 5.841-1.518 8.409-1.013 2.569-2.419 4.782-4.219 6.638-1.8 1.856-3.966 3.3-6.497 4.331-2.531 1.031-5.316 1.547-8.353 1.547-3.038 0-5.822-.516-8.353-1.547-2.532-1.031-4.697-2.475-6.497-4.331-1.8-1.856-3.206-4.069-4.219-6.638-1.012-2.568-1.519-5.371-1.519-8.409zm3.713 0c0 2.475.394 4.781 1.181 6.919.788 2.137 1.913 3.994 3.375 5.569 1.463 1.575 3.234 2.812 5.316 3.712 2.081.9 4.415 1.35 7.003 1.35 2.587 0 4.922-.45 7.003-1.35 2.081-.9 3.853-2.137 5.316-3.712 1.462-1.575 2.587-3.432 3.375-5.569.787-2.138 1.181-4.444 1.181-6.919 0-2.475-.394-4.781-1.181-6.919-.788-2.137-1.913-3.993-3.375-5.568-1.463-1.575-3.235-2.813-5.316-3.713-2.081-.9-4.416-1.35-7.003-1.35-2.588 0-4.922.45-7.003 1.35-2.082.9-3.853 2.138-5.316 3.713-1.462 1.575-2.587 3.431-3.375 5.568-.787 2.138-1.181 4.444-1.181 6.919zM142.472 18.564h7.875c1.95 0 3.534-.244 4.753-.732 1.219-.487 2.166-1.087 2.841-1.8.675-.712 1.134-1.481 1.378-2.306s.365-1.575.365-2.25-.121-1.425-.365-2.25-.703-1.594-1.378-2.306c-.675-.713-1.622-1.313-2.841-1.8-1.219-.488-2.803-.731-4.753-.731h-7.875v14.175zm-3.713-17.55h10.463c.525 0 1.237.018 2.137.056.9.037 1.875.15 2.925.337 1.05.188 2.119.488 3.207.9a9.101 9.101 0 0 1 2.925 1.8c.862.788 1.575 1.782 2.137 2.982.563 1.2.844 2.662.844 4.387 0 1.913-.328 3.488-.985 4.725-.656 1.238-1.481 2.241-2.475 3.009a10.396 10.396 0 0 1-3.29 1.716c-1.2.375-2.344.638-3.431.788l11.587 19.125h-4.219l-11.193-18.9h-6.919v18.9h-3.713V1.014zM173.591 20.926c0-3.037.506-5.831 1.518-8.381 1.013-2.55 2.419-4.753 4.219-6.61 1.8-1.856 3.966-3.309 6.497-4.359 2.531-1.05 5.316-1.575 8.353-1.575 3.038 0 5.822.525 8.353 1.575 2.531 1.05 4.697 2.503 6.497 4.359 1.8 1.857 3.206 4.06 4.219 6.61 1.012 2.55 1.519 5.344 1.519 8.381 0 3.038-.507 5.841-1.519 8.409-1.013 2.569-2.419 4.782-4.219 6.638-1.8 1.856-3.966 3.3-6.497 4.331-2.531 1.031-5.315 1.547-8.353 1.547-3.037 0-5.822-.516-8.353-1.547-2.531-1.031-4.697-2.475-6.497-4.331-1.8-1.856-3.206-4.069-4.219-6.638-1.012-2.568-1.518-5.371-1.518-8.409zm3.712 0c0 2.475.394 4.781 1.181 6.919.788 2.137 1.913 3.994 3.375 5.569 1.463 1.575 3.235 2.812 5.316 3.712 2.081.9 4.416 1.35 7.003 1.35 2.588 0 4.922-.45 7.003-1.35 2.082-.9 3.853-2.137 5.316-3.712 1.462-1.575 2.587-3.432 3.375-5.569.787-2.138 1.181-4.444 1.181-6.919 0-2.475-.394-4.781-1.181-6.919-.788-2.137-1.913-3.993-3.375-5.568-1.463-1.575-3.234-2.813-5.316-3.713-2.081-.9-4.415-1.35-7.003-1.35-2.587 0-4.922.45-7.003 1.35-2.081.9-3.853 2.138-5.316 3.713-1.462 1.575-2.587 3.431-3.375 5.568-.787 2.138-1.181 4.444-1.181 6.919zM227.153 1.014h11.475c1.5 0 3.019.121 4.556.365 1.538.244 2.916.75 4.135 1.519 1.218.769 2.212 1.837 2.981 3.206.769 1.369 1.153 3.178 1.153 5.428 0 2.025-.6 3.788-1.8 5.288-1.2 1.5-2.981 2.494-5.344 2.981v.113c1.313.112 2.513.421 3.6.928a8.99 8.99 0 0 1 2.813 2.025c.787.843 1.397 1.847 1.828 3.009.431 1.163.647 2.438.647 3.825 0 2.288-.441 4.153-1.322 5.597-.881 1.444-1.987 2.578-3.319 3.403a12.723 12.723 0 0 1-4.331 1.688c-1.556.3-3.009.45-4.359.45h-12.713V1.013zm3.713 17.213h7.706c1.912 0 3.469-.234 4.669-.703 1.2-.469 2.137-1.041 2.812-1.716.675-.675 1.125-1.397 1.35-2.165.225-.769.338-1.472.338-2.11 0-1.387-.235-2.54-.703-3.459-.469-.919-1.097-1.65-1.885-2.194-.787-.544-1.706-.928-2.756-1.153a15.806 15.806 0 0 0-3.319-.337h-8.212v13.837zm0 19.238h8.493c2.175 0 3.928-.263 5.26-.788 1.331-.525 2.353-1.181 3.065-1.969.713-.787 1.191-1.622 1.435-2.503s.365-1.678.365-2.39c0-1.463-.281-2.719-.843-3.769-.563-1.05-1.294-1.903-2.194-2.56a9.046 9.046 0 0 0-3.066-1.434c-1.144-.3-2.297-.45-3.459-.45h-9.056v15.863zM266.341 1.014h11.475c1.5 0 3.018.121 4.556.365 1.537.244 2.916.75 4.134 1.519 1.219.769 2.213 1.837 2.981 3.206.769 1.369 1.154 3.178 1.154 5.428 0 2.025-.6 3.788-1.8 5.288-1.2 1.5-2.982 2.494-5.344 2.981v.113c1.312.112 2.512.421 3.6.928a8.986 8.986 0 0 1 2.812 2.025c.788.843 1.397 1.847 1.828 3.009.432 1.163.647 2.438.647 3.825 0 2.288-.44 4.153-1.321 5.597-.882 1.444-1.988 2.578-3.319 3.403a12.723 12.723 0 0 1-4.331 1.688c-1.557.3-3.01.45-4.36.45h-12.712V1.013zm3.712 17.213h7.706c1.913 0 3.469-.234 4.669-.703 1.2-.469 2.138-1.041 2.813-1.716.675-.675 1.125-1.397 1.35-2.165.225-.769.337-1.472.337-2.11 0-1.387-.234-2.54-.703-3.459s-1.097-1.65-1.884-2.194c-.788-.544-1.707-.928-2.757-1.153a15.804 15.804 0 0 0-3.318-.337h-8.213v13.837zm0 19.238h8.494c2.175 0 3.928-.263 5.259-.788 1.332-.525 2.353-1.181 3.066-1.969.712-.787 1.191-1.622 1.434-2.503.244-.881.366-1.678.366-2.39 0-1.463-.281-2.719-.844-3.769-.562-1.05-1.294-1.903-2.194-2.56a9.04 9.04 0 0 0-3.065-1.434c-1.144-.3-2.297-.45-3.46-.45h-9.056v15.863zM318.047 1.014h3.825l16.762 39.825h-4.162l-4.331-10.575h-21.094l-4.5 10.575h-3.881l17.381-39.826zm1.744 4.051l-9.282 21.825h18.282l-9-21.825z" fill="#fff" fill-rule="nonzero"/></svg>