<svg xmlns="http://www.w3.org/2000/svg" viewBox="0 0 495.162 85.274"><g fill="#FFF"><path d="M30.656 40.406c-11.485-1.735-18.013-8.924-18.013-18.509 0-6.775 3.305-12.807 8.429-16.608l6.94 8.428c-3.057 3.057-4.296 6.61-4.296 9.668 0 4.379 2.644 8.676 9.089 10.081l1.405-4.462C38.341 15.369 45.86 0 59.494 0c7.354 0 12.395 4.462 12.395 11.981 0 10.99-10.907 25.368-28.673 28.342l-1.24 3.966c-1.9 6.197-4.379 11.072-7.437 14.874 7.85 6.858 15.039 14.378 23.219 14.378 3.388 0 6.61-1.158 10.907-4.711l7.189 9.999c-4.875 4.461-10.329 6.444-16.113 6.444-13.221 0-23.054-11.237-31.564-20.244-3.966 2.562-8.429 3.801-13.221 3.801C4.875 68.831 0 63.543 0 57.924 0 52.718 4.132 47.76 12.229 47.76c5.041 0 9.585 1.983 13.799 4.71 1.239-2.148 2.396-4.875 3.471-8.181l1.157-3.883zm-9.42 18.014c-3.14-2.644-6.115-4.379-9.172-4.379-3.14 0-4.875 1.652-4.875 3.636 0 2.312 2.479 3.883 5.95 3.883 1.652 0 4.792-.414 8.097-3.14zM45.53 32.639c10.99-3.388 18.509-13.056 18.509-19.749 0-3.553-2.066-4.627-3.801-4.627-4.627 0-9.502 7.189-13.056 18.922l-1.652 5.454z"/><path d="M110.636 22.889l-8.841 29.003c-.827 2.645-.992 5.454 1.487 5.454 3.719 0 8.594-6.362 13.139-15.617 1.57.083 3.884 1.322 4.71 2.313-5.702 12.477-13.469 21.732-22.889 21.732-5.371 0-7.85-2.893-8.594-6.776-2.809 3.389-7.354 6.776-13.221 6.776-10.412 0-12.89-8.595-10.081-17.601l7.685-25.285h12.064l-7.602 25.037c-1.322 4.214-.992 7.851 3.388 7.851 3.223 0 6.032-2.396 8.346-5.372l8.346-27.516h12.063z"/><path d="M109.144 65.03l17.684-57.841h12.063l-6.115 19.997c2.975-2.727 7.106-5.041 11.651-5.041 6.941 0 13.221 4.958 13.221 15.535 0 4.545-1.157 9.172-3.14 13.386 4.958-1.156 8.676-4.627 10.99-9.337 1.57.083 3.883 1.322 4.71 2.313-4.132 9.007-10.577 13.138-19.583 13.221-4.049 5.124-9.42 8.512-15.287 8.512-5.619 0-9.916-3.059-11.651-8.842l-2.479 8.098h-12.064zm28.507-11.155c-5.289-3.388-8.098-8.924-8.098-14.46v-.165c-1.487 2.727-2.396 5.785-2.396 8.593 0 4.875 2.892 7.354 6.197 7.354 1.488 0 2.893-.496 4.297-1.322zm4.215-4.132c2.231-3.057 3.636-7.106 3.636-10.824 0-4.462-1.983-7.189-5.371-7.189-3.306 0-5.454 2.727-5.454 7.189 0 5.454 3.139 8.924 7.189 10.824z"/><path d="M211.353 22.889l-8.841 29.003c-.909 2.81-1.074 5.454 1.487 5.454 3.718 0 8.511-6.362 13.056-15.617 1.57.083 3.883 1.322 4.71 2.313-5.702 12.477-13.386 21.732-22.807 21.732-5.371 0-7.85-2.893-8.593-6.693-3.718 4.132-8.512 6.693-13.717 6.693-8.263 0-13.799-5.454-13.799-15.122 0-13.799 9.916-28.507 22.971-28.507 5.206 0 9.337 2.645 11.403 7.437l2.065-6.693h12.065zM187.142 33.3c-5.701 0-11.485 8.263-11.485 15.452 0 4.462 2.313 7.024 5.949 7.024 5.867 0 11.651-8.264 11.651-15.536 0-4.378-2.479-6.94-6.115-6.94zM264.974 11.073c-10.824 2.396-14.295 9.667-14.295 15.947 0 3.388 1.074 6.611 2.479 9.007l-8.676 7.023c-3.801-4.131-5.536-9.668-5.536-14.873 0-13.634 11.898-25.864 34.622-25.864 16.443 0 30.242 6.363 30.242 18.923 0 6.858-4.131 12.725-11.319 15.617 6.279 3.553 9.171 9.42 9.171 15.453 0 10.741-8.676 20.078-22.971 20.078-8.181 0-14.626-2.891-19.088-7.354H248.53l16.444-53.957zm4.628 25.615l-6.528 21.319c2.562 2.81 6.941 4.38 11.815 4.38 9.173 0 14.214-6.446 14.214-12.726 0-4.049-2.314-8.511-7.107-10.907-4.132 0-8.016-.744-12.394-2.066zm8.013-26.194l-6.196 20.244c2.479.579 4.545.91 7.023.91 10.824 0 12.726-7.438 12.726-10.495 0-5.701-4.71-9.668-13.553-10.659zM362.636 44.042c-4.049 8.842-10.163 12.726-19.17 13.138-4.545 5.124-11.072 8.595-18.674 8.595-11.238 0-18.924-7.354-18.924-17.932 0-12.477 10.495-25.698 25.285-25.698 10.99 0 19.006 7.189 19.006 17.931 0 3.719-.909 7.437-2.562 10.825 4.793-1.322 8.098-4.627 10.329-9.172 1.57.082 3.885 1.321 4.71 2.313zm-26.442-.578c.495 0 .992.083 1.404.166.166-.91.33-1.984.33-2.975 0-6.445-3.966-8.676-7.601-8.676-6.28 0-12.478 7.271-12.478 15.452 0 6.362 3.801 8.594 7.437 8.594 1.9 0 3.801-.578 5.536-1.735-.826-1.074-1.321-2.479-1.321-4.049.001-3.72 2.975-6.777 6.693-6.777z"/><path d="M353.625 49.496c0-6.941 4.71-9.337 7.686-8.842 3.057-5.784 6.692-14.378 8.841-20.906l9.668 2.148c3.14 10.081 10.576 18.262 10.576 28.095 0 2.147-.33 4.214-.991 6.114 4.545-3.223 7.603-8.181 10.659-14.378 1.57.083 3.883 1.322 4.71 2.313-5.701 12.477-13.964 21.98-30.904 21.98-12.064.002-20.245-8.178-20.245-16.524zm18.014-19.005a145.66 145.66 0 0 1-5.784 12.56c.992 1.157 1.653 2.644 1.653 4.297 0 2.479-1.405 4.627-3.389 5.783.661 2.81 3.223 4.958 6.776 4.958 4.214 0 7.188-3.14 7.188-8.263.001-5.784-4.131-12.312-6.444-19.335z"/><path d="M425.261 31.482c-.661-.331-1.487-.496-2.479-.496-6.114 0-11.98 7.602-11.98 15.7 0 6.775 3.966 10.99 10.907 10.99 7.849 0 15.782-5.702 20.822-15.948 1.57.083 3.884 1.322 4.711 2.313-5.702 12.477-15.122 21.98-29.335 21.98-12.229 0-19.996-6.941-19.996-18.262 0-12.312 9.254-25.615 24.046-25.615 10.328 0 15.12 6.363 15.12 12.312 0 4.462-2.727 9.089-7.767 9.089a6.664 6.664 0 0 1-6.692-6.693c-.001-2.147.99-4.13 2.643-5.37z"/><path d="M452.938 7.189h12.063l-6.444 21.07c3.552-3.883 7.354-6.114 11.815-6.114 9.421 0 11.981 8.759 9.255 17.601l-3.719 12.146c-.908 2.81-.991 5.454 1.487 5.454 3.718 0 8.512-6.362 13.056-15.617 1.57.083 3.884 1.322 4.71 2.313-5.702 12.477-13.386 21.732-22.807 21.732-9.666 0-9.915-9.503-7.767-16.526l2.892-9.172c1.323-4.214.826-7.85-3.388-7.85-3.305 0-6.032 2.396-8.428 5.371l-8.346 27.434h-12.063l17.684-57.842z"/></g></svg>