<svg viewBox="0 0 999 181" xmlns="http://www.w3.org/2000/svg" fill-rule="evenodd" clip-rule="evenodd" stroke-miterlimit="1.414"><path fill="none" stroke="#8d8d8d" stroke-width="4.55" d="M2.272 2.285h993.823v176.442H2.272z"/><path d="M244.651 145.843V40.951h20.388v87.016h53.477v17.876h-73.865zM352.494 147.321c-7.976 0-14.033-2.561-18.17-7.684-4.135-5.118-6.204-12.704-6.204-22.75V68.434h19.796v44.17c0 11.918 4.284 17.876 12.853 17.876 3.937 0 7.704-1.158 11.3-3.472 3.595-2.312 6.523-5.837 8.792-10.564v-48.01h19.796v54.659c0 2.069.392 3.542 1.18 4.43.787.888 2.166 1.381 4.137 1.48v16.84c-2.068.391-3.893.666-5.467.813-1.575.146-2.954.222-4.135.222-3.546 0-6.33-.813-8.347-2.438-2.02-1.624-3.276-3.866-3.767-6.725l-.443-6.352c-3.547 5.318-8.004 9.309-13.371 11.968-5.368 2.659-11.351 3.99-17.95 3.99zM492.691 145.843h-19.796v-43.436c0-6.201-1.085-10.73-3.249-13.59-2.169-2.854-5.172-4.283-9.012-4.283-1.971 0-3.988.395-6.057 1.181a22.394 22.394 0 0 0-5.835 3.324c-1.825 1.43-3.471 3.13-4.95 5.099a20.135 20.135 0 0 0-3.249 6.498v45.207h-19.796V68.434h17.874v14.329c2.857-4.923 6.994-8.768 12.41-11.524 5.415-2.756 11.523-4.137 18.319-4.137 4.823 0 8.765.887 11.819 2.659 3.052 1.771 5.413 4.088 7.092 6.942 1.673 2.86 2.829 6.109 3.471 9.753.639 3.645.959 7.335.959 11.077v48.31zM504.951 107.134c0-5.415.935-10.532 2.806-15.359s4.581-9.061 8.125-12.706c3.547-3.644 7.831-6.551 12.854-8.718 5.022-2.166 10.684-3.249 16.988-3.249 8.47 0 15.683 1.824 21.643 5.465 5.959 3.644 10.416 8.42 13.37 14.333l-19.352 5.906c-1.676-2.857-3.893-5.045-6.65-6.572-2.756-1.527-5.811-2.291-9.158-2.291-2.859 0-5.517.569-7.979 1.701a19.606 19.606 0 0 0-6.425 4.727c-1.825 2.02-3.25 4.454-4.284 7.309-1.034 2.859-1.552 6.01-1.552 9.454 0 3.45.54 6.602 1.625 9.456 1.083 2.859 2.535 5.318 4.36 7.386a19.122 19.122 0 0 0 6.425 4.805 18.535 18.535 0 0 0 7.83 1.699c3.545 0 6.819-.888 9.824-2.659 3.003-1.775 5.096-3.942 6.279-6.504l19.352 5.909c-2.66 5.912-7.042 10.738-13.149 14.48-6.107 3.742-13.443 5.615-22.011 5.615-6.303 0-11.967-1.087-16.99-3.253-5.022-2.162-9.306-5.097-12.851-8.79-3.546-3.693-6.279-7.977-8.199-12.851-1.922-4.874-2.881-9.974-2.881-15.293zM664.943 145.843h-19.796v-43.436c0-6.103-1.132-10.611-3.398-13.514-2.266-2.903-5.465-4.359-9.601-4.359-1.774 0-3.645.395-5.614 1.181-1.97.79-3.841 1.899-5.615 3.324-1.771 1.43-3.396 3.13-4.875 5.099a20.175 20.175 0 0 0-3.249 6.498v45.207h-19.796V37.999h19.796v44.764c2.855-5.026 6.721-8.887 11.597-11.6 4.875-2.707 10.267-4.061 16.176-4.061 5.023 0 9.109.861 12.26 2.584 3.153 1.726 5.617 4.016 7.387 6.871 1.774 2.859 3.003 6.108 3.694 9.748a60.404 60.404 0 0 1 1.034 11.228v48.31zM783.275 114.965c0-1.869-.323-3.667-.961-5.388-.642-1.723-1.503-3.228-2.586-4.511a12.075 12.075 0 0 0-3.84-3.027c-1.479-.738-3.104-1.106-4.877-1.106h-31.316v27.624h30.285c1.868 0 3.617-.342 5.242-1.034a12.451 12.451 0 0 0 4.21-2.881c1.184-1.229 2.118-2.68 2.808-4.359a13.841 13.841 0 0 0 1.035-5.318zm-43.58-56.581v26.447h27.181c3.446 0 6.375-1.185 8.789-3.547 2.413-2.365 3.62-5.615 3.62-9.752 0-4.035-1.107-7.236-3.324-9.601-2.216-2.363-4.95-3.547-8.199-3.547h-28.067zm64.114 60.425c0 4.431-.888 8.323-2.658 11.671-1.774 3.347-4.211 6.152-7.314 8.421-3.103 2.264-6.699 3.986-10.785 5.167-4.088 1.185-8.445 1.775-13.072 1.775h-50.674V40.951h56.138c3.642 0 6.945.79 9.899 2.366 2.954 1.577 5.464 3.619 7.533 6.13 2.069 2.513 3.669 5.372 4.803 8.568 1.13 3.205 1.698 6.427 1.698 9.677 0 5.123-1.281 9.926-3.843 14.405-2.56 4.483-6.302 7.808-11.225 9.97 6.006 1.773 10.758 4.952 14.256 9.527 3.493 4.582 5.244 10.322 5.244 17.215zM832.911 107.286c0 3.449.518 6.574 1.552 9.38 1.034 2.805 2.459 5.242 4.283 7.31a19.165 19.165 0 0 0 6.426 4.805c2.462 1.131 5.12 1.699 7.98 1.699 2.853 0 5.512-.568 7.976-1.699a19.156 19.156 0 0 0 6.426-4.805c1.822-2.068 3.252-4.527 4.286-7.386 1.031-2.854 1.549-6.006 1.549-9.456 0-3.346-.518-6.445-1.549-9.303-1.034-2.854-2.464-5.32-4.286-7.389a19.135 19.135 0 0 0-6.426-4.798c-2.464-1.132-5.123-1.701-7.976-1.701-2.86 0-5.518.591-7.98 1.772a20.115 20.115 0 0 0-6.426 4.878c-1.824 2.064-3.249 4.53-4.283 7.385-1.034 2.858-1.552 5.961-1.552 9.308zm20.241 40.035c-6.306 0-11.968-1.087-16.991-3.253-5.023-2.162-9.285-5.097-12.778-8.79-3.498-3.693-6.182-7.95-8.052-12.775-1.871-4.826-2.805-9.899-2.805-15.217 0-5.416.934-10.538 2.805-15.365 1.87-4.826 4.554-9.087 8.052-12.78 3.493-3.694 7.755-6.623 12.778-8.79 5.023-2.166 10.685-3.249 16.991-3.249 6.3 0 11.94 1.083 16.915 3.249 4.971 2.167 9.206 5.096 12.704 8.79 3.496 3.693 6.18 7.954 8.051 12.78 1.87 4.827 2.806 9.949 2.806 15.365 0 5.318-.936 10.391-2.806 15.217-1.871 4.825-4.531 9.082-7.978 12.775-3.449 3.693-7.682 6.628-12.704 8.79-5.023 2.166-10.688 3.253-16.988 3.253zM915.788 68.434l16.547 24.223 1.329 2.661 1.329-2.661 16.547-24.223h20.387l-27.478 38.852 27.921 38.557h-20.388l-16.989-24.082-1.329-2.512-1.329 2.512-16.99 24.082h-20.387l28.071-38.557-27.627-38.852h20.386z" fill="#fff" fill-rule="nonzero"/><path d="M122.131 80.832V54.126l-10.398 19.888h-4.262L97.072 54.126v26.706h-7.841V40.489h8.409l11.934 22.955 12.046-22.955h8.353v40.343h-7.842zM137.983 86.627a14.18 14.18 0 0 0 1.876.398c.568.075 1.06.115 1.477.115.491 0 .928-.087 1.306-.258.379-.168.748-.481 1.109-.937.36-.455.719-1.089 1.079-1.904.36-.814.748-1.884 1.165-3.209L134.176 51.06h7.842l8.126 23.179 7.158-23.179h7.16l-12.558 35.68c-.795 2.273-2.065 4.027-3.807 5.256-1.742 1.232-3.769 1.847-6.079 1.847-1.327 0-2.67-.209-4.035-.624v-6.592zM59.345 116.969c-.266-.266-.748-.626-1.45-1.081-.701-.455-1.553-.898-2.556-1.334a22.274 22.274 0 0 0-3.268-1.109 14.317 14.317 0 0 0-3.58-.453c-2.159 0-3.768.397-4.829 1.192-1.062.797-1.592 1.913-1.592 3.354 0 .832.2 1.524.598 2.073.397.55.973 1.032 1.733 1.449.757.417 1.713.794 2.869 1.136 1.155.34 2.491.702 4.007 1.079a58.437 58.437 0 0 1 5.369 1.705c1.609.606 2.974 1.364 4.09 2.273 1.117.91 1.981 2 2.586 3.267.607 1.27.91 2.832.91 4.688 0 2.159-.408 4.006-1.222 5.539-.815 1.534-1.903 2.777-3.268 3.722-1.362.948-2.954 1.638-4.771 2.074a24.424 24.424 0 0 1-5.683.654c-3.031 0-6.023-.455-8.978-1.365-2.954-.908-5.606-2.195-7.955-3.862l3.465-6.762c.342.341.957.787 1.847 1.336.89.547 1.942 1.098 3.154 1.646a24.191 24.191 0 0 0 4.035 1.392 18.16 18.16 0 0 0 4.545.568c4.32 0 6.477-1.381 6.477-4.145 0-.911-.246-1.667-.737-2.274-.493-.605-1.194-1.137-2.104-1.591-.907-.455-2.009-.873-3.296-1.249a147.752 147.752 0 0 0-4.316-1.194c-1.934-.53-3.61-1.108-5.031-1.734-1.42-.623-2.603-1.354-3.55-2.187a7.952 7.952 0 0 1-2.131-2.956c-.473-1.136-.71-2.48-.71-4.032 0-2.047.379-3.865 1.136-5.456a11.02 11.02 0 0 1 3.154-3.978c1.345-1.058 2.907-1.864 4.687-2.415 1.781-.548 3.694-.823 5.74-.823 2.841 0 5.454.446 7.841 1.336 2.387.89 4.468 1.94 6.25 3.152l-3.466 6.365zM67.584 131.856c0-2.084.359-4.053 1.079-5.911a14.388 14.388 0 0 1 3.125-4.885c1.364-1.4 3.012-2.519 4.942-3.353 1.934-.833 4.111-1.25 6.535-1.25 3.258 0 6.033.701 8.325 2.102 2.291 1.403 4.007 3.24 5.143 5.513l-7.445 2.272c-.644-1.098-1.495-1.941-2.557-2.53-1.06-.586-2.234-.879-3.522-.879a7.252 7.252 0 0 0-3.069.654 7.527 7.527 0 0 0-2.471 1.817c-.701.776-1.249 1.716-1.649 2.812-.397 1.102-.594 2.313-.594 3.638 0 1.324.206 2.537.623 3.635.418 1.099.974 2.047 1.675 2.842a7.362 7.362 0 0 0 2.473 1.846 7.096 7.096 0 0 0 3.012.655 7.303 7.303 0 0 0 3.778-1.024c1.156-.68 1.962-1.515 2.414-2.501l7.445 2.273c-1.023 2.273-2.707 4.131-5.056 5.569-2.351 1.44-5.172 2.159-8.468 2.159-2.424 0-4.602-.417-6.534-1.249-1.931-.833-3.58-1.96-4.942-3.381a14.981 14.981 0 0 1-3.155-4.945 15.882 15.882 0 0 1-1.107-5.879zM129.118 146.742h-7.613v-16.704c0-2.348-.435-4.081-1.307-5.2-.872-1.117-2.102-1.676-3.693-1.676-.681 0-1.403.151-2.16.455a8.516 8.516 0 0 0-2.159 1.278 10.877 10.877 0 0 0-1.874 1.96 7.786 7.786 0 0 0-1.252 2.499v17.388h-7.612v-41.478h7.612v17.217c1.099-1.933 2.586-3.419 4.462-4.462 1.875-1.041 3.948-1.562 6.22-1.562 1.934 0 3.505.333 4.717.994 1.212.664 2.159 1.545 2.841 2.643.682 1.099 1.155 2.349 1.42 3.749.265 1.403.398 2.841.398 4.32v18.579zM141.676 131.911c0 1.328.197 2.531.595 3.609.399 1.079.948 2.018 1.649 2.813a7.33 7.33 0 0 0 2.47 1.846 7.246 7.246 0 0 0 3.07.655 7.237 7.237 0 0 0 3.068-.655 7.348 7.348 0 0 0 2.472-1.846c.701-.795 1.249-1.743 1.647-2.842.399-1.098.596-2.311.596-3.635 0-1.286-.197-2.48-.596-3.579-.398-1.1-.946-2.048-1.647-2.843a7.372 7.372 0 0 0-2.472-1.845 7.251 7.251 0 0 0-3.068-.654 7.004 7.004 0 0 0-3.07.682 7.693 7.693 0 0 0-2.47 1.876c-.701.794-1.25 1.742-1.649 2.842-.398 1.097-.595 2.289-.595 3.576zm7.784 15.399c-2.426 0-4.603-.417-6.534-1.249-1.934-.833-3.571-1.96-4.917-3.381a14.886 14.886 0 0 1-3.096-4.916 16.074 16.074 0 0 1-1.079-5.853c0-2.081.361-4.053 1.079-5.908a14.898 14.898 0 0 1 3.096-4.914c1.346-1.42 2.983-2.548 4.917-3.382 1.931-.833 4.108-1.25 6.534-1.25 2.424 0 4.592.417 6.505 1.25 1.913.834 3.543 1.962 4.888 3.382a14.93 14.93 0 0 1 3.096 4.914c.719 1.855 1.079 3.827 1.079 5.908 0 2.047-.36 3.998-1.079 5.853a15.158 15.158 0 0 1-3.067 4.916c-1.328 1.421-2.957 2.548-4.888 3.381-1.933.832-4.11 1.249-6.534 1.249zM176.052 131.911c0 1.328.197 2.531.595 3.609.399 1.079.948 2.018 1.649 2.813a7.33 7.33 0 0 0 2.47 1.846 7.246 7.246 0 0 0 3.07.655 7.237 7.237 0 0 0 3.068-.655 7.348 7.348 0 0 0 2.472-1.846c.701-.795 1.249-1.743 1.647-2.842.399-1.098.596-2.311.596-3.635 0-1.286-.197-2.48-.596-3.579-.398-1.1-.946-2.048-1.647-2.843a7.372 7.372 0 0 0-2.472-1.845 7.251 7.251 0 0 0-3.068-.654 7.004 7.004 0 0 0-3.07.682 7.693 7.693 0 0 0-2.47 1.876c-.701.794-1.25 1.742-1.649 2.842-.398 1.097-.595 2.289-.595 3.576zm7.784 15.399c-2.427 0-4.603-.417-6.534-1.249-1.934-.833-3.571-1.96-4.917-3.381a14.886 14.886 0 0 1-3.096-4.916 16.053 16.053 0 0 1-1.079-5.853c0-2.081.36-4.053 1.079-5.908a14.898 14.898 0 0 1 3.096-4.914c1.346-1.42 2.983-2.548 4.917-3.382 1.931-.833 4.107-1.25 6.534-1.25 2.423 0 4.592.417 6.505 1.25 1.913.834 3.543 1.962 4.888 3.382a14.93 14.93 0 0 1 3.096 4.914c.719 1.855 1.079 3.827 1.079 5.908 0 2.047-.36 3.998-1.079 5.853a15.144 15.144 0 0 1-3.068 4.916c-1.327 1.421-2.956 2.548-4.887 3.381-1.933.832-4.111 1.249-6.534 1.249zM204.347 105.264h7.614v31.592c0 2.311 1.041 3.465 3.126 3.465.414 0 .899-.075 1.449-.227.548-.15 1.07-.321 1.563-.512l1.02 6.082c-1.02.492-2.214.87-3.578 1.135-1.364.265-2.596.398-3.692.398-2.389 0-4.235-.635-5.54-1.904-1.308-1.268-1.962-3.077-1.962-5.427v-34.602z" fill="#8d8d8d" fill-rule="nonzero"/></svg>