<svg viewBox="0 0 1145 384" xmlns="http://www.w3.org/2000/svg" fill-rule="evenodd" clip-rule="evenodd" stroke-linejoin="round" stroke-miterlimit="1.414"><g fill-rule="nonzero"><path d="M77.501 249.192c-4.857 0-9.645-.243-14.231-.721-7.894-.83-15.012-2.044-21.162-3.611-6.71-1.702-11.991-3.515-16.133-5.543-9.768-4.754-15.065-11.663-15.726-20.524a22.255 22.255 0 0 1 .304-5.663l2.695-37.372a22.01 22.01 0 0 1 9.149-16.347 21.96 21.96 0 0 1 8.209-3.646 87.68 87.68 0 0 1-4.027-4.889c-4.842-6.331-8.225-13.677-10.06-21.847a68.636 68.636 0 0 1-.821-2.513c-1.003-3.228-1.777-7.11-2.362-11.859-.59-4.728-.719-9.937-.393-15.912.35-6.431 1.577-13 3.645-19.528 2.211-6.998 5.781-13.948 10.609-20.652 5.109-7.091 11.944-13.351 20.316-18.608 8.936-5.711 19.406-9.916 31.12-12.498 10.295-2.265 20.217-3.685 29.495-4.225 5.16-.362 10.452-.545 15.729-.545 5.4 0 10.935.192 16.454.571 12.031.827 21.054 10.911 20.541 22.959l-2.384 56.005c.518 2.675.55 5.388.094 8.089a22.723 22.723 0 0 1-7.66 13.542c5.709 4.487 10.648 9.683 14.716 15.484 5.717 8.151 8.832 17.715 9.259 28.425.009.213.015.441.016.668.073 7.821-.968 15.417-3.094 22.581-1.806 6.135-4.577 12.456-8.229 18.764-4.34 7.494-10.367 14.013-17.913 19.38-8.954 6.57-18.634 11.429-28.772 14.442-9.275 2.757-18.667 4.496-27.915 5.17-3.896.281-7.752.423-11.469.423" fill="#080001"/><path d="M123.857 12.502c-5.493 0-11.006.19-16.386.566-9.795.573-20.232 2.067-31.023 4.441-12.879 2.839-24.446 7.496-34.386 13.842-9.474 5.954-17.256 13.105-23.129 21.257-5.464 7.588-9.522 15.509-12.061 23.546-2.322 7.332-3.704 14.749-4.101 22.033-.359 6.591-.21 12.393.457 17.741.657 5.332 1.555 9.794 2.743 13.616.271.876.513 1.625.739 2.292 1.719 7.371 4.529 14.183 8.382 20.333a32.167 32.167 0 0 0-12.005 22.856L.428 211.892a32.44 32.44 0 0 0-.339 7.657c.629 8.431 4.324 15.984 10.687 21.842 4.268 3.928 8.625 6.057 10.736 7.084 4.777 2.337 10.699 4.385 18.104 6.262 6.604 1.683 14.21 2.985 22.584 3.865 4.947.517 10.091.778 15.301.778 3.961 0 8.064-.151 12.193-.449 9.997-.729 20.115-2.602 30.092-5.566 11.244-3.342 21.954-8.709 31.839-15.952 8.713-6.21 15.697-13.789 20.76-22.529 4.056-7.007 7.146-14.07 9.187-20.996 2.41-8.129 3.59-16.724 3.509-25.544a32.885 32.885 0 0 0-.025-.994c-.506-12.686-4.24-24.082-11.098-33.861-2.703-3.854 6.707-13.397 3.361-16.754 1.821-3.257-9.354-.92-8.711-4.727.588-3.486.615-6.983.084-10.44l2.337-54.915c.36-8.451-2.548-16.578-8.187-22.881-5.64-6.305-13.395-10.096-21.834-10.675a251.174 251.174 0 0 0-17.151-.595m0 20.375c5.171 0 10.472.183 15.756.546 6.429.442 11.334 5.925 11.061 12.363l-2.443 57.375c.49 1.771.595 3.623.286 5.457-.675 4.002-3.207 7.394-6.945 9.307a11.884 11.884 0 0 1-15.952-5.083 42.313 42.313 0 0 0-2.771-1.106c-2.912-1.048-6.309-2-10.084-2.824-2.117-.46-4.136-.693-5.998-.693-.79 0-1.57.042-2.299.123a9.668 9.668 0 0 0-1.575.3c2.032 1.338 4.602 2.751 7.671 4.217 4.947 2.366 9.972 4.795 14.932 7.219a116.565 116.565 0 0 1 16.889 10.114c5.872 4.233 10.883 9.279 14.892 14.996 4.576 6.525 7.073 14.258 7.421 22.982l.009.363c.063 6.801-.836 13.389-2.675 19.582-1.583 5.378-4.031 10.948-7.278 16.558-3.615 6.241-8.682 11.699-15.062 16.225-8.025 5.899-16.673 10.251-25.709 12.937-8.572 2.547-17.234 4.153-25.754 4.774a149.7 149.7 0 0 1-10.728.396c-4.506 0-8.936-.223-13.173-.666-7.398-.778-14.033-1.906-19.705-3.352-6.033-1.529-10.675-3.109-14.17-4.819-2.838-1.382-9.485-4.618-10.045-12.132a12.055 12.055 0 0 1 .26-3.533l2.741-38.013a11.886 11.886 0 0 1 14.841-10.649 71.035 71.035 0 0 0 13.181 2.147c1.458.114 2.974.172 4.508.172a68.71 68.71 0 0 0 6.407-.31l-.589-.331c-4.674-2.614-9.372-5.79-13.957-9.437a76.197 76.197 0 0 1-13.129-13.395c-4.064-5.312-6.867-11.528-8.346-18.5-.043-.116-.088-.236-.133-.362a56.797 56.797 0 0 1-.764-2.325c-.823-2.651-1.472-5.956-1.982-10.09-.515-4.132-.623-8.747-.331-14.112.304-5.573 1.376-11.296 3.184-17.005 1.887-5.97 4.969-11.949 9.165-17.775 4.343-6.028 10.231-11.396 17.501-15.954 7.931-5.076 17.302-8.829 27.86-11.156 9.789-2.153 19.193-3.502 27.951-4.008a216.532 216.532 0 0 1 15.081-.523" fill="#080001"/><path d="M200.733 244.992a22.175 22.175 0 0 1-15.945-6.809 22.157 22.157 0 0 1-6.097-16.429l6.158-116.381-13.882.865c-.462.028-.921.043-1.374.043a21.964 21.964 0 0 1-15.312-6.176 22.13 22.13 0 0 1-6.753-16.447l1.065-42.735c.288-11.554 9.205-20.79 20.742-21.483l115.234-6.924a22.028 22.028 0 0 1 16.154 5.684 22.2 22.2 0 0 1 7.227 15.525l1.56 41.833A21.977 21.977 0 0 1 288.985 98.4l-3.413.238 1.897 123.341a22.214 22.214 0 0 1-6.27 15.753 22.218 22.218 0 0 1-15.594 6.658l-64.872.602z" fill="#080001"/><path d="M285.894 2.289c-.643 0-1.296.019-1.94.058l-115.23 6.925a32.18 32.18 0 0 0-21.273 9.794 32.179 32.179 0 0 0-9.042 21.604l-1.065 42.735a32.34 32.34 0 0 0 9.868 24.036 32.108 32.108 0 0 0 22.381 9.028c.657 0 1.326-.021 1.991-.062l2.488-.155-5.554 104.964a32.374 32.374 0 0 0 8.913 24.013c6.053 6.324 14.546 9.951 23.302 9.951l.275-.001 64.691-.602c8.529-.079 16.835-3.626 22.791-9.73 5.957-6.105 9.297-14.497 9.166-23.024l2.303-111.078c5.96-1.605 7.28-8.118 11.489-12.801a32.1 32.1 0 0 0 8.242-22.764l-1.559-41.834c-.322-8.623-4.172-16.893-10.563-22.69a32.193 32.193 0 0 0-21.674-8.367m0 20.374a11.888 11.888 0 0 1 11.876 11.443l1.56 41.833c.239 6.41-4.652 11.853-11.052 12.299l-13.041.907 2.047 132.991a11.89 11.89 0 0 1-11.774 12.068l-64.667.601h-.11a11.887 11.887 0 0 1-11.869-12.513l6.762-127.798-25.292 1.577a11.884 11.884 0 0 1-12.621-12.158l1.065-42.735a11.884 11.884 0 0 1 11.168-11.568l115.234-6.925c.239-.014.476-.022.714-.022" fill="#080001"/><path d="M959.107 139.657l.446-.005.1-6.492-.546 6.497zM360.236 246.145c-.655 0-1.315-.03-1.963-.088l-56.813-5.031a22.05 22.05 0 0 1-16.006-9.146 22.053 22.053 0 0 1-3.483-18.102l43.422-176.865c2.37-9.653 10.966-16.563 20.905-16.803l79.58-1.911a22.038 22.038 0 0 1 21.943 16.713l20.121 80.486 2.294-70.61c.358-11.028 8.91-20.163 19.89-21.249l55.55-5.49a22.053 22.053 0 0 1 22.441 13.227l9.344 21.675 7.99-19.078a22.048 22.048 0 0 1 18.202-13.439l52.626-5.171a22.094 22.094 0 0 1 16.451 5.147 21.922 21.922 0 0 1 3.614 3.926 22.026 22.026 0 0 1 21.608-13.599l44.942 2.52c12.156.757 22.864 2.243 31.827 4.419 9.489 2.31 17.846 5.373 24.846 9.105 4.738 2.528 9.052 5.407 12.897 8.604a22.033 22.033 0 0 1 21.489-18.934l122.847-2.02.405-.003c4.451 0 8.598 1.323 12.069 3.598a21.941 21.941 0 0 1 12.713-4.976l43.216-2.447c4.397-.276 8.667-.416 12.69-.416h.001c7.311 0 14.133.464 20.276 1.379 10.013 1.495 18.896 3.984 26.41 7.395 7.92 3.599 14.836 8.198 20.559 13.671a95.648 95.648 0 0 1 13.472 16.058c.111.165.241.368.369.574 3.648 5.849 6.389 13.683 8.612 24.633 1.963 9.713 2.781 20.369 2.432 31.68-.373 11.876-2.617 23.763-6.67 35.34a75.276 75.276 0 0 1-6.321 13.588l9.418 7.997c9.182 7.796 10.466 21.259 2.921 30.649l-32.688 40.688a22.219 22.219 0 0 1-14.919 8.13 22.127 22.127 0 0 1-16.272-4.876l-10.017-8.203a21.934 21.934 0 0 1-1.662 1.802 21.966 21.966 0 0 1-16.068 6.205l-57.931-1.801a21.942 21.942 0 0 1-7.412-1.539 22.192 22.192 0 0 1-10.509 2.894l-132.25 2.401-.401.003a22.213 22.213 0 0 1-15.688-6.546 22.17 22.17 0 0 1-6.375-16.155l.841-29.578a60.834 60.834 0 0 1-5.042 2.724c-.541.26-1.093.499-1.645.712a132.21 132.21 0 0 0-7.608 3.2 138.051 138.051 0 0 1-10.397 4.271 83.744 83.744 0 0 1-7.821 2.419l.024 17.555c.016 12.02-9.748 21.934-21.766 22.101l-64.079.888-.306.002a22.14 22.14 0 0 1-9.469-2.145 22.143 22.143 0 0 1-10.554 2.313l-63.227-2.046c-12.076-.39-21.458-10.16-21.358-22.242l.012-1.521-15.231-.306-.029 3.616c-.094 11.762-9.373 21.371-21.125 21.875l-60.844 2.614c-.307.014-.627.02-.947.02a21.946 21.946 0 0 1-11.482-3.212c-.684.139-1.374.244-2.068.316l-55.84 5.787c-.763.079-1.53.118-2.286.118-10.38 0-19.46-7.377-21.593-17.543l-3.635-17.338-4.627.043-3.137 17.227c-1.912 10.5-11.04 18.121-21.705 18.121" fill="#080001"/><path d="M1037.89 0c-4.229 0-8.702.146-13.299.433l-43.184 2.446a32.196 32.196 0 0 0-12.797 3.443 32.116 32.116 0 0 0-11.981-2.077l-122.847 2.02a32.193 32.193 0 0 0-25.794 13.57 91.85 91.85 0 0 0-3.627-2.041c-7.759-4.137-16.918-7.505-27.228-10.015-9.552-2.319-20.856-3.896-33.609-4.69l-.115-.006-.084-.006-44.798-2.51a32.2 32.2 0 0 0-23.939 8.741 32.29 32.29 0 0 0-19.295-4.185l-52.64 5.172A32.217 32.217 0 0 0 577.405 27.1a32.23 32.23 0 0 0-32.737-19.188l-55.547 5.49a32.246 32.246 0 0 0-20.379 10.057 32.247 32.247 0 0 0-8.557 18.92l-2.484-9.938a32.214 32.214 0 0 0-32.057-24.427L346.05 9.926c-14.527.35-27.091 10.448-30.555 24.559l-43.421 176.863a32.223 32.223 0 0 0 5.091 26.459 32.221 32.221 0 0 0 23.393 13.366l56.818 5.032c.941.084 1.905.127 2.856.127 11.511 0 21.795-6.07 27.515-15.422a32.256 32.256 0 0 0 6.92 7.747 32.355 32.355 0 0 0 20.262 7.166c1.109 0 2.231-.058 3.335-.173l55.012-5.701a32.169 32.169 0 0 0 14.714 2.835l60.844-2.614c13.074-.562 24.054-8.833 28.613-20.335a32.272 32.272 0 0 0 6.124 9.018c5.867 6.111 13.76 9.626 22.226 9.9l63.229 2.046a32.186 32.186 0 0 0 10.984-1.567 32.123 32.123 0 0 0 9.367 1.404l.385-.002.062-.001 64.08-.889c8.539-.118 16.543-3.535 22.536-9.62 5.993-6.085 9.287-14.14 9.276-22.681l-.014-9.991c.379-.132.755-.267 1.129-.403a149.302 149.302 0 0 0 10.535-4.301l-.373 13.117c-.25 8.77 3.147 17.375 9.318 23.611 6.018 6.079 14.374 9.566 22.928 9.566.171 0 .34-.001.511-.004l.075-.001 132.249-2.4a32.241 32.241 0 0 0 11.077-2.195 32.11 32.11 0 0 0 6.343.837l57.958 1.801c.345.011.675.016 1.003.016 6.149 0 12.056-1.72 17.151-4.928l3.428 2.807a32.343 32.343 0 0 0 20.438 7.3 32.3 32.3 0 0 0 3.347-.174c8.501-.886 16.448-5.217 21.803-11.882l32.688-40.687a32.09 32.09 0 0 0 6.966-23.265c-.803-8.415-4.793-16.062-11.236-21.532l-3.204-2.72a87.258 87.258 0 0 0 3.127-7.726c4.398-12.565 6.833-25.478 7.239-38.385.374-12.105-.51-23.546-2.628-34.018-2.475-12.193-5.641-21.097-9.969-28.036a29.62 29.62 0 0 0-.534-.828 105.738 105.738 0 0 0-14.888-17.745c-6.559-6.273-14.426-11.517-23.388-15.589-8.384-3.806-18.178-6.563-29.116-8.197C1053.027.501 1045.7 0 1037.89 0M764.287 115.523c1.34-3.527 1.792-8.462 1.326-14.415a17.256 17.256 0 0 0-1.572-2.225l.246 16.64m273.603-95.148c6.81 0 13.125.426 18.777 1.266 9.07 1.356 17.042 3.574 23.698 6.596 6.871 3.122 12.835 7.077 17.729 11.758a85.458 85.458 0 0 1 12.033 14.34c.065.098.128.197.19.297 2.999 4.808 5.314 11.571 7.287 21.292 1.807 8.938 2.559 18.806 2.234 29.34-.341 10.829-2.394 21.69-6.103 32.287-2.44 6.963-5.892 13.237-10.316 18.763l16.434 13.953c4.909 4.167 5.607 11.485 1.574 16.504l-32.69 40.688a11.881 11.881 0 0 1-9.265 4.442 11.89 11.89 0 0 1-7.53-2.69l-21.599-17.687-.003 3.324a11.884 11.884 0 0 1-12.255 11.868l-57.958-1.801c-3.462-.108-6.527-1.697-8.627-4.133a11.881 11.881 0 0 1-9.796 5.483l-132.249 2.401-.216.002a11.885 11.885 0 0 1-11.88-12.224l1.56-54.811c-3.086 4.527-6.026 8.075-8.975 10.826-3.183 2.977-7.016 5.556-11.391 7.664-.291.14-.586.269-.886.384a143.132 143.132 0 0 0-8.197 3.447c-3.1 1.427-6.345 2.76-9.634 3.959-3.579 1.308-7.512 2.391-11.678 3.219-.922.183-1.873.349-2.852.497l.035 25.843c.009 6.505-5.215 11.809-11.72 11.9l-64.079.888-.165.001a11.885 11.885 0 0 1-8.511-3.59 11.799 11.799 0 0 1-1.08-1.3 11.755 11.755 0 0 1-1.18 1.454 11.885 11.885 0 0 1-8.536 3.616c-.128 0-.256-.003-.385-.006l-63.228-2.046c-6.45-.209-11.554-5.525-11.501-11.977l.095-11.626a12.187 12.187 0 0 1-.959.019l-29.854-.599a11.88 11.88 0 0 1-4.785-1.111l-.119 14.941c-.051 6.328-5.052 11.507-11.374 11.778l-60.845 2.614a11.887 11.887 0 0 1-8.87-3.426 11.867 11.867 0 0 1-1.058-1.221 11.878 11.878 0 0 1-5.182 1.816l-55.84 5.788a11.887 11.887 0 0 1-12.858-9.384l-5.349-25.512-21.399.2-4.644 25.511a11.887 11.887 0 0 1-12.742 9.71l-56.818-5.031a11.88 11.88 0 0 1-8.618-4.926 11.874 11.874 0 0 1-1.875-9.747l43.42-176.863a11.885 11.885 0 0 1 11.257-9.048l79.579-1.911c.097-.002.192-.004.289-.004a11.885 11.885 0 0 1 11.527 9.003l37.816 151.271 4.664-143.535a11.886 11.886 0 0 1 10.71-11.442l55.55-5.49a11.888 11.888 0 0 1 12.083 7.122l18.836 43.688 17.251-41.188a11.89 11.89 0 0 1 9.801-7.237l52.626-5.17a11.886 11.886 0 0 1 13.023 11.067l8.899 138.682 5.654-142.845a11.884 11.884 0 0 1 12.54-11.397l44.797 2.511.074.004c11.562.72 21.672 2.116 30.055 4.151 8.653 2.107 16.208 4.863 22.457 8.195 6.553 3.497 12.129 7.726 16.577 12.574 3.756 4.1 7.255 8.547 10.42 13.224l.665-23.386c.181-6.353 5.329-11.441 11.685-11.545l122.848-2.02c.078-.002.156-.002.236-.002h.002c6.565 0 11.884 5.321 11.884 11.884 0 .28-.009.558-.029.832-.493 9.522-.899 18.077-1.206 25.428l-.005.096c-.16 3.201-.274 6.292-.339 9.207a1411.5 1411.5 0 0 1-.219 8.29c-.07 2.198-.094 4.642-.069 7.265.061 6.541-5.176 11.903-11.716 11.995l-4.332.061a11.975 11.975 0 0 1 .626 5.234l-3.668 43.69c-.044.52-.121 1.03-.228 1.526l.783-.031a386.06 386.06 0 0 1 11.325-.257h.113c3.814 0 7.21 1.81 9.387 4.619l1.837-119.55a11.885 11.885 0 0 1 11.212-11.683l43.255-2.45c4.195-.263 8.258-.397 12.075-.397h.001v5.944-5.944" fill="#080001"/><path d="M77.502 235.235c-4.302 0-8.524-.214-12.549-.634-7.118-.748-13.467-1.826-18.876-3.203-5.624-1.427-9.89-2.868-13.034-4.407-2.543-1.238-6.403-3.117-6.709-7.226a6.241 6.241 0 0 1 .228-2.209l2.775-38.466a5.941 5.941 0 0 1 7.42-5.325c4.705 1.221 9.464 2.001 14.144 2.314l.066.005c1.611.126 3.284.191 4.972.191 2.603 0 5.334-.152 8.119-.452 4.016-.43 7.711-1.596 10.989-3.468.242-.175.451-.334.631-.48-.363-.361-.869-.81-1.568-1.343-2.416-1.844-5.596-3.871-9.452-6.028-4.394-2.458-8.824-5.454-13.166-8.907a70.231 70.231 0 0 1-12.102-12.351c-3.648-4.767-6.13-10.409-7.386-16.782-.375-.86-.652-1.752-.902-2.557-.716-2.307-1.292-5.273-1.759-9.067-.464-3.718-.563-8.109-.294-13.045.276-5.075 1.258-10.304 2.917-15.543 1.696-5.363 4.494-10.776 8.318-16.087 3.899-5.411 9.235-10.259 15.863-14.411 7.343-4.704 16.075-8.193 25.953-10.37 9.498-2.089 18.599-3.395 27.055-3.882 4.823-.339 9.769-.511 14.703-.511 5.034 0 10.198.179 15.348.533a5.942 5.942 0 0 1 5.53 6.181l-2.487 58.436a6.793 6.793 0 0 1 .408 3.66c-.359 2.131-1.742 3.956-3.793 5.005a5.932 5.932 0 0 1-5.914-.287 5.941 5.941 0 0 1-2.611-3.793c-1.425-.799-3.265-1.608-5.487-2.413-3.144-1.132-6.793-2.156-10.834-3.039-2.523-.548-4.965-.827-7.251-.827-1.01 0-2.01.055-2.974.162-2.614.295-4.619 1.065-6.122 2.352-1.164.995-1.297 3.271-1.205 5.005.02.382.003.766-.05 1.145.064.13.357.627 1.383 1.39 2.527 1.884 5.955 3.863 10.196 5.888 4.939 2.362 9.947 4.784 14.894 7.2a110.532 110.532 0 0 1 16.018 9.594c5.335 3.845 9.878 8.417 13.505 13.589 3.911 5.576 6.047 12.24 6.348 19.806.003.061.004.121.004.181.059 6.221-.762 12.231-2.437 17.865-1.445 4.908-3.705 10.042-6.715 15.241-3.193 5.513-7.7 10.352-13.4 14.387-7.482 5.507-15.531 9.564-23.922 12.057-8.162 2.426-16.4 3.954-24.484 4.545-3.506.252-6.971.381-10.304.381" fill="#009444"/><path d="M123.857 35.048c-5.059 0-10.133.177-15.081.524-8.758.506-18.162 1.855-27.951 4.008-10.558 2.326-19.929 6.079-27.86 11.156-7.27 4.558-13.158 9.926-17.501 15.954-4.196 5.826-7.278 11.805-9.165 17.775-1.808 5.708-2.88 11.432-3.184 17.005-.292 5.365-.184 9.979.331 14.112.51 4.134 1.159 7.439 1.982 10.09.31.998.553 1.739.764 2.325.045.126.09.246.133.362 1.479 6.972 4.282 13.188 8.346 18.499A76.203 76.203 0 0 0 47.8 160.254c4.585 3.647 9.283 6.823 13.957 9.437l.589.331c-2.203.206-4.351.31-6.407.31a58.088 58.088 0 0 1-4.639-.182 70.948 70.948 0 0 1-13.05-2.137 11.884 11.884 0 0 0-14.841 10.649l-2.741 38.012a12.062 12.062 0 0 0-.26 3.534c.56 7.514 7.207 10.749 10.045 12.132 3.495 1.71 8.137 3.29 14.17 4.819 5.672 1.446 12.307 2.574 19.705 3.352 4.237.442 8.667.666 13.173.666 3.476 0 7.085-.134 10.728-.396 8.52-.621 17.182-2.228 25.754-4.775 9.036-2.685 17.684-7.038 25.709-12.936 6.38-4.526 11.447-9.984 15.062-16.225 3.247-5.61 5.695-11.18 7.278-16.559 1.839-6.192 2.738-12.78 2.675-19.581a21.713 21.713 0 0 0-.009-.363c-.348-8.724-2.845-16.457-7.421-22.983-4.009-5.717-9.02-10.762-14.892-14.995a116.572 116.572 0 0 0-16.889-10.115 2008.02 2008.02 0 0 0-14.932-7.218c-3.069-1.466-5.639-2.879-7.671-4.217a9.783 9.783 0 0 1 1.575-.301 21.007 21.007 0 0 1 2.299-.123c1.862 0 3.881.234 5.998.693 3.775.825 7.172 1.776 10.084 2.825 1.113.403 2.026.775 2.771 1.106a11.88 11.88 0 0 0 10.538 6.388c1.852 0 3.709-.433 5.414-1.305 3.738-1.913 6.27-5.306 6.945-9.307a12.573 12.573 0 0 0-.286-5.457l2.443-57.375c.273-6.438-4.632-11.921-11.061-12.363a230.93 230.93 0 0 0-15.756-.547m0 11.886c4.93 0 9.91.173 14.942.519l-2.562 60.189c-.304-.317-.73-.665-1.277-1.041-1.965-1.344-4.662-2.636-8.084-3.876-3.427-1.233-7.291-2.318-11.59-3.256-2.958-.643-5.798-.964-8.519-.964a32.82 32.82 0 0 0-3.632.198c-3.8.429-6.912 1.674-9.329 3.745-2.423 2.071-3.513 5.35-3.274 9.834-.37 2.541.872 4.87 3.722 6.988 2.846 2.123 6.575 4.283 11.181 6.482 4.602 2.201 9.554 4.592 14.845 7.177a104.163 104.163 0 0 1 15.155 9.076c4.811 3.467 8.849 7.526 12.111 12.179 3.263 4.652 5.02 10.196 5.276 16.631.053 5.66-.679 11.031-2.191 16.115-1.325 4.503-3.38 9.153-6.162 13.958-2.785 4.809-6.698 8.988-11.735 12.546-6.975 5.141-14.358 8.867-22.137 11.179-7.783 2.313-15.524 3.752-23.223 4.313-3.375.244-6.666.366-9.873.366-4.114 0-8.091-.201-11.931-.602-6.838-.718-12.847-1.732-18.026-3.051-5.183-1.315-9.147-2.644-11.888-3.986-2.747-1.337-3.825-2.204-3.244-2.604l2.852-39.532a82.49 82.49 0 0 0 15.24 2.492c1.773.139 3.586.208 5.435.208 2.831 0 5.749-.162 8.755-.486 4.97-.532 9.492-1.991 13.567-4.37 3.098-2.173 4.448-4.139 4.043-5.891-.411-1.752-1.937-3.639-4.59-5.663-2.652-2.023-6.037-4.186-10.155-6.49-4.119-2.303-8.242-5.09-12.369-8.371a63.982 63.982 0 0 1-11.079-11.309c-3.259-4.259-5.405-9.315-6.433-15.158.001.066-.008.099-.023.099-.082 0-.375-.811-.876-2.431-.604-1.943-1.118-4.623-1.539-8.034-.424-3.407-.507-7.407-.258-11.995.251-4.585 1.131-9.275 2.65-14.072 1.514-4.792 4.007-9.594 7.475-14.408 3.466-4.811 8.205-9.098 14.219-12.862 6.786-4.353 14.803-7.55 24.053-9.588 9.245-2.034 17.966-3.286 26.156-3.755 4.723-.333 9.499-.499 14.322-.499" fill="#fff"/><path d="M200.732 231.034a5.942 5.942 0 0 1-5.934-6.256l7.115-134.459-31.949 1.992a5.943 5.943 0 0 1-6.311-6.079l1.065-42.735a5.945 5.945 0 0 1 5.585-5.784l115.234-6.925a5.941 5.941 0 0 1 6.295 5.71l1.56 41.833a5.944 5.944 0 0 1-5.526 6.15l-18.658 1.299 2.134 138.619a5.95 5.95 0 0 1-1.688 4.242 5.95 5.95 0 0 1-4.199 1.792l-64.723.601" fill="#009444"/><path d="M285.894 24.835c-.238 0-.475.007-.714.021l-115.234 6.925a11.884 11.884 0 0 0-11.168 11.567l-1.065 42.736a11.88 11.88 0 0 0 12.621 12.158l25.292-1.577-6.762 127.799a11.888 11.888 0 0 0 11.869 12.513h.11l64.667-.602a11.886 11.886 0 0 0 11.774-12.067l-2.047-132.991 13.041-.908c6.4-.445 11.291-5.889 11.052-12.299l-1.56-41.833a11.886 11.886 0 0 0-11.876-11.442m-.001 11.885l1.56 41.833-24.273 1.689 2.22 144.249-64.667.6L208.2 83.973l-38.606 2.407 1.065-42.735 115.234-6.925" fill="#fff"/><path d="M382.921 139.312l6.702-.341-3.793-17.38-2.909 17.721zm-22.69 92.874c-.176 0-.352-.008-.53-.023l-56.817-5.032a5.94 5.94 0 0 1-5.247-7.337l43.42-176.862a5.94 5.94 0 0 1 5.629-4.524s79.675-1.914 79.723-1.914a5.941 5.941 0 0 1 5.764 4.502l44.375 177.509a5.94 5.94 0 0 1-5.152 7.352l-55.84 5.787a5.943 5.943 0 0 1-6.428-4.69l-6.35-30.281-31.182.291-5.524 30.343a5.944 5.944 0 0 1-5.841 4.879" fill="#009444"/><path d="M426.411 30.552a9.22 9.22 0 0 0-.288.004l-79.58 1.911a11.885 11.885 0 0 0-11.257 9.048l-43.421 176.862a11.887 11.887 0 0 0 10.494 14.673l56.818 5.032a11.887 11.887 0 0 0 12.742-9.71l4.644-25.511 21.399-.2 5.35 25.512a11.885 11.885 0 0 0 12.857 9.383l55.84-5.787a11.887 11.887 0 0 0 10.305-14.705L437.938 39.555a11.884 11.884 0 0 0-11.527-9.003m-50.547 115.07l21.059-1.074-11.92-54.612-9.139 55.686m50.544-103.185l44.376 177.509-55.84 5.788-7.349-35.048-40.965.381-6.404 35.176-56.818-5.031 43.42-176.864 79.58-1.911" fill="#fff"/><path d="M486.609 228.668a5.944 5.944 0 0 1-5.939-6.135l5.688-175.05a5.94 5.94 0 0 1 5.355-5.72l55.55-5.49a5.941 5.941 0 0 1 6.041 3.561l24.372 56.527 22.654-54.084a5.941 5.941 0 0 1 4.9-3.619l52.626-5.171a5.938 5.938 0 0 1 4.429 1.386 5.947 5.947 0 0 1 2.083 4.148l11.635 181.325a5.94 5.94 0 0 1-5.929 6.323c-.065 0-.128 0-.193-.003l-63.229-2.045a5.943 5.943 0 0 1-5.75-5.989l.209-25.415-1.089 3.599a5.942 5.942 0 0 1-5.686 4.221l-29.975-.601a5.94 5.94 0 0 1-5.412-3.77l-5.258-13.391-.295 36.884a5.943 5.943 0 0 1-5.688 5.89l-60.844 2.614c-.085.004-.17.005-.255.005" fill="#009444"/><path d="M658.438 27.516c-.387 0-.774.019-1.163.057l-52.627 5.171a11.887 11.887 0 0 0-9.8 7.236l-17.251 41.188-18.836-43.687a11.885 11.885 0 0 0-12.083-7.122l-55.55 5.49a11.886 11.886 0 0 0-10.71 11.442L474.73 222.34a11.888 11.888 0 0 0 12.39 12.26l60.843-2.614c6.323-.272 11.324-5.451 11.375-11.779l.12-14.94a11.87 11.87 0 0 0 4.783 1.11l29.855.6.241.002c.241 0 .48-.007.719-.022l-.096 11.627c-.053 6.451 5.051 11.768 11.5 11.977l63.229 2.045a11.89 11.89 0 0 0 8.921-3.609 11.889 11.889 0 0 0 3.324-9.031L670.298 38.64a11.882 11.882 0 0 0-4.165-8.295 11.882 11.882 0 0 0-7.695-2.829m-.001 11.885l11.636 181.326-63.229-2.046.55-66.726-13.06 43.139-29.854-.599-16.485-41.988-.542 67.605-60.844 2.614 5.688-175.049 55.55-5.491 29.908 69.368 28.056-66.981 52.626-5.172" fill="#fff"/><path d="M758.525 129.656c5.594-1.905 9.187-4.847 10.966-8.973 2.061-4.774 2.71-11.231 1.933-19.209-2.149-4.017-4.786-6.801-8.037-8.495a28.91 28.91 0 0 0-5.437-2.174l.575 38.851zm-69.143 96.834a5.948 5.948 0 0 1-4.257-1.795 5.95 5.95 0 0 1-1.682-4.383l7.346-185.6a5.945 5.945 0 0 1 5.937-5.707c.111 0 .222.003.333.01l44.797 2.51c11.252.7 21.014 2.044 29.052 3.994 8.174 1.991 15.26 4.569 21.066 7.665 5.962 3.18 11.005 6.996 14.993 11.343a109.139 109.139 0 0 1 10.34 13.217c.156.233.295.478.416.731 3.012 6.305 5.212 13.514 6.536 21.424 1.083 6.544 1.623 14.401 1.607 23.364-.021 9.171-1.525 19.395-4.47 30.391a2.963 2.963 0 0 1-.018.066c-1.864 6.652-4.304 12.228-7.251 16.572-2.879 4.242-5.575 7.513-8.242 10.002-2.74 2.562-6.075 4.8-9.908 6.648a7.22 7.22 0 0 1-.443.192 148.09 148.09 0 0 0-8.547 3.595 121.94 121.94 0 0 1-9.192 3.775c-3.287 1.201-6.923 2.203-10.802 2.972-2.335.466-4.888.804-7.633 1.012l.042 31.162a5.942 5.942 0 0 1-5.859 5.951l-64.161.889" fill="#009444"/><path d="M696.726 23.062a11.89 11.89 0 0 0-11.875 11.415l-7.345 185.601a11.885 11.885 0 0 0 11.875 12.355l.165-.001 64.079-.889c6.505-.09 11.729-5.394 11.72-11.9l-.035-25.843a60.42 60.42 0 0 0 2.852-.497c4.166-.827 8.099-1.911 11.678-3.219a128.368 128.368 0 0 0 9.634-3.958 142.416 142.416 0 0 1 8.197-3.448c.3-.115.595-.243.886-.383 4.375-2.108 8.208-4.688 11.392-7.664 2.986-2.787 5.964-6.389 9.095-11.001 3.355-4.945 5.991-10.933 8.056-18.306l.036-.132c3.078-11.493 4.65-22.23 4.673-31.912.016-9.296-.551-17.483-1.685-24.339-1.42-8.481-3.787-16.221-7.039-23.027-.242-.507-.52-.996-.831-1.464a115.182 115.182 0 0 0-10.903-13.934c-4.448-4.849-10.024-9.078-16.577-12.574-6.249-3.332-13.803-6.088-22.457-8.195-8.383-2.035-18.493-3.431-30.055-4.151l-.073-.005-44.797-2.51a12.397 12.397 0 0 0-.666-.019m55.967 114.081a203.32 203.32 0 0 0 3.36-.617 23.929 23.929 0 0 0 3.356-.908c7.778-2.414 12.961-6.605 15.539-12.582 2.579-5.973 3.334-13.736 2.271-23.286-2.786-5.63-6.481-9.642-11.086-12.041-4.608-2.394-9.352-3.668-14.228-3.819l.788 53.253M696.727 34.948l44.797 2.511c10.929.68 20.256 1.96 27.982 3.836 7.722 1.88 14.278 4.256 19.673 7.132 5.39 2.877 9.861 6.251 13.409 10.118a102.851 102.851 0 0 1 9.773 12.492c2.783 5.827 4.798 12.443 6.038 19.843 1.031 6.237 1.539 13.695 1.524 22.373-.02 8.683-1.439 18.304-4.267 28.864-1.7 6.066-3.848 11.01-6.446 14.838-2.599 3.829-5.058 6.828-7.379 8.994-2.321 2.171-5.134 4.049-8.434 5.64a152.67 152.67 0 0 0-8.891 3.74 115.465 115.465 0 0 1-8.746 3.592c-3.016 1.103-6.322 2.012-9.924 2.727-3.605.719-7.744 1.096-12.426 1.14l.05 36.871-64.079.888 7.346-185.599" fill="#fff"/><path d="M829.243 224.896a5.943 5.943 0 0 1-5.94-6.111l5.073-178.262a5.943 5.943 0 0 1 5.843-5.773l122.986-2.021c1.611 0 3.155.654 4.275 1.816a5.938 5.938 0 0 1 1.659 4.435c-.5 9.627-.91 18.274-1.221 25.702a347.23 347.23 0 0 0-.347 9.4c-.073 3.049-.143 5.791-.217 8.24a181.022 181.022 0 0 0-.072 7.522 5.944 5.944 0 0 1-5.859 5.998l-54.946.775.038 4.16 39.464-.874a5.942 5.942 0 0 1 5.921 6.439l-3.689 43.929a5.94 5.94 0 0 1-5.665 5.44l-37.901 1.634-.12 2.247a7369.82 7369.82 0 0 0 27.198-.737l.117-.002a498.12 498.12 0 0 0 12.285-.258c3.984-.134 7.581-.263 10.786-.393 3.324-.13 7.075-.215 11.159-.253h.056a5.942 5.942 0 0 1 5.94 5.788l1.367 52.662a5.945 5.945 0 0 1-5.833 6.096l-132.357 2.401" fill="#009444"/><path d="M957.208 26.786h-.003l-.237.002-122.847 2.021c-6.356.104-11.505 5.191-11.685 11.546l-5.073 178.261a11.883 11.883 0 0 0 11.88 12.223c.072 0 .144 0 .216-.002l132.249-2.4a11.888 11.888 0 0 0 11.666-12.192l-1.368-52.662c-.167-6.447-5.444-11.577-11.879-11.577l-.112.001c-4.145.038-7.955.125-11.326.257l-.784.031c.108-.497.185-1.007.228-1.526l3.669-43.69a11.98 11.98 0 0 0-.627-5.234l4.332-.062c6.542-.092 11.778-5.453 11.718-11.995-.025-2.622-.002-5.066.069-7.264.068-2.281.137-4.908.218-8.291.066-2.914.18-6.005.34-9.206l.004-.097c.307-7.351.713-15.905 1.207-25.427.019-.275.028-.552.028-.832 0-6.564-5.319-11.885-11.883-11.885m-17.229 79.059h.003m17.223-67.174c-.497 9.565-.906 18.151-1.224 25.763a347.31 347.31 0 0 0-.351 9.514c-.072 3.027-.143 5.758-.216 8.196-.078 2.442-.1 5.026-.075 7.755l-60.86.859.15 16.094 45.35-1.007-3.689 43.929-43.293 1.866-.746 14.053c12.479-.308 23.697-.609 33.644-.898 4.289-.04 8.435-.123 12.434-.261 3.996-.134 7.607-.264 10.824-.394 3.219-.126 6.875-.21 10.972-.248l1.367 52.662-132.249 2.4 5.073-178.262 122.889-2.021m0 0h.003" fill="#fff"/><path d="M1043.43 118.007c3.588-1.608 5.963-3.782 7.23-6.604 1.664-3.711 2.21-8.851 1.625-15.287-1.562-3.126-3.52-5.235-5.966-6.431a26.633 26.633 0 0 0-3.36-1.371l.471 29.693zm36.046 110.122a5.946 5.946 0 0 1-3.765-1.344l-31.294-25.626-.016 15.855a5.946 5.946 0 0 1-6.127 5.934l-57.958-1.802a5.941 5.941 0 0 1-5.757-6.031l2.734-177.948a5.942 5.942 0 0 1 5.606-5.841l43.287-2.451c4.05-.256 8.002-.386 11.707-.386 6.519 0 12.54.404 17.896 1.201 8.529 1.274 15.97 3.336 22.119 6.127 6.264 2.847 11.673 6.426 16.079 10.641a79.447 79.447 0 0 1 11.197 13.342c.032.048.064.098.095.148 2.576 4.129 4.703 10.449 6.503 19.321 1.718 8.495 2.43 17.906 2.12 27.977-.322 10.225-2.263 20.489-5.771 30.509-2.876 8.208-7.298 15.356-13.184 21.329l21.065 17.884a5.944 5.944 0 0 1 .786 8.253l-32.689 40.688a5.945 5.945 0 0 1-4.633 2.22" fill="#009444"/><path d="M1037.89 22.546v11.885-11.885h-.001c-3.817 0-7.88.134-12.075.397l-43.255 2.449a11.886 11.886 0 0 0-11.212 11.684l-2.735 177.948c-.1 6.49 5.027 11.86 11.515 12.062l57.958 1.802a11.883 11.883 0 0 0 12.255-11.868l.003-3.324 21.599 17.686a11.883 11.883 0 0 0 16.795-1.751l32.69-40.688c4.033-5.019 3.335-12.337-1.574-16.504l-16.434-13.953c4.424-5.527 7.876-11.801 10.316-18.764 3.709-10.596 5.762-21.458 6.103-32.286.325-10.534-.427-20.403-2.234-29.34-1.973-9.722-4.288-16.485-7.287-21.293a9.95 9.95 0 0 0-.19-.296 85.425 85.425 0 0 0-12.033-14.341c-4.894-4.681-10.858-8.635-17.729-11.758-6.656-3.021-14.628-5.24-23.698-6.595-5.652-.841-11.967-1.267-18.777-1.267m-.285 103.167c.972-.2 1.899-.406 2.775-.61.876-.201 1.798-.405 2.775-.612 6.417-2.204 10.723-5.754 12.922-10.654 2.195-4.895 2.867-11.339 2.015-19.334-2.194-4.853-5.247-8.24-9.166-10.156-3.923-1.912-7.928-2.949-12.026-3.107l.705 44.473m.284-91.282c6.26 0 11.932.38 17.022 1.137 8.008 1.197 14.852 3.08 20.537 5.661 5.68 2.581 10.488 5.755 14.428 9.523a73.193 73.193 0 0 1 10.357 12.341c2.177 3.49 4.082 9.28 5.721 17.358 1.635 8.082 2.302 16.952 2.004 26.611-.303 9.66-2.117 19.238-5.439 28.73-3.328 9.495-8.865 17.301-16.61 23.418l26.252 22.289-32.688 40.688-40.989-33.565-.03 28.386-57.958-1.802 2.735-177.947 43.287-2.452a181.92 181.92 0 0 1 11.371-.376" fill="#fff"/><path d="M98.361 376.585a5.092 5.092 0 0 1-5.086-5.362l3.897-73.667-16.008.999a5.094 5.094 0 0 1-5.408-5.211l.598-24.037a5.095 5.095 0 0 1 4.787-4.958l64.815-3.894a5.097 5.097 0 0 1 5.395 4.894l.877 23.53a5.093 5.093 0 0 1-4.736 5.271l-8.839.614 1.174 76.31a5.096 5.096 0 0 1-5.046 5.172l-36.42.339" fill="#080001"/><path d="M146.261 255.351c-.203 0-.407.006-.611.018l-64.815 3.896a10.187 10.187 0 0 0-9.573 9.915l-.599 24.036a10.186 10.186 0 0 0 10.819 10.422l10.302-.643-3.595 67.958a10.186 10.186 0 0 0 10.172 10.726l.095-.001 36.373-.338a10.193 10.193 0 0 0 7.197-3.073 10.183 10.183 0 0 0 2.894-7.271l-1.1-71.486 4.025-.279a10.187 10.187 0 0 0 9.473-10.542l-.877-23.53a10.186 10.186 0 0 0-10.18-9.808m0 10.187l.876 23.53-13.651.95 1.248 81.135-36.372.339 4.198-79.377-21.713 1.356.599-24.037 64.815-3.896" fill="#080001"/><path d="M197.489 311.512c.469-.514.666-.951.769-1.181.771-1.723 1.044-4.265.795-7.386-.503-.936-1.077-1.64-1.734-2.128l.17 10.695zm18.574 66.942a5.1 5.1 0 0 1-3.227-1.153l-14.745-12.074-.005 5.225a5.09 5.09 0 0 1-5.093 5.088c-.053 0-.106 0-.159-.002l-32.6-1.014a5.094 5.094 0 0 1-4.934-5.169l1.538-100.089a5.092 5.092 0 0 1 4.805-5.007l24.348-1.38c2.304-.144 4.565-.219 6.686-.219 3.753 0 7.225.234 10.321.695 4.958.74 9.3 1.945 12.908 3.584 3.705 1.683 6.911 3.808 9.531 6.314a46.451 46.451 0 0 1 6.544 7.799l.083.128c1.561 2.505 2.832 6.248 3.886 11.445.993 4.91 1.406 10.338 1.227 16.138-.187 5.93-1.311 11.878-3.342 17.683-1.49 4.251-3.681 8.024-6.538 11.272l10.45 8.873a5.094 5.094 0 0 1 .675 7.073l-18.387 22.886a5.094 5.094 0 0 1-3.972 1.904" fill="#080001"/><path d="M192.678 257.566h-.001c-2.217 0-4.573.077-7.003.229l-24.319 1.377a10.19 10.19 0 0 0-9.611 10.015l-1.538 100.089c-.085 5.563 4.309 10.166 9.87 10.339l32.6 1.014a10.19 10.19 0 0 0 9.395-5.56l7.538 6.173a10.19 10.19 0 0 0 14.396-1.502l18.387-22.886a10.188 10.188 0 0 0-1.349-14.147l-6.765-5.743a39.71 39.71 0 0 0 4.363-8.83c2.204-6.301 3.424-12.762 3.627-19.207.191-6.201-.255-12.023-1.325-17.31-1.194-5.889-2.642-10.06-4.557-13.132a13.91 13.91 0 0 0-.165-.256 51.612 51.612 0 0 0-7.26-8.654c-3.039-2.907-6.721-5.353-10.947-7.273-4.041-1.835-8.838-3.175-14.261-3.985-3.349-.498-7.073-.751-11.075-.751m-.163 61.53a57.547 57.547 0 0 0 1.56-.344c.494-.112 1.012-.227 1.561-.343 3.61-1.239 6.032-3.237 7.268-5.993 1.235-2.754 1.613-6.378 1.134-10.874-1.234-2.73-2.952-4.635-5.155-5.713-2.207-1.075-4.46-1.659-6.765-1.748l.397 25.015m.162-51.343c3.52 0 6.71.213 9.571.639 4.505.673 8.355 1.733 11.552 3.185 3.195 1.452 5.899 3.237 8.115 5.356a41.21 41.21 0 0 1 5.826 6.941c1.224 1.964 2.296 5.22 3.217 9.764.92 4.546 1.295 9.535 1.128 14.968-.172 5.433-1.192 10.82-3.059 16.159-1.872 5.341-4.987 9.731-9.343 13.172l14.766 12.537-18.387 22.886-23.054-18.88-.016 15.966-32.6-1.013 1.538-100.09 24.347-1.378c2.242-.141 4.375-.212 6.399-.212" fill="#080001"/><path d="M235.784 375.142a5.095 5.095 0 0 1-5.092-5.238l2.853-100.266a5.095 5.095 0 0 1 5.009-4.949l69.203-1.137a5.095 5.095 0 0 1 5.087 5.357 1486.8 1486.8 0 0 0-.686 14.441 190.727 190.727 0 0 0-.193 5.251 794.622 794.622 0 0 1-.123 4.649 98.614 98.614 0 0 0-.039 4.163 5.094 5.094 0 0 1-5.022 5.14l-5.319.076a5.092 5.092 0 0 1 1.683 4.226l-2.076 24.709a5.074 5.074 0 0 1-1.037 2.679c1.058-.039 2.054-.077 2.99-.114 1.905-.075 4.034-.123 6.332-.144h.048a5.094 5.094 0 0 1 5.091 4.961l.768 29.62a5.093 5.093 0 0 1-5 5.226l-74.477 1.35" fill="#080001"/><path d="M307.76 258.458h-.003l-.198.003-69.089 1.135a10.188 10.188 0 0 0-10.016 9.896l-2.853 100.267a10.186 10.186 0 0 0 10.182 10.477l.186-.002 74.385-1.35a10.185 10.185 0 0 0 9.999-10.45l-.769-29.621c-.143-5.525-4.666-9.922-10.182-9.922h-.095c-1.001.009-1.971.023-2.905.043l1.797-21.396c4.961-.726 8.743-5.022 8.696-10.171a95.107 95.107 0 0 1 .038-3.944c.042-1.41.082-2.966.123-4.69.037-1.622.099-3.327.188-5.086l.004-.085c.172-4.118.399-8.892.672-14.193.018-.239.026-.48.026-.723 0-5.627-4.559-10.188-10.186-10.188m-9.691 47.97h.003m9.685-37.782c-.279 5.379-.508 10.209-.688 14.491-.093 1.868-.159 3.65-.197 5.351-.04 1.702-.081 3.238-.121 4.609a103.022 103.022 0 0 0-.042 4.363l-34.232.483.085 9.052 25.507-.567-2.076 24.71-24.35 1.049-.42 7.904c7.019-.173 13.33-.342 18.924-.505a274.59 274.59 0 0 0 6.994-.147 885.68 885.68 0 0 0 6.088-.221c1.81-.071 3.867-.119 6.171-.14l.769 29.621-74.386 1.35 2.854-100.266 69.12-1.137m0 0h.003" fill="#080001"/><path d="M316.923 374.388a5.09 5.09 0 0 1-5.091-5.239l2.853-100.266a5.094 5.094 0 0 1 5.008-4.948l69.204-1.138a5.092 5.092 0 0 1 5.087 5.358c-.278 5.341-.508 10.199-.686 14.44a195.042 195.042 0 0 0-.194 5.254c-.042 1.72-.082 3.266-.123 4.646-.04 1.278-.054 2.676-.04 4.164a5.093 5.093 0 0 1-5.022 5.139l-5.319.076a5.09 5.09 0 0 1 1.683 4.226l-2.075 24.71a5.07 5.07 0 0 1-1.037 2.678 652.17 652.17 0 0 0 2.99-.114 215.33 215.33 0 0 1 6.332-.144h.048a5.094 5.094 0 0 1 5.091 4.961l.769 29.621a5.094 5.094 0 0 1-4.999 5.225l-74.479 1.351" fill="#080001"/><path d="M388.9 257.703h-.003l-.198.002-69.091 1.137a10.186 10.186 0 0 0-10.015 9.896l-2.853 100.266a10.187 10.187 0 0 0 10.368 10.475l74.386-1.35a10.184 10.184 0 0 0 9.999-10.449l-.769-29.621c-.144-5.526-4.667-9.922-10.182-9.923l-.095.001c-1.002.009-1.972.023-2.907.042l1.797-21.395c4.962-.727 8.745-5.023 8.698-10.172a97.04 97.04 0 0 1 .037-3.944c.042-1.41.082-2.966.124-4.69.036-1.622.099-3.326.187-5.086l.004-.084c.173-4.137.4-8.911.673-14.191.018-.24.026-.482.026-.726 0-5.627-4.559-10.188-10.186-10.188m-9.692 47.97h.003m9.686-37.782c-.28 5.38-.509 10.209-.688 14.491a195.948 195.948 0 0 0-.198 5.351c-.04 1.703-.08 3.239-.121 4.61a106.45 106.45 0 0 0-.042 4.362l-34.232.484.084 9.051 25.508-.567-2.075 24.711-24.351 1.049-.42 7.904c7.02-.174 13.329-.343 18.924-.505 2.413-.022 4.744-.07 6.993-.147 2.248-.075 4.279-.148 6.089-.222a206.89 206.89 0 0 1 6.172-.14l.769 29.621-74.386 1.35 2.853-100.266 69.121-1.137m0 0h.003M461.568 374.925c-2.479 0-4.916-.123-7.241-.365-4.087-.43-7.742-1.051-10.866-1.847-3.278-.831-5.788-1.683-7.669-2.602-1.571-.766-4.508-2.196-4.752-5.514a5.173 5.173 0 0 1 .138-1.626l1.552-21.504a5.093 5.093 0 0 1 6.36-4.563c2.539.66 5.108 1.08 7.635 1.251.915.071 1.809.105 2.712.105a41.15 41.15 0 0 0 4.38-.245 14.561 14.561 0 0 0 3.465-.784 52.877 52.877 0 0 0-3.793-2.312c-2.555-1.429-5.126-3.168-7.642-5.169a41.184 41.184 0 0 1-7.108-7.254c-2.187-2.857-3.683-6.225-4.452-10.017a15.385 15.385 0 0 1-.489-1.402c-.436-1.399-.781-3.168-1.057-5.408-.277-2.222-.335-4.726-.176-7.645.164-3.003.743-6.09 1.722-9.178 1.007-3.189 2.664-6.4 4.924-9.541 2.334-3.235 5.505-6.118 9.43-8.576 4.261-2.733 9.37-4.779 15.136-6.05 5.428-1.194 10.636-1.941 15.48-2.22 2.749-.194 5.568-.292 8.378-.292 2.875 0 5.821.103 8.759.305a5.092 5.092 0 0 1 4.739 5.297l-1.383 32.514a5.597 5.597 0 0 1 .192 2.628c-.295 1.751-1.411 3.24-3.063 4.085a5.087 5.087 0 0 1-7.047-2.639 22.76 22.76 0 0 0-2.227-.925c-1.696-.611-3.675-1.166-5.872-1.646-1.296-.281-2.545-.425-3.705-.425-.504 0-1.001.027-1.478.08-1.077.123-1.88.407-2.448.872-.06.15-.164.603-.119 1.432l.003.084.042.03c1.333.995 3.163 2.049 5.444 3.137 2.605 1.246 5.401 2.597 8.392 4.057a63.87 63.87 0 0 1 9.266 5.549c3.157 2.275 5.85 4.986 8.005 8.059 2.397 3.417 3.705 7.48 3.888 12.077.002.052.003.103.003.155.034 3.674-.451 7.228-1.443 10.563-.852 2.894-2.179 5.91-3.942 8.952-1.92 3.315-4.62 6.22-8.026 8.634-4.367 3.212-9.071 5.581-13.981 7.04-4.714 1.401-9.472 2.284-14.145 2.624a82.778 82.778 0 0 1-5.921.219" fill="#080001"/><path d="M487.635 257.073c-2.918 0-5.845.101-8.7.302-5.105.297-10.573 1.08-16.251 2.329-6.338 1.397-11.986 3.663-16.793 6.737-4.465 2.802-8.101 6.127-10.808 9.882-2.581 3.585-4.482 7.281-5.655 10.993-1.104 3.486-1.761 6.998-1.949 10.428-.175 3.228-.107 6.028.208 8.561.313 2.534.721 4.592 1.246 6.282.189.612.342 1.074.477 1.452.955 4.332 2.729 8.213 5.285 11.553a46.483 46.483 0 0 0 5.981 6.46c-.103-.025-.205-.052-.307-.079a10.187 10.187 0 0 0-8.499 1.584 10.185 10.185 0 0 0-4.221 7.545l-1.526 21.153c-.172.885-.23 1.797-.163 2.716.459 6.24 5.841 8.861 7.61 9.722 2.182 1.068 5.015 2.038 8.643 2.958 3.352.854 7.251 1.519 11.578 1.974 2.508.261 5.121.393 7.776.393 2.04 0 4.155-.078 6.286-.231 5.045-.368 10.167-1.317 15.231-2.822 5.464-1.624 10.682-4.246 15.515-7.795 3.988-2.834 7.167-6.267 9.45-10.209 1.965-3.393 3.453-6.783 4.424-10.079 1.129-3.797 1.686-7.856 1.647-12.037-.002-.103-.004-.207-.008-.309-.222-5.591-1.839-10.57-4.807-14.801-2.481-3.538-5.576-6.655-9.197-9.265-.384-.276-.77-.548-1.158-.816l.249-.123c3.099-1.586 5.2-4.419 5.766-7.773.227-1.348.19-2.703-.094-4.009l1.352-31.763a10.187 10.187 0 0 0-9.478-10.596 133.4 133.4 0 0 0-9.11-.317m6.969 44.335c.442.46.428.811-.045 1.053l.045-1.053m-6.969-34.148c2.774 0 5.578.099 8.41.293l-1.441 33.855a4.7 4.7 0 0 0-.718-.586c-1.106-.757-2.622-1.483-4.548-2.18-1.926-.695-4.101-1.304-6.518-1.832-1.665-.362-3.262-.542-4.792-.542-.695 0-1.375.037-2.043.111-2.137.242-3.888.942-5.247 2.107-1.363 1.165-1.976 3.01-1.842 5.53-.208 1.43.491 2.741 2.094 3.932 1.602 1.194 3.698 2.409 6.289 3.645a1181.17 1181.17 0 0 1 8.35 4.037 58.53 58.53 0 0 1 8.524 5.105c2.706 1.95 4.977 4.234 6.812 6.851 1.835 2.616 2.824 5.734 2.968 9.354.03 3.184-.382 6.205-1.233 9.064-.745 2.532-1.902 5.149-3.466 7.851-1.567 2.704-3.767 5.055-6.6 7.056-3.923 2.892-8.075 4.988-12.452 6.289-4.377 1.301-8.732 2.111-13.063 2.426a77.096 77.096 0 0 1-5.552.205c-2.314 0-4.551-.112-6.711-.338-3.846-.404-7.226-.974-10.139-1.716-2.915-.74-5.145-1.488-6.688-2.243-1.544-.752-2.151-1.24-1.823-1.464l1.603-22.236c2.86.743 5.716 1.21 8.573 1.402a39.15 39.15 0 0 0 3.054.117 45.84 45.84 0 0 0 4.928-.274c2.795-.298 5.339-1.119 7.631-2.457 1.742-1.223 2.5-2.328 2.273-3.313-.229-.986-1.088-2.048-2.581-3.186-1.491-1.138-3.396-2.355-5.712-3.65-2.317-1.296-4.636-2.863-6.957-4.709a35.97 35.97 0 0 1-6.232-6.361c-1.832-2.396-3.039-5.239-3.619-8.526.001.038-.004.057-.013.057-.045 0-.21-.457-.492-1.369-.34-1.092-.629-2.6-.866-4.519-.238-1.916-.285-4.165-.145-6.746.141-2.579.636-5.216 1.491-7.915.852-2.696 2.254-5.396 4.203-8.104 1.951-2.706 4.617-5.118 7.998-7.235 3.818-2.448 8.328-4.246 13.53-5.392 5.2-1.144 10.106-1.848 14.712-2.112 2.655-.188 5.339-.282 8.05-.282" fill="#080001"/><path d="M511.623 372.577a5.094 5.094 0 0 1-5.092-5.239l2.853-100.266a5.094 5.094 0 0 1 5.008-4.948l69.204-1.137a5.095 5.095 0 0 1 5.086 5.357 1452.68 1452.68 0 0 0-.685 14.44 187.13 187.13 0 0 0-.193 5.251 887.485 887.485 0 0 1-.123 4.649c-.041 1.272-.054 2.63-.04 4.164a5.092 5.092 0 0 1-5.022 5.14l-5.319.075a5.09 5.09 0 0 1 1.683 4.226l-2.075 24.71a5.07 5.07 0 0 1-1.037 2.678 652.17 652.17 0 0 0 2.99-.114 215.56 215.56 0 0 1 6.33-.144h.049a5.094 5.094 0 0 1 5.091 4.961l.768 29.621a5.09 5.09 0 0 1-4.999 5.225l-74.477 1.351" fill="#080001"/><path d="M583.599 255.893h-.003l-.198.002-69.09 1.136a10.187 10.187 0 0 0-10.016 9.896l-2.853 100.267a10.188 10.188 0 0 0 10.183 10.476l.185-.001 74.386-1.35a10.193 10.193 0 0 0 7.176-3.143 10.192 10.192 0 0 0 2.823-7.308l-.77-29.62c-.143-5.526-4.665-9.923-10.182-9.923h-.097c-1.003.01-1.972.024-2.903.043l1.797-21.394c4.962-.727 8.744-5.023 8.697-10.173a97.02 97.02 0 0 1 .037-3.944c.042-1.409.083-2.965.124-4.69.037-1.62.099-3.325.187-5.086l.004-.084c.173-4.118.399-8.892.673-14.193.017-.239.025-.48.025-.724 0-5.626-4.559-10.187-10.185-10.187m-9.692 47.969h.003m9.686-37.782c-.279 5.38-.509 10.21-.688 14.492a191.82 191.82 0 0 0-.197 5.35 804.773 804.773 0 0 1-.122 4.61 106.48 106.48 0 0 0-.042 4.363l-34.231.482.084 9.052 25.507-.567-2.075 24.71-24.35 1.05-.42 7.904c7.018-.173 13.329-.343 18.924-.506 2.412-.021 4.743-.069 6.993-.147 2.248-.075 4.279-.147 6.089-.221 1.81-.07 3.867-.118 6.171-.139l.769 29.62-74.386 1.35 2.854-100.266 69.12-1.137m0 0h.003" fill="#080001"/><path d="M633.795 307.455c.469-.515.666-.951.769-1.182.772-1.722 1.045-4.265.796-7.386-.504-.936-1.078-1.64-1.735-2.129l.17 10.697zm18.575 66.941a5.097 5.097 0 0 1-3.228-1.153l-14.745-12.075-.005 5.226a5.092 5.092 0 0 1-5.093 5.088c-.053 0-.106 0-.159-.002l-32.6-1.013a5.094 5.094 0 0 1-4.934-5.17l1.538-100.089a5.094 5.094 0 0 1 4.806-5.007l24.347-1.379c2.305-.145 4.565-.22 6.686-.22 3.753 0 7.225.234 10.322.695 4.958.74 9.299 1.946 12.907 3.584 3.703 1.683 6.909 3.807 9.53 6.313a46.565 46.565 0 0 1 6.546 7.8l.082.128c1.563 2.508 2.834 6.252 3.887 11.446.993 4.903 1.406 10.332 1.227 16.137-.187 5.93-1.311 11.879-3.343 17.684-1.49 4.251-3.68 8.023-6.538 11.271l10.451 8.873a5.094 5.094 0 0 1 .674 7.073l-18.387 22.886a5.092 5.092 0 0 1-3.971 1.904" fill="#080001"/><path d="M628.985 253.508h-.001c-2.217 0-4.574.078-7.004.23l-24.318 1.377a10.188 10.188 0 0 0-9.611 10.014l-1.538 100.089c-.086 5.563 4.309 10.166 9.869 10.339l32.6 1.014a10.185 10.185 0 0 0 9.396-5.56l7.538 6.173a10.184 10.184 0 0 0 14.396-1.501l18.386-22.887a10.186 10.186 0 0 0-1.348-14.146l-6.765-5.744a39.732 39.732 0 0 0 4.363-8.83c2.204-6.299 3.424-12.76 3.627-19.207.191-6.201-.255-12.022-1.325-17.31-1.194-5.887-2.642-10.059-4.558-13.132a8.53 8.53 0 0 0-.165-.255 51.54 51.54 0 0 0-7.26-8.655c-3.041-2.908-6.722-5.353-10.947-7.272-4.04-1.836-8.837-3.176-14.26-3.986-3.349-.498-7.073-.751-11.075-.751m-.163 61.53a62.729 62.729 0 0 0 1.56-.343c.493-.113 1.012-.227 1.561-.344 3.609-1.239 6.032-3.237 7.269-5.993 1.234-2.753 1.611-6.378 1.133-10.873-1.234-2.731-2.952-4.636-5.156-5.714-2.206-1.075-4.459-1.658-6.765-1.748l.398 25.015m.162-51.342c3.52 0 6.709.212 9.571.638 4.504.673 8.355 1.733 11.552 3.185 3.195 1.452 5.899 3.237 8.115 5.356a41.218 41.218 0 0 1 5.825 6.942c1.225 1.963 2.297 5.22 3.218 9.763.921 4.546 1.295 9.535 1.128 14.968-.171 5.434-1.191 10.82-3.06 16.159-1.872 5.341-4.986 9.732-9.342 13.173l14.766 12.536-18.387 22.886-23.055-18.88-.015 15.966-32.601-1.013 1.539-100.09 24.348-1.378c2.241-.141 4.374-.212 6.398-.212" fill="#080001"/><path d="M693.016 373.688a5.093 5.093 0 0 1-4.996-4.113l-20.215-103.014a5.094 5.094 0 0 1 4.731-6.068l34.218-1.8a5.093 5.093 0 0 1 5.313 4.391L715.919 291l3.666-27.723a5.095 5.095 0 0 1 5.262-4.421l35.566 1.48a5.094 5.094 0 0 1 4.822 5.869l-15.682 101.21a5.093 5.093 0 0 1-4.84 4.31l-51.501 1.96a6.455 6.455 0 0 1-.196.003" fill="#080001"/><path d="M707.029 253.592c-.18 0-.361.005-.542.014l-34.22 1.8a10.19 10.19 0 0 0-9.461 12.135l20.216 103.015a10.19 10.19 0 0 0 10.384 8.219l51.501-1.961a10.185 10.185 0 0 0 9.679-8.62l15.683-101.209a10.185 10.185 0 0 0-9.644-11.738l-35.566-1.48a10.187 10.187 0 0 0-9.182 4.972 10.193 10.193 0 0 0-8.848-5.147m-.007 10.187l9.002 65.262 8.611-65.096 35.567 1.48-15.683 101.209-51.501 1.96-20.215-103.015 34.219-1.8" fill="#080001"/><path d="M770.513 370.334a5.093 5.093 0 0 1-5.087-5.348l4.996-99.957a5.091 5.091 0 0 1 4.732-4.827l29.937-2.09a5.093 5.093 0 0 1 5.447 5.01l1.44 101.708a5.096 5.096 0 0 1-5.045 5.165l-36.42.339" fill="#080001"/><path d="M805.446 253.006c-.236 0-.472.008-.709.025l-29.938 2.089a10.186 10.186 0 0 0-9.465 9.654l-4.995 99.958a10.186 10.186 0 0 0 10.174 10.696l.095-.001 36.373-.339a10.185 10.185 0 0 0 10.091-10.33l-1.44-101.709a10.19 10.19 0 0 0-10.186-10.043m0 10.187l1.44 101.709-36.373.339 4.995-99.958 29.938-2.09" fill="#080001"/><path d="M865.258 369.505c-4.947 0-10.141-.626-15.44-1.863-4.435-1.065-8.464-2.619-12.009-4.628-3.535-2.002-6.694-4.391-9.388-7.098-2.621-2.63-4.92-5.466-6.831-8.429-1.869-2.893-3.443-5.874-4.671-8.856-2.988-6.666-4.953-14.057-5.841-21.968-.892-7.398-.594-14.617.89-21.414.007-.035.016-.069.024-.103.689-2.871 1.653-5.858 2.865-8.879 1.281-3.192 3.043-6.325 5.239-9.311 2.199-2.991 4.944-5.824 8.157-8.42 3.247-2.623 7.164-4.899 11.64-6.762 6.477-2.78 13.548-4.417 20.964-4.842 2.513-.144 4.998-.217 7.384-.217 4.371 0 8.59.245 12.542.728a144.744 144.744 0 0 1 20.842 4.071 5.089 5.089 0 0 1 3.546 6.343l-8.933 30.534a5.093 5.093 0 0 1-8.13 2.499c-1.667-1.374-3.633-2.511-5.849-3.379-1.907-.701-4.24-1.211-6.933-1.519a12.637 12.637 0 0 0-1.401-.077c-1.9 0-3.964.424-6.133 1.261a5.388 5.388 0 0 1-.178.065c-1.457.501-2.915 1.294-4.333 2.356-1.445 1.086-2.767 2.436-3.925 4.009-1.076 1.464-1.887 3.199-2.409 5.156-.514 1.92-.638 4.097-.371 6.473 1.574 9.692 5.766 10.699 7.146 11.03.745.179 1.558.269 2.417.269 4.316 0 9.91-2.181 16.626-6.484a5.089 5.089 0 0 1 6.703 1.078l21.48 26.465a5.093 5.093 0 0 1 1.138 3.157c.03 2.812-1.913 4.134-3.332 5.099-.779.53-1.899 1.264-3.424 2.243-3.274 2.107-7.53 4.133-13.006 6.191-5.4 2.034-11.751 3.594-18.874 4.635-2.66.39-5.417.587-8.192.587" fill="#080001"/><path d="M868.242 251.621c-2.484 0-5.067.076-7.676.226-7.99.458-15.621 2.223-22.681 5.246-4.902 2.045-9.22 4.562-12.833 7.481-3.55 2.868-6.599 6.018-9.059 9.363-2.451 3.333-4.424 6.843-5.864 10.434-1.303 3.252-2.343 6.476-3.09 9.585l-.047.205c-1.604 7.343-1.93 15.119-.97 23.113.945 8.392 3.036 16.254 6.218 23.371 1.344 3.249 3.052 6.482 5.077 9.614 2.097 3.25 4.622 6.369 7.499 9.256 3.015 3.03 6.544 5.7 10.483 7.932 3.957 2.241 8.431 3.971 13.297 5.14l.065.015c5.677 1.325 11.262 1.997 16.596 1.997a61.89 61.89 0 0 0 8.931-.641c7.483-1.095 14.19-2.746 19.933-4.909 5.814-2.186 10.385-4.37 13.968-6.675a181.215 181.215 0 0 0 3.53-2.313c1.681-1.144 5.619-3.822 5.56-9.365a10.182 10.182 0 0 0-2.277-6.313l-21.479-26.465a10.178 10.178 0 0 0-7.916-3.768c-1.89 0-3.795.524-5.49 1.61-7.713 4.943-12.006 5.681-13.878 5.681-.459 0-.871-.044-1.227-.129-1.94-.466-2.883-4.342-3.288-6.767-.178-1.692-.097-3.194.243-4.466.364-1.363.884-2.491 1.593-3.455.875-1.19 1.818-2.156 2.881-2.955.988-.74 1.975-1.283 2.929-1.612.119-.04.238-.084.355-.129 1.583-.61 3.029-.92 4.3-.92.284 0 .563.016.833.046 2.258.258 4.176.668 5.694 1.219 1.692.669 3.177 1.525 4.414 2.546a10.19 10.19 0 0 0 9.476 1.879 10.184 10.184 0 0 0 6.784-6.877l8.934-30.533a10.19 10.19 0 0 0-7.093-12.688 149.816 149.816 0 0 0-21.59-4.216c-4.132-.506-8.56-.763-13.135-.763m0 10.187c4.188 0 8.162.231 11.922.69a139.112 139.112 0 0 1 20.118 3.929l-8.933 30.534c-2.102-1.735-4.53-3.14-7.282-4.212-2.312-.856-5.034-1.461-8.165-1.818-.65-.074-1.309-.11-1.977-.11-2.54 0-5.196.534-7.966 1.602-1.969.677-3.881 1.71-5.733 3.099-1.854 1.391-3.51 3.077-4.973 5.066-1.462 1.988-2.539 4.278-3.228 6.861-.691 2.586-.855 5.414-.497 8.481 1.398 8.767 5.067 13.861 11.005 15.288 1.139.273 2.341.41 3.606.41 5.334 0 11.79-2.431 19.374-7.29l21.48 26.465c0 .111-1.472 1.112-4.417 3.003-2.945 1.896-6.959 3.798-12.045 5.709-5.084 1.914-11.024 3.369-17.818 4.363a51.332 51.332 0 0 1-7.456.533c-4.574 0-9.334-.576-14.282-1.73-3.96-.951-7.51-2.317-10.655-4.099-3.144-1.781-5.907-3.866-8.288-6.259-2.383-2.39-4.436-4.922-6.16-7.596-1.727-2.671-3.152-5.374-4.273-8.108-2.802-6.229-4.622-13.068-5.458-20.524-.834-6.905-.566-13.492.804-19.76.633-2.639 1.513-5.364 2.64-8.172 1.126-2.808 2.664-5.538 4.614-8.19 1.951-2.652 4.368-5.143 7.255-7.475 2.885-2.331 6.351-4.338 10.397-6.021 6.009-2.58 12.443-4.066 19.298-4.46 2.428-.139 4.793-.209 7.093-.209" fill="#080001"/><path d="M912.379 368.85a5.096 5.096 0 0 1-5.092-5.239l2.853-100.266a5.096 5.096 0 0 1 5.009-4.949l69.203-1.137c1.381 0 2.704.561 3.664 1.557a5.085 5.085 0 0 1 1.422 3.801c-.285 5.535-.51 10.259-.685 14.44a191.015 191.015 0 0 0-.193 5.251 890.409 890.409 0 0 1-.123 4.649 100.27 100.27 0 0 0-.04 4.164 5.092 5.092 0 0 1-5.022 5.14l-5.318.075a5.093 5.093 0 0 1 1.682 4.226l-2.075 24.71a5.063 5.063 0 0 1-1.037 2.678c1.057-.038 2.052-.077 2.989-.114 1.887-.074 4.014-.122 6.332-.144h.049a5.094 5.094 0 0 1 5.091 4.961l.768 29.621a5.098 5.098 0 0 1-1.411 3.654 5.101 5.101 0 0 1-3.588 1.571l-74.478 1.351" fill="#080001"/><path d="M984.355 252.166h-.003c-.066 0-.132 0-.198.002l-69.089 1.135a10.188 10.188 0 0 0-10.016 9.897l-2.853 100.266a10.184 10.184 0 0 0 10.182 10.477l.186-.001 74.385-1.35a10.19 10.19 0 0 0 9.999-10.451l-.769-29.62c-.143-5.526-4.666-9.923-10.182-9.923h-.098c-1.002.01-1.972.024-2.902.043l1.797-21.395a10.187 10.187 0 0 0 8.696-10.172 95.126 95.126 0 0 1 .038-3.944c.042-1.409.082-2.966.123-4.69.036-1.621.099-3.325.188-5.086l.004-.084c.172-4.119.399-8.892.672-14.193.018-.24.026-.48.026-.724 0-5.627-4.559-10.187-10.186-10.187m-9.691 47.969h.003m9.685-37.782c-.279 5.38-.508 10.21-.688 14.491a195.964 195.964 0 0 0-.197 5.351 912.85 912.85 0 0 1-.121 4.609 103.07 103.07 0 0 0-.042 4.364l-34.233.482.085 9.052 25.508-.567-2.076 24.71-24.351 1.049-.42 7.905c7.02-.174 13.331-.343 18.925-.506a274.59 274.59 0 0 0 6.994-.147c2.248-.075 4.278-.148 6.088-.221 1.81-.071 3.867-.118 6.171-.14l.769 29.621-74.386 1.35 2.854-100.266 69.12-1.137m0 0h.003" fill="#080001"/><path d="M1022.79 369.705c-2.481 0-4.917-.123-7.243-.366-4.083-.428-7.738-1.049-10.868-1.846-3.279-.831-5.789-1.683-7.67-2.605-1.566-.761-4.504-2.19-4.749-5.509a5.194 5.194 0 0 1 .138-1.629l1.55-21.502a5.088 5.088 0 0 1 2.112-3.772 5.083 5.083 0 0 1 4.249-.792 41.474 41.474 0 0 0 7.634 1.25c.917.072 1.812.106 2.715.106 1.403 0 2.876-.082 4.378-.244a14.622 14.622 0 0 0 3.465-.785 52.716 52.716 0 0 0-3.792-2.311c-2.551-1.427-5.123-3.165-7.642-5.169a41.257 41.257 0 0 1-7.109-7.254c-2.187-2.86-3.683-6.228-4.451-10.017-.218-.523-.37-1.016-.491-1.407-.433-1.394-.778-3.161-1.056-5.4-.276-2.226-.335-4.729-.176-7.65.165-3.005.745-6.091 1.723-9.177 1.008-3.192 2.665-6.404 4.924-9.541 2.331-3.233 5.502-6.118 9.429-8.576 4.262-2.733 9.37-4.779 15.136-6.05 5.429-1.193 10.638-1.941 15.483-2.221 2.747-.192 5.564-.291 8.372-.291 2.876 0 5.824.103 8.763.306a5.093 5.093 0 0 1 4.74 5.298l-1.384 32.514a5.588 5.588 0 0 1 .192 2.629c-.296 1.751-1.414 3.239-3.066 4.083a5.09 5.09 0 0 1-7.044-2.638 22.518 22.518 0 0 0-2.228-.927c-1.692-.611-3.67-1.164-5.871-1.646-1.296-.28-2.546-.424-3.706-.424-.503 0-1.001.027-1.478.08-1.074.121-1.878.406-2.448.87-.06.152-.163.605-.119 1.436l.004.08.043.033c1.332.993 3.162 2.047 5.442 3.135 2.605 1.246 5.403 2.598 8.393 4.057a64.04 64.04 0 0 1 9.265 5.549c3.16 2.277 5.853 4.989 8.006 8.06 2.396 3.415 3.704 7.479 3.886 12.076.003.052.004.103.005.156.033 3.671-.452 7.224-1.443 10.56-.853 2.895-2.18 5.91-3.941 8.953-1.923 3.318-4.623 6.222-8.028 8.636-4.369 3.212-9.072 5.58-13.98 7.04-4.717 1.401-9.476 2.284-14.146 2.623a82.157 82.157 0 0 1-5.918.219" fill="#080001"/><path d="M1048.86 251.854c-2.916 0-5.842.101-8.697.301-5.105.297-10.571 1.08-16.249 2.329-6.338 1.396-11.985 3.662-16.791 6.735-4.468 2.803-8.106 6.129-10.814 9.886-2.579 3.583-4.479 7.28-5.652 10.992-1.105 3.486-1.761 6.996-1.949 10.426-.176 3.23-.108 6.029.208 8.563.313 2.533.72 4.591 1.245 6.28.19.612.342 1.074.478 1.453.954 4.333 2.729 8.214 5.285 11.555a46.565 46.565 0 0 0 5.98 6.458c-.102-.026-.204-.051-.305-.078a10.198 10.198 0 0 0-8.5 1.583 10.188 10.188 0 0 0-4.222 7.544l-1.526 21.154c-.172.885-.23 1.799-.162 2.717.459 6.243 5.843 8.862 7.612 9.723 2.179 1.066 5.012 2.037 8.642 2.957 3.355.854 7.254 1.519 11.578 1.972 2.507.262 5.122.395 7.778.395 2.038 0 4.151-.078 6.282-.232 5.043-.367 10.165-1.316 15.232-2.821 5.459-1.623 10.677-4.245 15.512-7.794 3.988-2.834 7.168-6.268 9.452-10.209 1.967-3.398 3.454-6.788 4.424-10.081 1.13-3.799 1.686-7.857 1.646-12.038 0-.102-.003-.205-.007-.309-.222-5.589-1.839-10.568-4.806-14.799-2.482-3.538-5.576-6.655-9.197-9.265-.383-.276-.77-.548-1.159-.817.082-.039.163-.079.244-.121 3.101-1.584 5.205-4.416 5.771-7.772a10.564 10.564 0 0 0-.093-4.012l1.351-31.762a10.187 10.187 0 0 0-9.478-10.596 132.848 132.848 0 0 0-9.113-.317m6.972 44.334c.442.461.428.812-.045 1.053l.045-1.053m-6.972-34.147c2.776 0 5.58.098 8.414.293l-1.442 33.854a4.595 4.595 0 0 0-.718-.585c-1.106-.757-2.622-1.484-4.547-2.181-1.927-.694-4.101-1.304-6.519-1.832-1.664-.361-3.261-.541-4.792-.541-.695 0-1.376.036-2.043.111-2.138.241-3.887.942-5.247 2.106-1.363 1.165-1.975 3.009-1.841 5.531-.208 1.429.491 2.74 2.094 3.931 1.601 1.194 3.696 2.409 6.288 3.645 2.589 1.239 5.374 2.584 8.351 4.038a58.397 58.397 0 0 1 8.523 5.105c2.706 1.95 4.978 4.234 6.812 6.85 1.835 2.616 2.824 5.734 2.968 9.354.03 3.183-.382 6.204-1.232 9.064-.746 2.533-1.902 5.149-3.466 7.851-1.568 2.705-3.767 5.055-6.601 7.057-3.924 2.891-8.075 4.987-12.451 6.288-4.378 1.301-8.733 2.111-13.063 2.426a77.047 77.047 0 0 1-5.549.206c-2.315 0-4.553-.114-6.714-.339-3.846-.404-7.227-.975-10.14-1.716-2.914-.739-5.144-1.488-6.687-2.243-1.545-.751-2.151-1.24-1.824-1.464l1.604-22.236a46.404 46.404 0 0 0 8.572 1.403c.998.078 2.017.117 3.057.117a46.03 46.03 0 0 0 4.925-.274c2.796-.299 5.339-1.12 7.63-2.458 1.743-1.222 2.502-2.327 2.274-3.313-.23-.985-1.089-2.048-2.581-3.186s-3.395-2.355-5.712-3.649c-2.317-1.296-4.636-2.864-6.957-4.709a36.01 36.01 0 0 1-6.232-6.362c-1.832-2.395-3.039-5.239-3.618-8.525 0 .037-.004.055-.013.055-.046 0-.21-.456-.493-1.368-.339-1.092-.628-2.599-.865-4.518-.239-1.916-.286-4.166-.145-6.747.141-2.578.636-5.216 1.491-7.914.852-2.697 2.253-5.397 4.203-8.105 1.95-2.706 4.615-5.117 7.998-7.234 3.817-2.448 8.327-4.247 13.53-5.394 5.2-1.143 10.105-1.847 14.712-2.112 2.653-.186 5.337-.28 8.046-.28" fill="#080001"/><path d="M147.138 289.999l-13.652.95 1.248 81.135-36.372.339 4.198-79.377-21.713 1.356.6-24.037 64.814-3.896.877 23.53zM195.636 319.34c3.61-1.24 6.032-3.238 7.268-5.993 1.236-2.753 1.613-6.378 1.134-10.874-1.234-2.73-2.952-4.635-5.155-5.713-2.207-1.076-4.46-1.658-6.765-1.748l.397 25.015a61.749 61.749 0 0 0 1.56-.343 95.562 95.562 0 0 1 1.561-.344m38.814 32.065l-18.387 22.886-23.054-18.88-.016 15.966-32.6-1.014 1.538-100.089 24.347-1.378c6.141-.387 11.464-.244 15.97.427 4.505.673 8.355 1.733 11.552 3.185 3.195 1.452 5.899 3.236 8.115 5.356a41.138 41.138 0 0 1 5.826 6.942c1.224 1.963 2.296 5.22 3.217 9.762.92 4.547 1.295 9.536 1.128 14.969-.172 5.433-1.192 10.82-3.059 16.159-1.872 5.341-4.987 9.731-9.343 13.172l14.766 12.537zM310.17 369.629l-74.386 1.35 2.853-100.266 69.121-1.137c-.279 5.38-.51 10.21-.689 14.492-.093 1.867-.159 3.65-.196 5.351a800.148 800.148 0 0 1-.123 4.609 110.18 110.18 0 0 0-.042 4.363l-34.23.483.084 9.051 25.507-.566-2.075 24.71-24.35 1.049-.42 7.904c7.018-.173 13.329-.343 18.923-.505 2.413-.022 4.744-.069 6.994-.147 2.247-.075 4.278-.147 6.088-.222 1.81-.07 3.867-.118 6.171-.139l.77 29.62zM391.309 368.875l-74.386 1.35 2.853-100.266 69.121-1.138c-.279 5.381-.509 10.211-.689 14.492a191.762 191.762 0 0 0-.196 5.351 806.693 806.693 0 0 1-.122 4.609 106.499 106.499 0 0 0-.042 4.363l-34.232.483.084 9.052 25.508-.566-2.076 24.709-24.35 1.049-.42 7.905c7.019-.174 13.33-.343 18.925-.505 2.412-.023 4.744-.071 6.992-.148 2.249-.075 4.28-.147 6.089-.221 1.81-.071 3.867-.119 6.171-.14l.77 29.621zM439.167 311.808c.003.222-.165-.217-.506-1.312-.339-1.092-.628-2.6-.865-4.519-.238-1.916-.285-4.166-.145-6.747.141-2.578.636-5.216 1.491-7.915.852-2.695 2.254-5.395 4.204-8.103 1.95-2.706 4.615-5.118 7.998-7.235 3.816-2.448 8.327-4.246 13.529-5.392 5.2-1.145 10.106-1.849 14.712-2.113 5.372-.38 10.86-.374 16.46.012l-1.486 34.908c.655-.335.429-.881-.674-1.64-1.105-.756-2.621-1.482-4.546-2.179-1.928-.695-4.101-1.304-6.519-1.833-2.421-.524-4.697-.668-6.835-.43-2.138.241-3.887.942-5.247 2.107-1.364 1.165-1.976 3.009-1.842 5.53-.208 1.43.491 2.74 2.094 3.931 1.601 1.194 3.697 2.409 6.289 3.646a1181.17 1181.17 0 0 1 8.35 4.037 58.442 58.442 0 0 1 8.524 5.105c2.705 1.95 4.977 4.233 6.811 6.851 1.836 2.616 2.825 5.734 2.969 9.354.03 3.183-.383 6.204-1.233 9.064-.746 2.532-1.901 5.148-3.466 7.851-1.567 2.704-3.767 5.055-6.6 7.056-3.924 2.892-8.076 4.987-12.451 6.288-4.378 1.302-8.733 2.111-13.064 2.427-4.333.312-8.419.268-12.263-.133-3.846-.404-7.226-.975-10.139-1.716-2.915-.74-5.145-1.489-6.687-2.243-1.545-.753-2.151-1.24-1.824-1.464l1.603-22.236a46.567 46.567 0 0 0 8.573 1.402c2.525.198 5.186.145 7.981-.157 2.796-.299 5.339-1.119 7.631-2.457 1.743-1.223 2.501-2.328 2.274-3.314-.23-.985-1.089-2.047-2.581-3.185-1.492-1.139-3.396-2.355-5.713-3.65-2.317-1.296-4.636-2.863-6.956-4.71a35.964 35.964 0 0 1-6.232-6.36c-1.833-2.396-3.04-5.239-3.619-8.526M586.008 367.064l-74.386 1.35 2.853-100.266 69.121-1.137c-.279 5.38-.509 10.21-.688 14.491a195.886 195.886 0 0 0-.197 5.352 803.725 803.725 0 0 1-.122 4.608 106.53 106.53 0 0 0-.042 4.364l-34.231.482.084 9.052 25.508-.566-2.076 24.709-24.35 1.05-.42 7.904c7.019-.173 13.329-.343 18.924-.505 2.412-.023 4.744-.07 6.993-.148 2.248-.075 4.279-.147 6.089-.221 1.81-.071 3.867-.118 6.171-.14l.769 29.621zM631.943 315.282c3.609-1.239 6.032-3.237 7.269-5.993 1.234-2.753 1.611-6.378 1.133-10.874-1.234-2.73-2.952-4.635-5.156-5.713-2.206-1.075-4.459-1.658-6.765-1.748l.398 25.015a62.729 62.729 0 0 0 1.56-.343 93.306 93.306 0 0 1 1.561-.344m38.814 32.065l-18.387 22.886-23.055-18.88-.015 15.967-32.601-1.014 1.539-100.089 24.348-1.379c6.139-.387 11.463-.244 15.969.428 4.504.672 8.355 1.732 11.552 3.184 3.195 1.452 5.899 3.236 8.115 5.356a41.179 41.179 0 0 1 5.825 6.942c1.225 1.963 2.297 5.22 3.218 9.763.921 4.546 1.295 9.535 1.128 14.968-.171 5.433-1.191 10.82-3.06 16.159-1.872 5.341-4.986 9.731-9.342 13.172l14.766 12.537zM672.803 266.51l34.219-1.8 9.002 65.262 8.612-65.096 35.566 1.48-15.683 101.209-51.5 1.96-20.216-103.015zM806.886 365.833l-36.373.339 4.995-99.958 29.938-2.09 1.44 101.709zM906.992 351.734c.002.11-1.471 1.112-4.416 3.004-2.945 1.895-6.96 3.796-12.045 5.708-5.084 1.915-11.025 3.369-17.817 4.363-6.796.994-14.042.599-21.738-1.197-3.96-.951-7.511-2.316-10.656-4.098-3.144-1.782-5.907-3.867-8.289-6.26-2.382-2.391-4.435-4.922-6.159-7.597-1.728-2.67-3.152-5.373-4.273-8.107-2.802-6.229-4.622-13.068-5.459-20.525-.833-6.905-.565-13.491.804-19.758.634-2.64 1.514-5.364 2.64-8.173 1.127-2.809 2.665-5.538 4.615-8.19 1.951-2.652 4.369-5.144 7.255-7.475 2.885-2.331 6.351-4.338 10.397-6.021 6.009-2.58 12.443-4.067 19.298-4.46 6.853-.393 13.191-.23 19.015.482a138.906 138.906 0 0 1 20.119 3.928l-8.934 30.533c-2.102-1.734-4.53-3.138-7.282-4.212-2.312-.855-5.033-1.46-8.164-1.817-3.131-.354-6.447.143-9.945 1.493-1.968.676-3.88 1.709-5.733 3.098-1.853 1.39-3.509 3.076-4.972 5.066-1.463 1.988-2.539 4.277-3.227 6.86-.692 2.587-.856 5.415-.498 8.481 1.398 8.768 5.067 13.863 11.005 15.288 5.939 1.427 13.598-.867 22.98-6.879l21.479 26.465zM986.764 363.337l-74.385 1.35 2.853-100.266 69.12-1.137c-.279 5.379-.509 10.209-.688 14.491-.093 1.868-.159 3.65-.197 5.351a801.82 801.82 0 0 1-.122 4.609 110.23 110.23 0 0 0-.042 4.364l-34.231.482.084 9.052 25.508-.567-2.075 24.71-24.351 1.049-.42 7.904a4265.67 4265.67 0 0 0 18.924-.504c2.412-.023 4.744-.07 6.993-.148 2.248-.075 4.279-.147 6.089-.221 1.81-.071 3.867-.118 6.171-.14l.769 29.621zM1000.39 306.589c.002.221-.166-.217-.506-1.312-.339-1.093-.628-2.6-.865-4.519-.238-1.916-.286-4.166-.145-6.748.141-2.577.636-5.215 1.491-7.914.852-2.695 2.253-5.395 4.203-8.103 1.95-2.706 4.615-5.118 7.998-7.236 3.817-2.448 8.327-4.246 13.53-5.392 5.2-1.144 10.105-1.848 14.712-2.113 5.372-.379 10.86-.373 16.46.013l-1.486 34.907c.655-.334.428-.881-.674-1.639-1.106-.756-2.621-1.483-4.547-2.179-1.927-.695-4.101-1.305-6.519-1.833-2.42-.525-4.697-.668-6.835-.43-2.137.241-3.887.941-5.246 2.105-1.364 1.166-1.976 3.01-1.842 5.532-.208 1.429.491 2.739 2.094 3.931 1.601 1.194 3.697 2.408 6.288 3.645 2.589 1.238 5.374 2.584 8.351 4.037a58.644 58.644 0 0 1 8.524 5.106c2.706 1.95 4.977 4.233 6.811 6.85 1.835 2.616 2.824 5.734 2.968 9.354.03 3.183-.382 6.204-1.232 9.065-.746 2.532-1.902 5.148-3.466 7.85-1.568 2.705-3.767 5.056-6.601 7.057-3.923 2.891-8.075 4.987-12.451 6.288-4.378 1.301-8.732 2.111-13.063 2.427-4.334.312-8.42.267-12.263-.134-3.846-.403-7.227-.975-10.14-1.717-2.914-.738-5.144-1.487-6.687-2.242-1.545-.752-2.151-1.24-1.824-1.464l1.604-22.236c2.86.743 5.716 1.21 8.572 1.402 2.525.198 5.187.145 7.982-.156 2.796-.299 5.339-1.12 7.63-2.458 1.743-1.223 2.502-2.327 2.274-3.313-.23-.985-1.088-2.047-2.581-3.185-1.492-1.139-3.395-2.356-5.712-3.65-2.317-1.296-4.635-2.864-6.957-4.71a35.93 35.93 0 0 1-6.231-6.361c-1.833-2.395-3.04-5.239-3.619-8.525" fill="#009444"/></g></svg>