<svg viewBox="0 0 1283 311" xmlns="http://www.w3.org/2000/svg" fill-rule="evenodd" clip-rule="evenodd" stroke-linecap="round" stroke-linejoin="round" stroke-miterlimit="1.5"><g fill="none" stroke="#fff" stroke-width="3"><path d="M449.697 139.815c0 5.901-17.183 10.691-38.348 10.691s-38.348-4.79-38.348-10.691M449.697 225.838c0 5.9-17.183 10.69-38.348 10.69s-38.348-4.79-38.348-10.69M373.001 139.815c0-5.9 17.183-10.69 38.348-10.69s38.348 4.79 38.348 10.69"/><path d="M380.657 146.203c6.979-2.617 18.133-4.302 30.688-4.302 12.093 0 22.887 1.564 29.917 4.005l.779.294"/><path d="M380.657 146.203c6.979-2.617 18.133-4.302 30.688-4.302 12.093 0 22.887 1.564 29.917 4.005l.779.294M373.001 139.815v86.023M449.697 139.815v86.023M449.697 154.175h5.175c11.639 0 21.088 8.902 21.088 19.867v19.246c0 10.965-9.449 19.867-21.088 19.868h-5.175"/><path d="M449.697 205.113h3.5c7.897 0 14.309-6.041 14.309-13.482v-15.932c0-7.44-6.412-13.481-14.309-13.481h-3.5M390.534 120.599c2.539-5.927 7.618-11.854 7.618-17.781 0-5.926-7.618-11.853-7.618-17.78 0-5.926 5.078-11.853 7.618-17.78M407.401 120.599c2.54-5.927 7.618-11.854 7.618-17.781 0-5.926-7.618-11.853-7.618-17.78 0-5.926 5.079-11.853 7.618-17.78M424.546 120.599c2.54-5.927 7.618-11.854 7.618-17.781 0-5.926-7.618-11.853-7.618-17.78 0-5.926 5.079-11.853 7.618-17.78"/></g><g fill="none" stroke="#fff" stroke-width="3"><path d="M1.5 190.353h371.521M449.697 190.353h17.809M475.96 190.353h731.981M1217.1 190.353h64.397"/></g><g fill="#fff"><path d="M937.983 221.358c-7.397 2.523-14.526 8.066-21.787 11.746-3.03 1.536-6.153 2.703-9.189 3.218-4.036.685-7.943.241-11.976.8-3.605.499-7.254.983-10.881 2.158-6.339 2.053-12.469 6.814-18.683 10.348 0 2.497-.369 5.824.56 7.27.958 1.492 2.575 2.611 2.994 4.924.995 5.487 2.406 10.72 4.211 15.587.878 2.365 2.533 3.668 4.382 4.33 4.452 1.594 9.721.296 14.605-2.291 6.956-3.685 10.729-12.106 13.608-21.252 1.077-3.687 1.197-7.569 2.617-11.083.842-2.087 2.8-1.976 4.198-2.447 1.399-.471 2.585 2.331 3.019 4.314 1.536 7.018 4.098 14.154 9.189 16.408 7.603 3.367 19.58-1.711 24.513-13.972 1.93-4.798 2.464-10.02 3.432-15.048.59-3.062 1.116-6.653 3.213-8.924.847-.917.253-3.257.378-4.773.136-1.652.398-3.16-1.266-2.923-2.903.413-5.719-.327-8.69.093-2.816.397-5.575.537-8.447 1.517h0zm-48.904 18.91c2.1-.716 4.191-1.199 6.232-1.283 12.16-.505 12.406 6.295 7.4 22.185-4.079 12.947-12.529 18.657-21.044 18.705-3.925.022-6.609-2.85-7.875-7.583-1.336-4.996-2.346-10.439-2.118-16.232.307-7.757 6.611-10.926 11.125-13.122 2.071-1.008 4.18-1.955 6.28-2.67h0zm44.401-14.741c2.1-.678 4.209-1.132 6.281-1.5 4.513-.801 10.818-1.818 11.124 5.736.229 5.641-.782 11.755-2.118 17.638-1.266 5.574-3.95 10.228-7.875 12.812-8.514 5.606-16.964 5.506-21.044-4.733-5.006-12.565-4.76-19.528 7.4-27.098 2.041-1.271 4.132-2.176 6.232-2.855h0z" fill-rule="nonzero" stroke="#fff" stroke-width="3" stroke-linecap="butt" stroke-linejoin="miter" stroke-miterlimit="4"/><path d="M865.395 257.827s-43.504-29.457-55.641-32.73c-6.953-1.874-13.501 11.32-17.184 13.092-1.648.794-6.172-1.131-4.909-2.454 2.864-3.001 13.213-17.043 22.093-15.547 12.955 2.182 55.641 28.639 55.641 28.639v9zM955.402 228.37s-43.503-29.457-55.641-32.73c-6.952-1.874-13.501 11.32-17.183 13.092-1.648.794-6.173-1.131-4.909-2.454 2.863-3.001 13.213-17.043 22.092-15.547 12.956 2.182 55.641 28.639 55.641 28.639v9z"/></g><g fill="none" stroke="#fff" stroke-width="3"><path d="M493.252 304.623c-3.214 0-4.318-2.27-2.462-5.066l56.332-84.867c1.856-2.796 5.972-5.066 9.188-5.067h170.38l.152.002c3.191.069 7.209 2.312 9.036 5.065l56.332 84.867c1.856 2.796.752 5.066-2.462 5.066H493.252z"/><path d="M792.21 304.154c1.856 2.796.752 5.066-2.462 5.066H493.252c-3.214 0-4.318-2.27-2.462-5.066"/><ellipse cx="641.5" cy="257.123" rx="14.247" ry="5.391"/></g><g fill="none" stroke="#fff" stroke-width="3"><path d="M1248.35 245.746c0 7.548-30.425 13.676-67.899 13.676-37.475 0-67.9-6.128-67.9-13.676M1216.85 237.753c0 .441-1.775.798-3.962.798-2.187 0-3.963-.357-3.963-.798"/><path d="M1217.32 226.27c18.673 2.438 31.036 6.672 31.036 11.483 0 7.548-30.425 13.676-67.899 13.676-37.475 0-67.9-6.128-67.9-13.676 0-7.547 30.425-13.675 67.9-13.675 10.117 0 19.72.447 28.349 1.247M1089.78 85.401c-1.042 3.884 13.769 11.236 33.053 16.407 19.284 5.171 35.786 6.216 36.827 2.332 1.042-3.884-13.769-11.235-33.053-16.407-19.284-5.171-35.786-6.216-36.827-2.332M1120.72 14.115c.712-2.658 12.002-1.943 25.196 1.595 13.193 3.538 23.326 8.568 22.614 11.225M1168.72 26.987l-9.068 77.153M1089.78 85.401l30.751-71.338M1112.55 246.05v-8.509M1248.35 245.746v-8.509"/><path d="M1140.85 13.931c8.1-7.702 19.052-12.431 31.1-12.431 24.918 0 45.149 20.231 45.149 45.149"/><path d="M1150.51 16.54a36.78 36.78 0 0 1 21.44-6.857c20.402 0 36.966 16.564 36.966 36.966M1208.92 46.649v191.104M1217.1 46.649v191.104"/></g></svg>