<?xml version="1.0" encoding="UTF-8" standalone="no"?><!DOCTYPE svg PUBLIC "-//W3C//DTD SVG 1.1//EN" "http://www.w3.org/Graphics/SVG/1.1/DTD/svg11.dtd"><svg width="100%" height="100%" viewBox="0 0 268 172" version="1.1" xmlns="http://www.w3.org/2000/svg" xmlns:xlink="http://www.w3.org/1999/xlink" xml:space="preserve" xmlns:serif="http://www.serif.com/" style="fill-rule:evenodd;clip-rule:evenodd;stroke-linejoin:round;stroke-miterlimit:1.5;"><g><g id="left-brace"><path id="left-brace-lower" d="M1.5,85.832c11.707,0 21.198,9.491 21.198,21.198l0,41.936c0,11.707 9.491,21.198 21.198,21.198" style="fill:none;stroke:#fff;stroke-width:3px;"/><path id="left-brace-upper" d="M43.896,1.5c-11.707,0 -21.198,9.491 -21.198,21.198l0,41.936c0,11.707 -9.491,21.198 -21.198,21.198" style="fill:none;stroke:#fff;stroke-width:3px;"/></g><g id="right-brace"><path id="right-brace-lower" d="M265.509,85.832c-11.707,0 -21.198,9.491 -21.198,21.198l0,41.936c0,11.707 -9.491,21.198 -21.198,21.198" style="fill:none;stroke:#fff;stroke-width:3px;"/><path id="right-brace-upper" d="M223.113,1.5c11.707,0 21.198,9.491 21.198,21.198l0,41.936c0,11.707 9.491,21.198 21.198,21.198" style="fill:none;stroke:#fff;stroke-width:3px;"/></g><g id="letters"><path id="n" d="M55.685,50.57l13.132,0l0,6.301c1.31,-1.139 1.403,-1.162 1.984,-1.585c15.48,-11.258 40.963,-6.162 49.594,10.92c2.533,5.013 3.617,10.669 3.661,16.304l0.001,0.234l0,42.705l-13.264,0c0,0 0.07,-31.95 -0.009,-42.893c-0.078,-6.38 -2.117,-12.918 -7.656,-16.646c-9.706,-6.533 -24.416,-3.924 -30.609,5.573c-2.427,3.722 -3.551,8.203 -3.563,12.654l-0.007,41.312l-13.264,0l0,-74.879Z" style="fill:#fff;fill-rule:nonzero;"/><path id="b" d="M148.423,125.449l-13.133,0l0,-103.398l13.133,0c0,12.274 0,24.548 0,36.822c0.139,-0.135 0.278,-0.268 0.419,-0.4c14.935,-13.904 42.273,-11.532 54.739,4.976c12.446,16.481 9.712,43.903 -6.925,56.062c-13.974,10.213 -35.27,9.37 -48.115,-2.764l-0.118,-0.114l0,8.816Zm24.694,-62.992c-10.983,0.095 -21.352,7.747 -23.857,18.918c-2.632,11.737 2.636,25.365 13.821,30.067c12.545,5.275 29.584,-0.134 33.737,-14.467c3.28,-11.317 0.525,-25.375 -10.347,-31.374c-3.948,-2.178 -8.494,-3.111 -13.023,-3.144c-0.11,0 -0.22,0 -0.331,0Z" style="fill:#fff;fill-rule:nonzero;"/></g></g></svg>