<?xml version="1.0" encoding="UTF-8" standalone="no"?><!DOCTYPE svg PUBLIC "-//W3C//DTD SVG 1.1//EN" "http://www.w3.org/Graphics/SVG/1.1/DTD/svg11.dtd"><svg width="100%" height="100%" viewBox="0 0 351 229" version="1.1" xmlns="http://www.w3.org/2000/svg" xmlns:xlink="http://www.w3.org/1999/xlink" xml:space="preserve" xmlns:serif="http://www.serif.com/" style="fill-rule:evenodd;clip-rule:evenodd;stroke-linejoin:round;stroke-miterlimit:1.5;"><g><g id="left-brace"><path id="left-brace-lower" d="M2,114.442c15.61,0 28.264,12.655 28.264,28.265l0,55.914c0,15.61 12.654,28.264 28.264,28.264" style="fill:none;stroke:#fff;stroke-width:4px;"/><path id="left-brace-upper" d="M58.528,2c-15.61,0 -28.264,12.654 -28.264,28.264l0,55.914c0,15.61 -12.654,28.264 -28.264,28.264" style="fill:none;stroke:#fff;stroke-width:4px;"/></g><g id="right-brace"><path id="right-brace-lower" d="M348.012,114.442c-15.61,0 -28.264,12.655 -28.264,28.265l0,55.914c0,15.61 -12.654,28.264 -28.264,28.264" style="fill:none;stroke:#fff;stroke-width:4px;"/><path id="right-brace-upper" d="M291.484,2c15.61,0 28.264,12.654 28.264,28.264l0,55.914c0,15.61 12.654,28.264 28.264,28.264" style="fill:none;stroke:#fff;stroke-width:4px;"/></g><g id="nb" fill="#fff"><path id="n" d="M74.246,67.427l17.51,0l0,8.401c1.746,-1.518 1.871,-1.55 2.646,-2.113c20.639,-15.011 54.616,-8.216 66.125,14.56c3.377,6.683 4.822,14.226 4.881,21.738l0.001,0.313l0,56.939l-17.686,0c0,0 0.094,-42.6 -0.011,-57.19c-0.103,-8.507 -2.822,-17.225 -10.208,-22.195c-12.942,-8.711 -32.555,-5.232 -40.812,7.431c-3.236,4.962 -4.735,10.937 -4.751,16.872l-0.009,55.082l-17.686,0l0,-99.838Z" style="fill-rule:nonzero;"/><path id="b" d="M197.897,167.265l-17.51,0l0,-137.864l17.51,0c0,16.365 0,32.731 0,49.096c0.185,-0.179 0.372,-0.357 0.559,-0.533c19.913,-18.539 56.363,-15.376 72.985,6.635c16.594,21.974 12.949,58.537 -9.233,74.749c-18.632,13.617 -47.027,12.493 -64.153,-3.686l-0.158,-0.151l0,11.754Zm32.926,-83.989c-14.645,0.127 -28.47,10.33 -31.81,25.224c-3.509,15.649 3.515,33.819 18.428,40.09c16.726,7.033 39.445,-0.179 44.983,-19.289c4.373,-15.091 0.7,-33.835 -13.797,-41.833c-5.263,-2.904 -11.324,-4.148 -17.363,-4.192c-0.147,0 -0.294,0 -0.441,0Z" style="fill-rule:nonzero;"/></g></g></svg>